G75*
%MOIN*%
%OFA0B0*%
%FSLAX25Y25*%
%IPPOS*%
%LPD*%
%AMOC8*
5,1,8,0,0,1.08239X$1,22.5*
%
%ADD10C,0.13398*%
%ADD11R,0.05918X0.06706*%
%ADD12R,0.06706X0.05918*%
%ADD13R,0.08280X0.14186*%
%ADD14R,0.05918X0.07099*%
%ADD15R,0.07099X0.05918*%
%ADD16R,0.04000X0.02000*%
%ADD17R,0.02000X0.04000*%
%ADD18R,0.11000X0.11000*%
%ADD19C,0.05950*%
%ADD20R,0.10643X0.10643*%
%ADD21C,0.03556*%
%ADD22C,0.07099*%
%ADD23C,0.07887*%
%ADD24R,0.06312X0.04737*%
%ADD25C,0.13855*%
%ADD26C,0.06343*%
%ADD27R,0.07400X0.04000*%
%ADD28C,0.03950*%
%ADD29R,0.15800X0.08400*%
%ADD30R,0.23250X0.04500*%
%ADD31R,0.04125X0.52750*%
%ADD32R,0.19250X0.04500*%
%ADD33R,0.15875X0.08625*%
%ADD34C,0.06800*%
%ADD35R,0.03950X0.03950*%
%ADD36OC8,0.07800*%
%ADD37R,0.07800X0.07800*%
%ADD38R,0.09600X0.06700*%
%ADD39R,0.14186X0.08280*%
%ADD40R,0.06700X0.09600*%
%ADD41R,0.05918X0.05524*%
%ADD42R,0.05800X0.03000*%
%ADD43R,0.06312X0.07887*%
%ADD44R,0.04737X0.06312*%
%ADD45C,0.04369*%
%ADD46C,0.04762*%
D10*
X0047750Y0152291D03*
X0119000Y0217291D03*
D11*
X0118240Y0163341D03*
X0110760Y0163341D03*
X0110260Y0139441D03*
X0117740Y0139441D03*
X0094740Y0134541D03*
X0087260Y0134541D03*
X0132474Y0083102D03*
X0139954Y0083102D03*
X0156855Y0079188D03*
X0164336Y0079188D03*
X0164216Y0053320D03*
X0171697Y0053320D03*
X0148340Y0009240D03*
X0140860Y0009240D03*
D12*
X0112575Y0013651D03*
X0112575Y0021131D03*
X0118393Y0072905D03*
X0118393Y0080385D03*
X0125424Y0088018D03*
X0125424Y0095499D03*
X0103800Y0111551D03*
X0103800Y0119031D03*
X0151307Y0094879D03*
X0151307Y0087398D03*
X0149472Y0193571D03*
X0149472Y0201051D03*
D13*
X0161438Y0101547D03*
X0176792Y0101547D03*
X0096760Y0095635D03*
X0081406Y0095635D03*
D14*
X0088746Y0075635D03*
X0096227Y0075635D03*
X0103321Y0075841D03*
X0110802Y0075841D03*
X0118103Y0032265D03*
X0125583Y0032265D03*
X0172563Y0078916D03*
X0180043Y0078916D03*
X0161140Y0119891D03*
X0153660Y0119891D03*
X0153510Y0134341D03*
X0160990Y0134341D03*
X0161240Y0148591D03*
X0153760Y0148591D03*
D15*
X0139350Y0181651D03*
X0139350Y0189131D03*
X0130950Y0188931D03*
X0130950Y0181451D03*
X0131200Y0198576D03*
X0131200Y0206056D03*
X0101050Y0188381D03*
X0101050Y0180901D03*
X0149244Y0026198D03*
X0149244Y0018718D03*
X0171038Y0018739D03*
X0171038Y0026219D03*
D16*
X0146106Y0055205D03*
X0146106Y0057105D03*
X0146106Y0059105D03*
X0146106Y0061105D03*
X0146106Y0063105D03*
X0146106Y0065005D03*
X0130506Y0065005D03*
X0130506Y0063105D03*
X0130506Y0061105D03*
X0130506Y0059105D03*
X0130506Y0057105D03*
X0130506Y0055205D03*
X0119750Y0147141D03*
X0119750Y0149041D03*
X0119750Y0151041D03*
X0119750Y0153041D03*
X0119750Y0154941D03*
X0108750Y0154941D03*
X0108750Y0153041D03*
X0108750Y0151041D03*
X0108750Y0149041D03*
X0108750Y0147141D03*
D17*
X0093250Y0120591D03*
X0091350Y0120591D03*
X0089350Y0120591D03*
X0087350Y0120591D03*
X0085450Y0120591D03*
X0085450Y0109591D03*
X0087350Y0109591D03*
X0089350Y0109591D03*
X0091350Y0109591D03*
X0093250Y0109591D03*
X0133406Y0067905D03*
X0135306Y0067905D03*
X0137306Y0067905D03*
X0139306Y0067905D03*
X0141306Y0067905D03*
X0143206Y0067905D03*
X0143206Y0052305D03*
X0141306Y0052305D03*
X0139306Y0052305D03*
X0137306Y0052305D03*
X0135306Y0052305D03*
X0133406Y0052305D03*
D18*
X0138206Y0060105D03*
D19*
X0130692Y0024085D02*
X0125542Y0024085D01*
X0099558Y0024085D02*
X0094408Y0024085D01*
D20*
X0098377Y0013061D03*
X0126723Y0013061D03*
D21*
X0120227Y0020541D03*
X0104873Y0020541D03*
D22*
X0159450Y0024441D03*
D23*
X0159450Y0042158D03*
D24*
X0163207Y0181279D03*
X0163207Y0188759D03*
X0154546Y0185019D03*
D25*
X0075831Y0025675D03*
X0075831Y0077407D03*
X0075831Y0149425D03*
X0075831Y0201157D03*
D26*
X0086500Y0189071D03*
X0086500Y0179228D03*
X0086500Y0171354D03*
X0086500Y0161512D03*
X0086500Y0065321D03*
X0086500Y0055478D03*
X0086500Y0047604D03*
X0086500Y0037762D03*
D27*
X0032231Y0104302D03*
X0032231Y0112176D03*
X0032231Y0120050D03*
X0032231Y0127924D03*
X0032421Y0176136D03*
X0032421Y0184010D03*
X0032421Y0191884D03*
X0032421Y0199758D03*
D28*
X0028484Y0212319D03*
X0009267Y0212319D03*
X0009267Y0163575D03*
X0028484Y0163575D03*
X0028294Y0140485D03*
X0009078Y0140485D03*
X0009078Y0091741D03*
X0028294Y0091741D03*
D29*
X0035919Y0091866D03*
X0036109Y0163700D03*
D30*
X0016609Y0161575D03*
X0016419Y0089741D03*
D31*
X0006857Y0118366D03*
X0007046Y0190200D03*
D32*
X0018609Y0214325D03*
X0018419Y0142491D03*
D33*
X0035982Y0140429D03*
X0036171Y0212262D03*
D34*
X0049750Y0214841D02*
X0055750Y0214841D01*
X0055750Y0204841D02*
X0049750Y0204841D01*
X0049750Y0194841D02*
X0055750Y0194841D01*
X0055750Y0184841D02*
X0049750Y0184841D01*
D35*
X0174597Y0162191D03*
X0180503Y0162191D03*
X0180078Y0135166D03*
X0174172Y0135166D03*
X0174497Y0125241D03*
X0180403Y0125241D03*
X0166070Y0013299D03*
X0166070Y0007393D03*
X0159875Y0007393D03*
X0159875Y0013299D03*
D36*
X0096692Y0214657D03*
X0086692Y0214657D03*
D37*
X0076692Y0214657D03*
D38*
X0089350Y0115091D03*
D39*
X0134325Y0143664D03*
X0134325Y0159019D03*
D40*
X0114250Y0151041D03*
D41*
X0118450Y0063641D03*
X0118450Y0055641D03*
X0118450Y0047641D03*
X0107800Y0047641D03*
X0107800Y0055641D03*
X0107800Y0063641D03*
X0096650Y0063641D03*
X0096650Y0055641D03*
X0096650Y0047641D03*
D42*
X0111500Y0181491D03*
X0111500Y0188891D03*
X0121700Y0188891D03*
X0121700Y0185191D03*
X0121700Y0181491D03*
D43*
X0113243Y0201841D03*
X0099857Y0201841D03*
D44*
X0153360Y0162461D03*
X0160840Y0162461D03*
X0157100Y0171122D03*
D45*
X0168375Y0185416D03*
X0171519Y0209242D03*
X0145950Y0209341D03*
X0125250Y0202291D03*
X0118750Y0198941D03*
X0107550Y0185341D03*
X0111550Y0175741D03*
X0113150Y0169341D03*
X0110250Y0157973D03*
X0102826Y0154204D03*
X0095250Y0162291D03*
X0103375Y0142916D03*
X0093150Y0125341D03*
X0097150Y0119741D03*
X0097150Y0108541D03*
X0081500Y0106041D03*
X0088375Y0082916D03*
X0103500Y0069341D03*
X0101950Y0060541D03*
X0102125Y0052291D03*
X0116500Y0041041D03*
X0124350Y0046941D03*
X0129150Y0051741D03*
X0123725Y0062941D03*
X0134625Y0077291D03*
X0139375Y0077541D03*
X0145425Y0077266D03*
X0148975Y0073516D03*
X0142750Y0072291D03*
X0151550Y0082141D03*
X0163550Y0073341D03*
X0167750Y0069166D03*
X0159000Y0061041D03*
X0159160Y0056096D03*
X0152995Y0062545D03*
X0150875Y0043541D03*
X0135875Y0034166D03*
X0154108Y0011300D03*
X0112750Y0031041D03*
X0163550Y0091741D03*
X0154750Y0100541D03*
X0150269Y0100321D03*
X0154750Y0128541D03*
X0124000Y0152291D03*
X0124000Y0161041D03*
X0127550Y0175741D03*
X0141150Y0165341D03*
X0122750Y0143741D03*
X0067550Y0174791D03*
X0055875Y0174166D03*
X0020250Y0152291D03*
X0045875Y0104791D03*
D46*
X0149000Y0048541D03*
X0169000Y0213541D03*
M02*
