G75*
%MOIN*%
%OFA0B0*%
%FSLAX25Y25*%
%IPPOS*%
%LPD*%
%AMOC8*
5,1,8,0,0,1.08239X$1,22.5*
%
%ADD10C,0.00098*%
%ADD11C,0.00000*%
D10*
X0050575Y0001769D02*
X0050581Y0078877D01*
X0050578Y0078877D02*
X0001879Y0078878D01*
X0001830Y0224820D01*
X0001830Y0224821D02*
X0151575Y0224860D01*
X0151577Y0224857D02*
X0001864Y0224820D01*
X0151577Y0224857D02*
X0189077Y0224795D01*
X0189077Y0040807D01*
X0189209Y0001770D01*
X0050576Y0001768D01*
X0050575Y0001769D02*
X0189210Y0001769D01*
X0189088Y0035609D02*
X0189088Y0219598D01*
D11*
X0112701Y0217291D02*
X0112703Y0217449D01*
X0112709Y0217607D01*
X0112719Y0217765D01*
X0112733Y0217923D01*
X0112751Y0218080D01*
X0112772Y0218237D01*
X0112798Y0218393D01*
X0112828Y0218549D01*
X0112861Y0218704D01*
X0112899Y0218857D01*
X0112940Y0219010D01*
X0112985Y0219162D01*
X0113034Y0219313D01*
X0113087Y0219462D01*
X0113143Y0219610D01*
X0113203Y0219756D01*
X0113267Y0219901D01*
X0113335Y0220044D01*
X0113406Y0220186D01*
X0113480Y0220326D01*
X0113558Y0220463D01*
X0113640Y0220599D01*
X0113724Y0220733D01*
X0113813Y0220864D01*
X0113904Y0220993D01*
X0113999Y0221120D01*
X0114096Y0221245D01*
X0114197Y0221367D01*
X0114301Y0221486D01*
X0114408Y0221603D01*
X0114518Y0221717D01*
X0114631Y0221828D01*
X0114746Y0221937D01*
X0114864Y0222042D01*
X0114985Y0222144D01*
X0115108Y0222244D01*
X0115234Y0222340D01*
X0115362Y0222433D01*
X0115492Y0222523D01*
X0115625Y0222609D01*
X0115760Y0222693D01*
X0115896Y0222772D01*
X0116035Y0222849D01*
X0116176Y0222921D01*
X0116318Y0222991D01*
X0116462Y0223056D01*
X0116608Y0223118D01*
X0116755Y0223176D01*
X0116904Y0223231D01*
X0117054Y0223282D01*
X0117205Y0223329D01*
X0117357Y0223372D01*
X0117510Y0223411D01*
X0117665Y0223447D01*
X0117820Y0223478D01*
X0117976Y0223506D01*
X0118132Y0223530D01*
X0118289Y0223550D01*
X0118447Y0223566D01*
X0118604Y0223578D01*
X0118763Y0223586D01*
X0118921Y0223590D01*
X0119079Y0223590D01*
X0119237Y0223586D01*
X0119396Y0223578D01*
X0119553Y0223566D01*
X0119711Y0223550D01*
X0119868Y0223530D01*
X0120024Y0223506D01*
X0120180Y0223478D01*
X0120335Y0223447D01*
X0120490Y0223411D01*
X0120643Y0223372D01*
X0120795Y0223329D01*
X0120946Y0223282D01*
X0121096Y0223231D01*
X0121245Y0223176D01*
X0121392Y0223118D01*
X0121538Y0223056D01*
X0121682Y0222991D01*
X0121824Y0222921D01*
X0121965Y0222849D01*
X0122104Y0222772D01*
X0122240Y0222693D01*
X0122375Y0222609D01*
X0122508Y0222523D01*
X0122638Y0222433D01*
X0122766Y0222340D01*
X0122892Y0222244D01*
X0123015Y0222144D01*
X0123136Y0222042D01*
X0123254Y0221937D01*
X0123369Y0221828D01*
X0123482Y0221717D01*
X0123592Y0221603D01*
X0123699Y0221486D01*
X0123803Y0221367D01*
X0123904Y0221245D01*
X0124001Y0221120D01*
X0124096Y0220993D01*
X0124187Y0220864D01*
X0124276Y0220733D01*
X0124360Y0220599D01*
X0124442Y0220463D01*
X0124520Y0220326D01*
X0124594Y0220186D01*
X0124665Y0220044D01*
X0124733Y0219901D01*
X0124797Y0219756D01*
X0124857Y0219610D01*
X0124913Y0219462D01*
X0124966Y0219313D01*
X0125015Y0219162D01*
X0125060Y0219010D01*
X0125101Y0218857D01*
X0125139Y0218704D01*
X0125172Y0218549D01*
X0125202Y0218393D01*
X0125228Y0218237D01*
X0125249Y0218080D01*
X0125267Y0217923D01*
X0125281Y0217765D01*
X0125291Y0217607D01*
X0125297Y0217449D01*
X0125299Y0217291D01*
X0125297Y0217133D01*
X0125291Y0216975D01*
X0125281Y0216817D01*
X0125267Y0216659D01*
X0125249Y0216502D01*
X0125228Y0216345D01*
X0125202Y0216189D01*
X0125172Y0216033D01*
X0125139Y0215878D01*
X0125101Y0215725D01*
X0125060Y0215572D01*
X0125015Y0215420D01*
X0124966Y0215269D01*
X0124913Y0215120D01*
X0124857Y0214972D01*
X0124797Y0214826D01*
X0124733Y0214681D01*
X0124665Y0214538D01*
X0124594Y0214396D01*
X0124520Y0214256D01*
X0124442Y0214119D01*
X0124360Y0213983D01*
X0124276Y0213849D01*
X0124187Y0213718D01*
X0124096Y0213589D01*
X0124001Y0213462D01*
X0123904Y0213337D01*
X0123803Y0213215D01*
X0123699Y0213096D01*
X0123592Y0212979D01*
X0123482Y0212865D01*
X0123369Y0212754D01*
X0123254Y0212645D01*
X0123136Y0212540D01*
X0123015Y0212438D01*
X0122892Y0212338D01*
X0122766Y0212242D01*
X0122638Y0212149D01*
X0122508Y0212059D01*
X0122375Y0211973D01*
X0122240Y0211889D01*
X0122104Y0211810D01*
X0121965Y0211733D01*
X0121824Y0211661D01*
X0121682Y0211591D01*
X0121538Y0211526D01*
X0121392Y0211464D01*
X0121245Y0211406D01*
X0121096Y0211351D01*
X0120946Y0211300D01*
X0120795Y0211253D01*
X0120643Y0211210D01*
X0120490Y0211171D01*
X0120335Y0211135D01*
X0120180Y0211104D01*
X0120024Y0211076D01*
X0119868Y0211052D01*
X0119711Y0211032D01*
X0119553Y0211016D01*
X0119396Y0211004D01*
X0119237Y0210996D01*
X0119079Y0210992D01*
X0118921Y0210992D01*
X0118763Y0210996D01*
X0118604Y0211004D01*
X0118447Y0211016D01*
X0118289Y0211032D01*
X0118132Y0211052D01*
X0117976Y0211076D01*
X0117820Y0211104D01*
X0117665Y0211135D01*
X0117510Y0211171D01*
X0117357Y0211210D01*
X0117205Y0211253D01*
X0117054Y0211300D01*
X0116904Y0211351D01*
X0116755Y0211406D01*
X0116608Y0211464D01*
X0116462Y0211526D01*
X0116318Y0211591D01*
X0116176Y0211661D01*
X0116035Y0211733D01*
X0115896Y0211810D01*
X0115760Y0211889D01*
X0115625Y0211973D01*
X0115492Y0212059D01*
X0115362Y0212149D01*
X0115234Y0212242D01*
X0115108Y0212338D01*
X0114985Y0212438D01*
X0114864Y0212540D01*
X0114746Y0212645D01*
X0114631Y0212754D01*
X0114518Y0212865D01*
X0114408Y0212979D01*
X0114301Y0213096D01*
X0114197Y0213215D01*
X0114096Y0213337D01*
X0113999Y0213462D01*
X0113904Y0213589D01*
X0113813Y0213718D01*
X0113724Y0213849D01*
X0113640Y0213983D01*
X0113558Y0214119D01*
X0113480Y0214256D01*
X0113406Y0214396D01*
X0113335Y0214538D01*
X0113267Y0214681D01*
X0113203Y0214826D01*
X0113143Y0214972D01*
X0113087Y0215120D01*
X0113034Y0215269D01*
X0112985Y0215420D01*
X0112940Y0215572D01*
X0112899Y0215725D01*
X0112861Y0215878D01*
X0112828Y0216033D01*
X0112798Y0216189D01*
X0112772Y0216345D01*
X0112751Y0216502D01*
X0112733Y0216659D01*
X0112719Y0216817D01*
X0112709Y0216975D01*
X0112703Y0217133D01*
X0112701Y0217291D01*
X0041451Y0152291D02*
X0041453Y0152449D01*
X0041459Y0152607D01*
X0041469Y0152765D01*
X0041483Y0152923D01*
X0041501Y0153080D01*
X0041522Y0153237D01*
X0041548Y0153393D01*
X0041578Y0153549D01*
X0041611Y0153704D01*
X0041649Y0153857D01*
X0041690Y0154010D01*
X0041735Y0154162D01*
X0041784Y0154313D01*
X0041837Y0154462D01*
X0041893Y0154610D01*
X0041953Y0154756D01*
X0042017Y0154901D01*
X0042085Y0155044D01*
X0042156Y0155186D01*
X0042230Y0155326D01*
X0042308Y0155463D01*
X0042390Y0155599D01*
X0042474Y0155733D01*
X0042563Y0155864D01*
X0042654Y0155993D01*
X0042749Y0156120D01*
X0042846Y0156245D01*
X0042947Y0156367D01*
X0043051Y0156486D01*
X0043158Y0156603D01*
X0043268Y0156717D01*
X0043381Y0156828D01*
X0043496Y0156937D01*
X0043614Y0157042D01*
X0043735Y0157144D01*
X0043858Y0157244D01*
X0043984Y0157340D01*
X0044112Y0157433D01*
X0044242Y0157523D01*
X0044375Y0157609D01*
X0044510Y0157693D01*
X0044646Y0157772D01*
X0044785Y0157849D01*
X0044926Y0157921D01*
X0045068Y0157991D01*
X0045212Y0158056D01*
X0045358Y0158118D01*
X0045505Y0158176D01*
X0045654Y0158231D01*
X0045804Y0158282D01*
X0045955Y0158329D01*
X0046107Y0158372D01*
X0046260Y0158411D01*
X0046415Y0158447D01*
X0046570Y0158478D01*
X0046726Y0158506D01*
X0046882Y0158530D01*
X0047039Y0158550D01*
X0047197Y0158566D01*
X0047354Y0158578D01*
X0047513Y0158586D01*
X0047671Y0158590D01*
X0047829Y0158590D01*
X0047987Y0158586D01*
X0048146Y0158578D01*
X0048303Y0158566D01*
X0048461Y0158550D01*
X0048618Y0158530D01*
X0048774Y0158506D01*
X0048930Y0158478D01*
X0049085Y0158447D01*
X0049240Y0158411D01*
X0049393Y0158372D01*
X0049545Y0158329D01*
X0049696Y0158282D01*
X0049846Y0158231D01*
X0049995Y0158176D01*
X0050142Y0158118D01*
X0050288Y0158056D01*
X0050432Y0157991D01*
X0050574Y0157921D01*
X0050715Y0157849D01*
X0050854Y0157772D01*
X0050990Y0157693D01*
X0051125Y0157609D01*
X0051258Y0157523D01*
X0051388Y0157433D01*
X0051516Y0157340D01*
X0051642Y0157244D01*
X0051765Y0157144D01*
X0051886Y0157042D01*
X0052004Y0156937D01*
X0052119Y0156828D01*
X0052232Y0156717D01*
X0052342Y0156603D01*
X0052449Y0156486D01*
X0052553Y0156367D01*
X0052654Y0156245D01*
X0052751Y0156120D01*
X0052846Y0155993D01*
X0052937Y0155864D01*
X0053026Y0155733D01*
X0053110Y0155599D01*
X0053192Y0155463D01*
X0053270Y0155326D01*
X0053344Y0155186D01*
X0053415Y0155044D01*
X0053483Y0154901D01*
X0053547Y0154756D01*
X0053607Y0154610D01*
X0053663Y0154462D01*
X0053716Y0154313D01*
X0053765Y0154162D01*
X0053810Y0154010D01*
X0053851Y0153857D01*
X0053889Y0153704D01*
X0053922Y0153549D01*
X0053952Y0153393D01*
X0053978Y0153237D01*
X0053999Y0153080D01*
X0054017Y0152923D01*
X0054031Y0152765D01*
X0054041Y0152607D01*
X0054047Y0152449D01*
X0054049Y0152291D01*
X0054047Y0152133D01*
X0054041Y0151975D01*
X0054031Y0151817D01*
X0054017Y0151659D01*
X0053999Y0151502D01*
X0053978Y0151345D01*
X0053952Y0151189D01*
X0053922Y0151033D01*
X0053889Y0150878D01*
X0053851Y0150725D01*
X0053810Y0150572D01*
X0053765Y0150420D01*
X0053716Y0150269D01*
X0053663Y0150120D01*
X0053607Y0149972D01*
X0053547Y0149826D01*
X0053483Y0149681D01*
X0053415Y0149538D01*
X0053344Y0149396D01*
X0053270Y0149256D01*
X0053192Y0149119D01*
X0053110Y0148983D01*
X0053026Y0148849D01*
X0052937Y0148718D01*
X0052846Y0148589D01*
X0052751Y0148462D01*
X0052654Y0148337D01*
X0052553Y0148215D01*
X0052449Y0148096D01*
X0052342Y0147979D01*
X0052232Y0147865D01*
X0052119Y0147754D01*
X0052004Y0147645D01*
X0051886Y0147540D01*
X0051765Y0147438D01*
X0051642Y0147338D01*
X0051516Y0147242D01*
X0051388Y0147149D01*
X0051258Y0147059D01*
X0051125Y0146973D01*
X0050990Y0146889D01*
X0050854Y0146810D01*
X0050715Y0146733D01*
X0050574Y0146661D01*
X0050432Y0146591D01*
X0050288Y0146526D01*
X0050142Y0146464D01*
X0049995Y0146406D01*
X0049846Y0146351D01*
X0049696Y0146300D01*
X0049545Y0146253D01*
X0049393Y0146210D01*
X0049240Y0146171D01*
X0049085Y0146135D01*
X0048930Y0146104D01*
X0048774Y0146076D01*
X0048618Y0146052D01*
X0048461Y0146032D01*
X0048303Y0146016D01*
X0048146Y0146004D01*
X0047987Y0145996D01*
X0047829Y0145992D01*
X0047671Y0145992D01*
X0047513Y0145996D01*
X0047354Y0146004D01*
X0047197Y0146016D01*
X0047039Y0146032D01*
X0046882Y0146052D01*
X0046726Y0146076D01*
X0046570Y0146104D01*
X0046415Y0146135D01*
X0046260Y0146171D01*
X0046107Y0146210D01*
X0045955Y0146253D01*
X0045804Y0146300D01*
X0045654Y0146351D01*
X0045505Y0146406D01*
X0045358Y0146464D01*
X0045212Y0146526D01*
X0045068Y0146591D01*
X0044926Y0146661D01*
X0044785Y0146733D01*
X0044646Y0146810D01*
X0044510Y0146889D01*
X0044375Y0146973D01*
X0044242Y0147059D01*
X0044112Y0147149D01*
X0043984Y0147242D01*
X0043858Y0147338D01*
X0043735Y0147438D01*
X0043614Y0147540D01*
X0043496Y0147645D01*
X0043381Y0147754D01*
X0043268Y0147865D01*
X0043158Y0147979D01*
X0043051Y0148096D01*
X0042947Y0148215D01*
X0042846Y0148337D01*
X0042749Y0148462D01*
X0042654Y0148589D01*
X0042563Y0148718D01*
X0042474Y0148849D01*
X0042390Y0148983D01*
X0042308Y0149119D01*
X0042230Y0149256D01*
X0042156Y0149396D01*
X0042085Y0149538D01*
X0042017Y0149681D01*
X0041953Y0149826D01*
X0041893Y0149972D01*
X0041837Y0150120D01*
X0041784Y0150269D01*
X0041735Y0150420D01*
X0041690Y0150572D01*
X0041649Y0150725D01*
X0041611Y0150878D01*
X0041578Y0151033D01*
X0041548Y0151189D01*
X0041522Y0151345D01*
X0041501Y0151502D01*
X0041483Y0151659D01*
X0041469Y0151817D01*
X0041459Y0151975D01*
X0041453Y0152133D01*
X0041451Y0152291D01*
X0026909Y0163575D02*
X0026911Y0163654D01*
X0026917Y0163733D01*
X0026927Y0163812D01*
X0026941Y0163890D01*
X0026958Y0163967D01*
X0026980Y0164043D01*
X0027005Y0164118D01*
X0027035Y0164191D01*
X0027067Y0164263D01*
X0027104Y0164334D01*
X0027144Y0164402D01*
X0027187Y0164468D01*
X0027233Y0164532D01*
X0027283Y0164594D01*
X0027336Y0164653D01*
X0027391Y0164709D01*
X0027450Y0164763D01*
X0027511Y0164813D01*
X0027574Y0164861D01*
X0027640Y0164905D01*
X0027708Y0164946D01*
X0027778Y0164983D01*
X0027849Y0165017D01*
X0027923Y0165047D01*
X0027997Y0165073D01*
X0028073Y0165095D01*
X0028150Y0165114D01*
X0028228Y0165129D01*
X0028306Y0165140D01*
X0028385Y0165147D01*
X0028464Y0165150D01*
X0028543Y0165149D01*
X0028622Y0165144D01*
X0028701Y0165135D01*
X0028779Y0165122D01*
X0028856Y0165105D01*
X0028933Y0165085D01*
X0029008Y0165060D01*
X0029082Y0165032D01*
X0029155Y0165000D01*
X0029225Y0164965D01*
X0029294Y0164926D01*
X0029361Y0164883D01*
X0029426Y0164837D01*
X0029488Y0164789D01*
X0029548Y0164737D01*
X0029605Y0164682D01*
X0029659Y0164624D01*
X0029710Y0164564D01*
X0029758Y0164501D01*
X0029803Y0164436D01*
X0029845Y0164368D01*
X0029883Y0164299D01*
X0029917Y0164228D01*
X0029948Y0164155D01*
X0029976Y0164080D01*
X0029999Y0164005D01*
X0030019Y0163928D01*
X0030035Y0163851D01*
X0030047Y0163772D01*
X0030055Y0163694D01*
X0030059Y0163615D01*
X0030059Y0163535D01*
X0030055Y0163456D01*
X0030047Y0163378D01*
X0030035Y0163299D01*
X0030019Y0163222D01*
X0029999Y0163145D01*
X0029976Y0163070D01*
X0029948Y0162995D01*
X0029917Y0162922D01*
X0029883Y0162851D01*
X0029845Y0162782D01*
X0029803Y0162714D01*
X0029758Y0162649D01*
X0029710Y0162586D01*
X0029659Y0162526D01*
X0029605Y0162468D01*
X0029548Y0162413D01*
X0029488Y0162361D01*
X0029426Y0162313D01*
X0029361Y0162267D01*
X0029294Y0162224D01*
X0029225Y0162185D01*
X0029155Y0162150D01*
X0029082Y0162118D01*
X0029008Y0162090D01*
X0028933Y0162065D01*
X0028856Y0162045D01*
X0028779Y0162028D01*
X0028701Y0162015D01*
X0028622Y0162006D01*
X0028543Y0162001D01*
X0028464Y0162000D01*
X0028385Y0162003D01*
X0028306Y0162010D01*
X0028228Y0162021D01*
X0028150Y0162036D01*
X0028073Y0162055D01*
X0027997Y0162077D01*
X0027923Y0162103D01*
X0027849Y0162133D01*
X0027778Y0162167D01*
X0027708Y0162204D01*
X0027640Y0162245D01*
X0027574Y0162289D01*
X0027511Y0162337D01*
X0027450Y0162387D01*
X0027391Y0162441D01*
X0027336Y0162497D01*
X0027283Y0162556D01*
X0027233Y0162618D01*
X0027187Y0162682D01*
X0027144Y0162748D01*
X0027104Y0162816D01*
X0027067Y0162887D01*
X0027035Y0162959D01*
X0027005Y0163032D01*
X0026980Y0163107D01*
X0026958Y0163183D01*
X0026941Y0163260D01*
X0026927Y0163338D01*
X0026917Y0163417D01*
X0026911Y0163496D01*
X0026909Y0163575D01*
X0028484Y0163575D02*
X0008984Y0163575D01*
X0008984Y0212325D01*
X0028484Y0212325D01*
X0028484Y0163575D01*
X0007692Y0163575D02*
X0007694Y0163654D01*
X0007700Y0163733D01*
X0007710Y0163812D01*
X0007724Y0163890D01*
X0007741Y0163967D01*
X0007763Y0164043D01*
X0007788Y0164118D01*
X0007818Y0164191D01*
X0007850Y0164263D01*
X0007887Y0164334D01*
X0007927Y0164402D01*
X0007970Y0164468D01*
X0008016Y0164532D01*
X0008066Y0164594D01*
X0008119Y0164653D01*
X0008174Y0164709D01*
X0008233Y0164763D01*
X0008294Y0164813D01*
X0008357Y0164861D01*
X0008423Y0164905D01*
X0008491Y0164946D01*
X0008561Y0164983D01*
X0008632Y0165017D01*
X0008706Y0165047D01*
X0008780Y0165073D01*
X0008856Y0165095D01*
X0008933Y0165114D01*
X0009011Y0165129D01*
X0009089Y0165140D01*
X0009168Y0165147D01*
X0009247Y0165150D01*
X0009326Y0165149D01*
X0009405Y0165144D01*
X0009484Y0165135D01*
X0009562Y0165122D01*
X0009639Y0165105D01*
X0009716Y0165085D01*
X0009791Y0165060D01*
X0009865Y0165032D01*
X0009938Y0165000D01*
X0010008Y0164965D01*
X0010077Y0164926D01*
X0010144Y0164883D01*
X0010209Y0164837D01*
X0010271Y0164789D01*
X0010331Y0164737D01*
X0010388Y0164682D01*
X0010442Y0164624D01*
X0010493Y0164564D01*
X0010541Y0164501D01*
X0010586Y0164436D01*
X0010628Y0164368D01*
X0010666Y0164299D01*
X0010700Y0164228D01*
X0010731Y0164155D01*
X0010759Y0164080D01*
X0010782Y0164005D01*
X0010802Y0163928D01*
X0010818Y0163851D01*
X0010830Y0163772D01*
X0010838Y0163694D01*
X0010842Y0163615D01*
X0010842Y0163535D01*
X0010838Y0163456D01*
X0010830Y0163378D01*
X0010818Y0163299D01*
X0010802Y0163222D01*
X0010782Y0163145D01*
X0010759Y0163070D01*
X0010731Y0162995D01*
X0010700Y0162922D01*
X0010666Y0162851D01*
X0010628Y0162782D01*
X0010586Y0162714D01*
X0010541Y0162649D01*
X0010493Y0162586D01*
X0010442Y0162526D01*
X0010388Y0162468D01*
X0010331Y0162413D01*
X0010271Y0162361D01*
X0010209Y0162313D01*
X0010144Y0162267D01*
X0010077Y0162224D01*
X0010008Y0162185D01*
X0009938Y0162150D01*
X0009865Y0162118D01*
X0009791Y0162090D01*
X0009716Y0162065D01*
X0009639Y0162045D01*
X0009562Y0162028D01*
X0009484Y0162015D01*
X0009405Y0162006D01*
X0009326Y0162001D01*
X0009247Y0162000D01*
X0009168Y0162003D01*
X0009089Y0162010D01*
X0009011Y0162021D01*
X0008933Y0162036D01*
X0008856Y0162055D01*
X0008780Y0162077D01*
X0008706Y0162103D01*
X0008632Y0162133D01*
X0008561Y0162167D01*
X0008491Y0162204D01*
X0008423Y0162245D01*
X0008357Y0162289D01*
X0008294Y0162337D01*
X0008233Y0162387D01*
X0008174Y0162441D01*
X0008119Y0162497D01*
X0008066Y0162556D01*
X0008016Y0162618D01*
X0007970Y0162682D01*
X0007927Y0162748D01*
X0007887Y0162816D01*
X0007850Y0162887D01*
X0007818Y0162959D01*
X0007788Y0163032D01*
X0007763Y0163107D01*
X0007741Y0163183D01*
X0007724Y0163260D01*
X0007710Y0163338D01*
X0007700Y0163417D01*
X0007694Y0163496D01*
X0007692Y0163575D01*
X0008794Y0140491D02*
X0028294Y0140491D01*
X0028294Y0091741D01*
X0026719Y0091741D02*
X0026721Y0091820D01*
X0026727Y0091899D01*
X0026737Y0091978D01*
X0026751Y0092056D01*
X0026768Y0092133D01*
X0026790Y0092209D01*
X0026815Y0092284D01*
X0026845Y0092357D01*
X0026877Y0092429D01*
X0026914Y0092500D01*
X0026954Y0092568D01*
X0026997Y0092634D01*
X0027043Y0092698D01*
X0027093Y0092760D01*
X0027146Y0092819D01*
X0027201Y0092875D01*
X0027260Y0092929D01*
X0027321Y0092979D01*
X0027384Y0093027D01*
X0027450Y0093071D01*
X0027518Y0093112D01*
X0027588Y0093149D01*
X0027659Y0093183D01*
X0027733Y0093213D01*
X0027807Y0093239D01*
X0027883Y0093261D01*
X0027960Y0093280D01*
X0028038Y0093295D01*
X0028116Y0093306D01*
X0028195Y0093313D01*
X0028274Y0093316D01*
X0028353Y0093315D01*
X0028432Y0093310D01*
X0028511Y0093301D01*
X0028589Y0093288D01*
X0028666Y0093271D01*
X0028743Y0093251D01*
X0028818Y0093226D01*
X0028892Y0093198D01*
X0028965Y0093166D01*
X0029035Y0093131D01*
X0029104Y0093092D01*
X0029171Y0093049D01*
X0029236Y0093003D01*
X0029298Y0092955D01*
X0029358Y0092903D01*
X0029415Y0092848D01*
X0029469Y0092790D01*
X0029520Y0092730D01*
X0029568Y0092667D01*
X0029613Y0092602D01*
X0029655Y0092534D01*
X0029693Y0092465D01*
X0029727Y0092394D01*
X0029758Y0092321D01*
X0029786Y0092246D01*
X0029809Y0092171D01*
X0029829Y0092094D01*
X0029845Y0092017D01*
X0029857Y0091938D01*
X0029865Y0091860D01*
X0029869Y0091781D01*
X0029869Y0091701D01*
X0029865Y0091622D01*
X0029857Y0091544D01*
X0029845Y0091465D01*
X0029829Y0091388D01*
X0029809Y0091311D01*
X0029786Y0091236D01*
X0029758Y0091161D01*
X0029727Y0091088D01*
X0029693Y0091017D01*
X0029655Y0090948D01*
X0029613Y0090880D01*
X0029568Y0090815D01*
X0029520Y0090752D01*
X0029469Y0090692D01*
X0029415Y0090634D01*
X0029358Y0090579D01*
X0029298Y0090527D01*
X0029236Y0090479D01*
X0029171Y0090433D01*
X0029104Y0090390D01*
X0029035Y0090351D01*
X0028965Y0090316D01*
X0028892Y0090284D01*
X0028818Y0090256D01*
X0028743Y0090231D01*
X0028666Y0090211D01*
X0028589Y0090194D01*
X0028511Y0090181D01*
X0028432Y0090172D01*
X0028353Y0090167D01*
X0028274Y0090166D01*
X0028195Y0090169D01*
X0028116Y0090176D01*
X0028038Y0090187D01*
X0027960Y0090202D01*
X0027883Y0090221D01*
X0027807Y0090243D01*
X0027733Y0090269D01*
X0027659Y0090299D01*
X0027588Y0090333D01*
X0027518Y0090370D01*
X0027450Y0090411D01*
X0027384Y0090455D01*
X0027321Y0090503D01*
X0027260Y0090553D01*
X0027201Y0090607D01*
X0027146Y0090663D01*
X0027093Y0090722D01*
X0027043Y0090784D01*
X0026997Y0090848D01*
X0026954Y0090914D01*
X0026914Y0090982D01*
X0026877Y0091053D01*
X0026845Y0091125D01*
X0026815Y0091198D01*
X0026790Y0091273D01*
X0026768Y0091349D01*
X0026751Y0091426D01*
X0026737Y0091504D01*
X0026727Y0091583D01*
X0026721Y0091662D01*
X0026719Y0091741D01*
X0028294Y0091741D02*
X0008794Y0091741D01*
X0008794Y0140491D01*
X0007503Y0140485D02*
X0007505Y0140564D01*
X0007511Y0140643D01*
X0007521Y0140722D01*
X0007535Y0140800D01*
X0007552Y0140877D01*
X0007574Y0140953D01*
X0007599Y0141028D01*
X0007629Y0141101D01*
X0007661Y0141173D01*
X0007698Y0141244D01*
X0007738Y0141312D01*
X0007781Y0141378D01*
X0007827Y0141442D01*
X0007877Y0141504D01*
X0007930Y0141563D01*
X0007985Y0141619D01*
X0008044Y0141673D01*
X0008105Y0141723D01*
X0008168Y0141771D01*
X0008234Y0141815D01*
X0008302Y0141856D01*
X0008372Y0141893D01*
X0008443Y0141927D01*
X0008517Y0141957D01*
X0008591Y0141983D01*
X0008667Y0142005D01*
X0008744Y0142024D01*
X0008822Y0142039D01*
X0008900Y0142050D01*
X0008979Y0142057D01*
X0009058Y0142060D01*
X0009137Y0142059D01*
X0009216Y0142054D01*
X0009295Y0142045D01*
X0009373Y0142032D01*
X0009450Y0142015D01*
X0009527Y0141995D01*
X0009602Y0141970D01*
X0009676Y0141942D01*
X0009749Y0141910D01*
X0009819Y0141875D01*
X0009888Y0141836D01*
X0009955Y0141793D01*
X0010020Y0141747D01*
X0010082Y0141699D01*
X0010142Y0141647D01*
X0010199Y0141592D01*
X0010253Y0141534D01*
X0010304Y0141474D01*
X0010352Y0141411D01*
X0010397Y0141346D01*
X0010439Y0141278D01*
X0010477Y0141209D01*
X0010511Y0141138D01*
X0010542Y0141065D01*
X0010570Y0140990D01*
X0010593Y0140915D01*
X0010613Y0140838D01*
X0010629Y0140761D01*
X0010641Y0140682D01*
X0010649Y0140604D01*
X0010653Y0140525D01*
X0010653Y0140445D01*
X0010649Y0140366D01*
X0010641Y0140288D01*
X0010629Y0140209D01*
X0010613Y0140132D01*
X0010593Y0140055D01*
X0010570Y0139980D01*
X0010542Y0139905D01*
X0010511Y0139832D01*
X0010477Y0139761D01*
X0010439Y0139692D01*
X0010397Y0139624D01*
X0010352Y0139559D01*
X0010304Y0139496D01*
X0010253Y0139436D01*
X0010199Y0139378D01*
X0010142Y0139323D01*
X0010082Y0139271D01*
X0010020Y0139223D01*
X0009955Y0139177D01*
X0009888Y0139134D01*
X0009819Y0139095D01*
X0009749Y0139060D01*
X0009676Y0139028D01*
X0009602Y0139000D01*
X0009527Y0138975D01*
X0009450Y0138955D01*
X0009373Y0138938D01*
X0009295Y0138925D01*
X0009216Y0138916D01*
X0009137Y0138911D01*
X0009058Y0138910D01*
X0008979Y0138913D01*
X0008900Y0138920D01*
X0008822Y0138931D01*
X0008744Y0138946D01*
X0008667Y0138965D01*
X0008591Y0138987D01*
X0008517Y0139013D01*
X0008443Y0139043D01*
X0008372Y0139077D01*
X0008302Y0139114D01*
X0008234Y0139155D01*
X0008168Y0139199D01*
X0008105Y0139247D01*
X0008044Y0139297D01*
X0007985Y0139351D01*
X0007930Y0139407D01*
X0007877Y0139466D01*
X0007827Y0139528D01*
X0007781Y0139592D01*
X0007738Y0139658D01*
X0007698Y0139726D01*
X0007661Y0139797D01*
X0007629Y0139869D01*
X0007599Y0139942D01*
X0007574Y0140017D01*
X0007552Y0140093D01*
X0007535Y0140170D01*
X0007521Y0140248D01*
X0007511Y0140327D01*
X0007505Y0140406D01*
X0007503Y0140485D01*
X0026719Y0140485D02*
X0026721Y0140564D01*
X0026727Y0140643D01*
X0026737Y0140722D01*
X0026751Y0140800D01*
X0026768Y0140877D01*
X0026790Y0140953D01*
X0026815Y0141028D01*
X0026845Y0141101D01*
X0026877Y0141173D01*
X0026914Y0141244D01*
X0026954Y0141312D01*
X0026997Y0141378D01*
X0027043Y0141442D01*
X0027093Y0141504D01*
X0027146Y0141563D01*
X0027201Y0141619D01*
X0027260Y0141673D01*
X0027321Y0141723D01*
X0027384Y0141771D01*
X0027450Y0141815D01*
X0027518Y0141856D01*
X0027588Y0141893D01*
X0027659Y0141927D01*
X0027733Y0141957D01*
X0027807Y0141983D01*
X0027883Y0142005D01*
X0027960Y0142024D01*
X0028038Y0142039D01*
X0028116Y0142050D01*
X0028195Y0142057D01*
X0028274Y0142060D01*
X0028353Y0142059D01*
X0028432Y0142054D01*
X0028511Y0142045D01*
X0028589Y0142032D01*
X0028666Y0142015D01*
X0028743Y0141995D01*
X0028818Y0141970D01*
X0028892Y0141942D01*
X0028965Y0141910D01*
X0029035Y0141875D01*
X0029104Y0141836D01*
X0029171Y0141793D01*
X0029236Y0141747D01*
X0029298Y0141699D01*
X0029358Y0141647D01*
X0029415Y0141592D01*
X0029469Y0141534D01*
X0029520Y0141474D01*
X0029568Y0141411D01*
X0029613Y0141346D01*
X0029655Y0141278D01*
X0029693Y0141209D01*
X0029727Y0141138D01*
X0029758Y0141065D01*
X0029786Y0140990D01*
X0029809Y0140915D01*
X0029829Y0140838D01*
X0029845Y0140761D01*
X0029857Y0140682D01*
X0029865Y0140604D01*
X0029869Y0140525D01*
X0029869Y0140445D01*
X0029865Y0140366D01*
X0029857Y0140288D01*
X0029845Y0140209D01*
X0029829Y0140132D01*
X0029809Y0140055D01*
X0029786Y0139980D01*
X0029758Y0139905D01*
X0029727Y0139832D01*
X0029693Y0139761D01*
X0029655Y0139692D01*
X0029613Y0139624D01*
X0029568Y0139559D01*
X0029520Y0139496D01*
X0029469Y0139436D01*
X0029415Y0139378D01*
X0029358Y0139323D01*
X0029298Y0139271D01*
X0029236Y0139223D01*
X0029171Y0139177D01*
X0029104Y0139134D01*
X0029035Y0139095D01*
X0028965Y0139060D01*
X0028892Y0139028D01*
X0028818Y0139000D01*
X0028743Y0138975D01*
X0028666Y0138955D01*
X0028589Y0138938D01*
X0028511Y0138925D01*
X0028432Y0138916D01*
X0028353Y0138911D01*
X0028274Y0138910D01*
X0028195Y0138913D01*
X0028116Y0138920D01*
X0028038Y0138931D01*
X0027960Y0138946D01*
X0027883Y0138965D01*
X0027807Y0138987D01*
X0027733Y0139013D01*
X0027659Y0139043D01*
X0027588Y0139077D01*
X0027518Y0139114D01*
X0027450Y0139155D01*
X0027384Y0139199D01*
X0027321Y0139247D01*
X0027260Y0139297D01*
X0027201Y0139351D01*
X0027146Y0139407D01*
X0027093Y0139466D01*
X0027043Y0139528D01*
X0026997Y0139592D01*
X0026954Y0139658D01*
X0026914Y0139726D01*
X0026877Y0139797D01*
X0026845Y0139869D01*
X0026815Y0139942D01*
X0026790Y0140017D01*
X0026768Y0140093D01*
X0026751Y0140170D01*
X0026737Y0140248D01*
X0026727Y0140327D01*
X0026721Y0140406D01*
X0026719Y0140485D01*
X0007503Y0091741D02*
X0007505Y0091820D01*
X0007511Y0091899D01*
X0007521Y0091978D01*
X0007535Y0092056D01*
X0007552Y0092133D01*
X0007574Y0092209D01*
X0007599Y0092284D01*
X0007629Y0092357D01*
X0007661Y0092429D01*
X0007698Y0092500D01*
X0007738Y0092568D01*
X0007781Y0092634D01*
X0007827Y0092698D01*
X0007877Y0092760D01*
X0007930Y0092819D01*
X0007985Y0092875D01*
X0008044Y0092929D01*
X0008105Y0092979D01*
X0008168Y0093027D01*
X0008234Y0093071D01*
X0008302Y0093112D01*
X0008372Y0093149D01*
X0008443Y0093183D01*
X0008517Y0093213D01*
X0008591Y0093239D01*
X0008667Y0093261D01*
X0008744Y0093280D01*
X0008822Y0093295D01*
X0008900Y0093306D01*
X0008979Y0093313D01*
X0009058Y0093316D01*
X0009137Y0093315D01*
X0009216Y0093310D01*
X0009295Y0093301D01*
X0009373Y0093288D01*
X0009450Y0093271D01*
X0009527Y0093251D01*
X0009602Y0093226D01*
X0009676Y0093198D01*
X0009749Y0093166D01*
X0009819Y0093131D01*
X0009888Y0093092D01*
X0009955Y0093049D01*
X0010020Y0093003D01*
X0010082Y0092955D01*
X0010142Y0092903D01*
X0010199Y0092848D01*
X0010253Y0092790D01*
X0010304Y0092730D01*
X0010352Y0092667D01*
X0010397Y0092602D01*
X0010439Y0092534D01*
X0010477Y0092465D01*
X0010511Y0092394D01*
X0010542Y0092321D01*
X0010570Y0092246D01*
X0010593Y0092171D01*
X0010613Y0092094D01*
X0010629Y0092017D01*
X0010641Y0091938D01*
X0010649Y0091860D01*
X0010653Y0091781D01*
X0010653Y0091701D01*
X0010649Y0091622D01*
X0010641Y0091544D01*
X0010629Y0091465D01*
X0010613Y0091388D01*
X0010593Y0091311D01*
X0010570Y0091236D01*
X0010542Y0091161D01*
X0010511Y0091088D01*
X0010477Y0091017D01*
X0010439Y0090948D01*
X0010397Y0090880D01*
X0010352Y0090815D01*
X0010304Y0090752D01*
X0010253Y0090692D01*
X0010199Y0090634D01*
X0010142Y0090579D01*
X0010082Y0090527D01*
X0010020Y0090479D01*
X0009955Y0090433D01*
X0009888Y0090390D01*
X0009819Y0090351D01*
X0009749Y0090316D01*
X0009676Y0090284D01*
X0009602Y0090256D01*
X0009527Y0090231D01*
X0009450Y0090211D01*
X0009373Y0090194D01*
X0009295Y0090181D01*
X0009216Y0090172D01*
X0009137Y0090167D01*
X0009058Y0090166D01*
X0008979Y0090169D01*
X0008900Y0090176D01*
X0008822Y0090187D01*
X0008744Y0090202D01*
X0008667Y0090221D01*
X0008591Y0090243D01*
X0008517Y0090269D01*
X0008443Y0090299D01*
X0008372Y0090333D01*
X0008302Y0090370D01*
X0008234Y0090411D01*
X0008168Y0090455D01*
X0008105Y0090503D01*
X0008044Y0090553D01*
X0007985Y0090607D01*
X0007930Y0090663D01*
X0007877Y0090722D01*
X0007827Y0090784D01*
X0007781Y0090848D01*
X0007738Y0090914D01*
X0007698Y0090982D01*
X0007661Y0091053D01*
X0007629Y0091125D01*
X0007599Y0091198D01*
X0007574Y0091273D01*
X0007552Y0091349D01*
X0007535Y0091426D01*
X0007521Y0091504D01*
X0007511Y0091583D01*
X0007505Y0091662D01*
X0007503Y0091741D01*
X0096605Y0014242D02*
X0096605Y0011880D01*
X0096617Y0011803D01*
X0096632Y0011727D01*
X0096651Y0011651D01*
X0096674Y0011577D01*
X0096700Y0011503D01*
X0096730Y0011432D01*
X0096764Y0011361D01*
X0096800Y0011293D01*
X0096841Y0011226D01*
X0096884Y0011161D01*
X0096930Y0011099D01*
X0096980Y0011038D01*
X0097032Y0010981D01*
X0097088Y0010926D01*
X0097145Y0010874D01*
X0097206Y0010824D01*
X0097268Y0010778D01*
X0097333Y0010735D01*
X0097400Y0010695D01*
X0097469Y0010658D01*
X0097539Y0010625D01*
X0097611Y0010595D01*
X0097685Y0010569D01*
X0097759Y0010547D01*
X0097835Y0010528D01*
X0097911Y0010513D01*
X0097988Y0010502D01*
X0098066Y0010494D01*
X0098144Y0010490D01*
X0098222Y0010491D01*
X0098299Y0010494D01*
X0098377Y0010502D01*
X0098455Y0010494D01*
X0098532Y0010491D01*
X0098610Y0010490D01*
X0098688Y0010494D01*
X0098766Y0010502D01*
X0098843Y0010513D01*
X0098919Y0010528D01*
X0098995Y0010547D01*
X0099069Y0010569D01*
X0099143Y0010595D01*
X0099215Y0010625D01*
X0099285Y0010658D01*
X0099354Y0010695D01*
X0099421Y0010735D01*
X0099486Y0010778D01*
X0099548Y0010824D01*
X0099609Y0010874D01*
X0099666Y0010926D01*
X0099722Y0010981D01*
X0099774Y0011038D01*
X0099824Y0011099D01*
X0099870Y0011161D01*
X0099913Y0011226D01*
X0099954Y0011293D01*
X0099990Y0011361D01*
X0100024Y0011432D01*
X0100054Y0011503D01*
X0100080Y0011577D01*
X0100103Y0011651D01*
X0100122Y0011727D01*
X0100137Y0011803D01*
X0100149Y0011880D01*
X0100148Y0011880D02*
X0100148Y0014242D01*
X0100149Y0014242D02*
X0100137Y0014319D01*
X0100122Y0014395D01*
X0100103Y0014471D01*
X0100080Y0014545D01*
X0100054Y0014619D01*
X0100024Y0014690D01*
X0099990Y0014761D01*
X0099954Y0014829D01*
X0099913Y0014896D01*
X0099870Y0014961D01*
X0099824Y0015023D01*
X0099774Y0015084D01*
X0099722Y0015141D01*
X0099666Y0015196D01*
X0099609Y0015248D01*
X0099548Y0015298D01*
X0099486Y0015344D01*
X0099421Y0015387D01*
X0099354Y0015427D01*
X0099285Y0015464D01*
X0099215Y0015497D01*
X0099143Y0015527D01*
X0099069Y0015553D01*
X0098995Y0015575D01*
X0098919Y0015594D01*
X0098843Y0015609D01*
X0098766Y0015620D01*
X0098688Y0015628D01*
X0098610Y0015632D01*
X0098532Y0015631D01*
X0098455Y0015628D01*
X0098377Y0015620D01*
X0098299Y0015628D01*
X0098222Y0015631D01*
X0098144Y0015632D01*
X0098066Y0015628D01*
X0097988Y0015620D01*
X0097911Y0015609D01*
X0097835Y0015594D01*
X0097759Y0015575D01*
X0097685Y0015553D01*
X0097611Y0015527D01*
X0097539Y0015497D01*
X0097469Y0015464D01*
X0097400Y0015427D01*
X0097333Y0015387D01*
X0097268Y0015344D01*
X0097206Y0015298D01*
X0097145Y0015248D01*
X0097088Y0015196D01*
X0097032Y0015141D01*
X0096980Y0015084D01*
X0096930Y0015023D01*
X0096884Y0014961D01*
X0096841Y0014896D01*
X0096800Y0014829D01*
X0096764Y0014761D01*
X0096730Y0014690D01*
X0096700Y0014619D01*
X0096674Y0014545D01*
X0096651Y0014471D01*
X0096632Y0014395D01*
X0096617Y0014319D01*
X0096605Y0014242D01*
X0103495Y0020541D02*
X0103497Y0020615D01*
X0103503Y0020689D01*
X0103513Y0020762D01*
X0103527Y0020835D01*
X0103544Y0020907D01*
X0103566Y0020977D01*
X0103591Y0021047D01*
X0103620Y0021115D01*
X0103653Y0021181D01*
X0103689Y0021246D01*
X0103729Y0021308D01*
X0103771Y0021369D01*
X0103817Y0021427D01*
X0103866Y0021482D01*
X0103918Y0021535D01*
X0103973Y0021585D01*
X0104030Y0021631D01*
X0104090Y0021675D01*
X0104152Y0021715D01*
X0104216Y0021752D01*
X0104282Y0021786D01*
X0104350Y0021816D01*
X0104419Y0021842D01*
X0104490Y0021865D01*
X0104561Y0021883D01*
X0104634Y0021898D01*
X0104707Y0021909D01*
X0104781Y0021916D01*
X0104855Y0021919D01*
X0104928Y0021918D01*
X0105002Y0021913D01*
X0105076Y0021904D01*
X0105149Y0021891D01*
X0105221Y0021874D01*
X0105292Y0021854D01*
X0105362Y0021829D01*
X0105430Y0021801D01*
X0105497Y0021770D01*
X0105562Y0021734D01*
X0105625Y0021696D01*
X0105686Y0021654D01*
X0105745Y0021608D01*
X0105801Y0021560D01*
X0105854Y0021509D01*
X0105904Y0021455D01*
X0105952Y0021398D01*
X0105996Y0021339D01*
X0106038Y0021277D01*
X0106076Y0021214D01*
X0106110Y0021148D01*
X0106141Y0021081D01*
X0106168Y0021012D01*
X0106191Y0020942D01*
X0106211Y0020871D01*
X0106227Y0020798D01*
X0106239Y0020725D01*
X0106247Y0020652D01*
X0106251Y0020578D01*
X0106251Y0020504D01*
X0106247Y0020430D01*
X0106239Y0020357D01*
X0106227Y0020284D01*
X0106211Y0020211D01*
X0106191Y0020140D01*
X0106168Y0020070D01*
X0106141Y0020001D01*
X0106110Y0019934D01*
X0106076Y0019868D01*
X0106038Y0019805D01*
X0105996Y0019743D01*
X0105952Y0019684D01*
X0105904Y0019627D01*
X0105854Y0019573D01*
X0105801Y0019522D01*
X0105745Y0019474D01*
X0105686Y0019428D01*
X0105625Y0019386D01*
X0105562Y0019348D01*
X0105497Y0019312D01*
X0105430Y0019281D01*
X0105362Y0019253D01*
X0105292Y0019228D01*
X0105221Y0019208D01*
X0105149Y0019191D01*
X0105076Y0019178D01*
X0105002Y0019169D01*
X0104928Y0019164D01*
X0104855Y0019163D01*
X0104781Y0019166D01*
X0104707Y0019173D01*
X0104634Y0019184D01*
X0104561Y0019199D01*
X0104490Y0019217D01*
X0104419Y0019240D01*
X0104350Y0019266D01*
X0104282Y0019296D01*
X0104216Y0019330D01*
X0104152Y0019367D01*
X0104090Y0019407D01*
X0104030Y0019451D01*
X0103973Y0019497D01*
X0103918Y0019547D01*
X0103866Y0019600D01*
X0103817Y0019655D01*
X0103771Y0019713D01*
X0103729Y0019774D01*
X0103689Y0019836D01*
X0103653Y0019901D01*
X0103620Y0019967D01*
X0103591Y0020035D01*
X0103566Y0020105D01*
X0103544Y0020175D01*
X0103527Y0020247D01*
X0103513Y0020320D01*
X0103503Y0020393D01*
X0103497Y0020467D01*
X0103495Y0020541D01*
X0118849Y0020541D02*
X0118851Y0020615D01*
X0118857Y0020689D01*
X0118867Y0020762D01*
X0118881Y0020835D01*
X0118898Y0020907D01*
X0118920Y0020977D01*
X0118945Y0021047D01*
X0118974Y0021115D01*
X0119007Y0021181D01*
X0119043Y0021246D01*
X0119083Y0021308D01*
X0119125Y0021369D01*
X0119171Y0021427D01*
X0119220Y0021482D01*
X0119272Y0021535D01*
X0119327Y0021585D01*
X0119384Y0021631D01*
X0119444Y0021675D01*
X0119506Y0021715D01*
X0119570Y0021752D01*
X0119636Y0021786D01*
X0119704Y0021816D01*
X0119773Y0021842D01*
X0119844Y0021865D01*
X0119915Y0021883D01*
X0119988Y0021898D01*
X0120061Y0021909D01*
X0120135Y0021916D01*
X0120209Y0021919D01*
X0120282Y0021918D01*
X0120356Y0021913D01*
X0120430Y0021904D01*
X0120503Y0021891D01*
X0120575Y0021874D01*
X0120646Y0021854D01*
X0120716Y0021829D01*
X0120784Y0021801D01*
X0120851Y0021770D01*
X0120916Y0021734D01*
X0120979Y0021696D01*
X0121040Y0021654D01*
X0121099Y0021608D01*
X0121155Y0021560D01*
X0121208Y0021509D01*
X0121258Y0021455D01*
X0121306Y0021398D01*
X0121350Y0021339D01*
X0121392Y0021277D01*
X0121430Y0021214D01*
X0121464Y0021148D01*
X0121495Y0021081D01*
X0121522Y0021012D01*
X0121545Y0020942D01*
X0121565Y0020871D01*
X0121581Y0020798D01*
X0121593Y0020725D01*
X0121601Y0020652D01*
X0121605Y0020578D01*
X0121605Y0020504D01*
X0121601Y0020430D01*
X0121593Y0020357D01*
X0121581Y0020284D01*
X0121565Y0020211D01*
X0121545Y0020140D01*
X0121522Y0020070D01*
X0121495Y0020001D01*
X0121464Y0019934D01*
X0121430Y0019868D01*
X0121392Y0019805D01*
X0121350Y0019743D01*
X0121306Y0019684D01*
X0121258Y0019627D01*
X0121208Y0019573D01*
X0121155Y0019522D01*
X0121099Y0019474D01*
X0121040Y0019428D01*
X0120979Y0019386D01*
X0120916Y0019348D01*
X0120851Y0019312D01*
X0120784Y0019281D01*
X0120716Y0019253D01*
X0120646Y0019228D01*
X0120575Y0019208D01*
X0120503Y0019191D01*
X0120430Y0019178D01*
X0120356Y0019169D01*
X0120282Y0019164D01*
X0120209Y0019163D01*
X0120135Y0019166D01*
X0120061Y0019173D01*
X0119988Y0019184D01*
X0119915Y0019199D01*
X0119844Y0019217D01*
X0119773Y0019240D01*
X0119704Y0019266D01*
X0119636Y0019296D01*
X0119570Y0019330D01*
X0119506Y0019367D01*
X0119444Y0019407D01*
X0119384Y0019451D01*
X0119327Y0019497D01*
X0119272Y0019547D01*
X0119220Y0019600D01*
X0119171Y0019655D01*
X0119125Y0019713D01*
X0119083Y0019774D01*
X0119043Y0019836D01*
X0119007Y0019901D01*
X0118974Y0019967D01*
X0118945Y0020035D01*
X0118920Y0020105D01*
X0118898Y0020175D01*
X0118881Y0020247D01*
X0118867Y0020320D01*
X0118857Y0020393D01*
X0118851Y0020467D01*
X0118849Y0020541D01*
X0124952Y0014242D02*
X0124952Y0012077D01*
X0124951Y0012076D02*
X0124948Y0012002D01*
X0124949Y0011927D01*
X0124953Y0011852D01*
X0124962Y0011777D01*
X0124974Y0011703D01*
X0124990Y0011630D01*
X0125009Y0011557D01*
X0125032Y0011486D01*
X0125059Y0011416D01*
X0125089Y0011347D01*
X0125123Y0011280D01*
X0125160Y0011215D01*
X0125200Y0011152D01*
X0125243Y0011091D01*
X0125290Y0011032D01*
X0125339Y0010976D01*
X0125391Y0010922D01*
X0125446Y0010871D01*
X0125504Y0010822D01*
X0125563Y0010777D01*
X0125625Y0010735D01*
X0125689Y0010696D01*
X0125755Y0010660D01*
X0125823Y0010627D01*
X0125892Y0010598D01*
X0125963Y0010573D01*
X0126034Y0010551D01*
X0126107Y0010533D01*
X0126181Y0010519D01*
X0126255Y0010508D01*
X0126330Y0010501D01*
X0126330Y0010502D02*
X0127117Y0010502D01*
X0127117Y0010501D02*
X0127192Y0010508D01*
X0127266Y0010519D01*
X0127340Y0010533D01*
X0127413Y0010551D01*
X0127484Y0010573D01*
X0127555Y0010598D01*
X0127624Y0010627D01*
X0127692Y0010660D01*
X0127758Y0010696D01*
X0127822Y0010735D01*
X0127884Y0010777D01*
X0127943Y0010822D01*
X0128001Y0010871D01*
X0128056Y0010922D01*
X0128108Y0010976D01*
X0128157Y0011032D01*
X0128204Y0011091D01*
X0128247Y0011152D01*
X0128287Y0011215D01*
X0128324Y0011280D01*
X0128358Y0011347D01*
X0128388Y0011416D01*
X0128415Y0011486D01*
X0128438Y0011557D01*
X0128457Y0011630D01*
X0128473Y0011703D01*
X0128485Y0011777D01*
X0128494Y0011852D01*
X0128498Y0011927D01*
X0128499Y0012002D01*
X0128496Y0012076D01*
X0128495Y0012077D02*
X0128495Y0014242D01*
X0128493Y0014314D01*
X0128487Y0014386D01*
X0128478Y0014458D01*
X0128465Y0014529D01*
X0128448Y0014599D01*
X0128428Y0014668D01*
X0128403Y0014736D01*
X0128376Y0014802D01*
X0128345Y0014868D01*
X0128310Y0014931D01*
X0128273Y0014993D01*
X0128232Y0015052D01*
X0128188Y0015109D01*
X0128141Y0015164D01*
X0128091Y0015216D01*
X0128039Y0015266D01*
X0127984Y0015313D01*
X0127927Y0015357D01*
X0127868Y0015398D01*
X0127806Y0015435D01*
X0127743Y0015470D01*
X0127677Y0015501D01*
X0127611Y0015528D01*
X0127543Y0015553D01*
X0127474Y0015573D01*
X0127404Y0015590D01*
X0127333Y0015603D01*
X0127261Y0015612D01*
X0127189Y0015618D01*
X0127117Y0015620D01*
X0126330Y0015620D01*
X0126258Y0015618D01*
X0126186Y0015612D01*
X0126114Y0015603D01*
X0126043Y0015590D01*
X0125973Y0015573D01*
X0125904Y0015553D01*
X0125836Y0015528D01*
X0125770Y0015501D01*
X0125704Y0015470D01*
X0125641Y0015435D01*
X0125579Y0015398D01*
X0125520Y0015357D01*
X0125463Y0015313D01*
X0125408Y0015266D01*
X0125356Y0015216D01*
X0125306Y0015164D01*
X0125259Y0015109D01*
X0125215Y0015052D01*
X0125174Y0014993D01*
X0125137Y0014931D01*
X0125102Y0014868D01*
X0125071Y0014802D01*
X0125044Y0014736D01*
X0125019Y0014668D01*
X0124999Y0014599D01*
X0124982Y0014529D01*
X0124969Y0014458D01*
X0124960Y0014386D01*
X0124954Y0014314D01*
X0124952Y0014242D01*
X0156300Y0024441D02*
X0156302Y0024553D01*
X0156308Y0024664D01*
X0156318Y0024776D01*
X0156332Y0024887D01*
X0156349Y0024997D01*
X0156371Y0025107D01*
X0156397Y0025216D01*
X0156426Y0025324D01*
X0156459Y0025430D01*
X0156496Y0025536D01*
X0156537Y0025640D01*
X0156582Y0025743D01*
X0156630Y0025844D01*
X0156681Y0025943D01*
X0156736Y0026040D01*
X0156795Y0026135D01*
X0156856Y0026229D01*
X0156921Y0026320D01*
X0156990Y0026408D01*
X0157061Y0026494D01*
X0157135Y0026578D01*
X0157213Y0026658D01*
X0157293Y0026736D01*
X0157376Y0026812D01*
X0157461Y0026884D01*
X0157549Y0026953D01*
X0157639Y0027019D01*
X0157732Y0027081D01*
X0157827Y0027141D01*
X0157924Y0027197D01*
X0158022Y0027249D01*
X0158123Y0027298D01*
X0158225Y0027343D01*
X0158329Y0027385D01*
X0158434Y0027423D01*
X0158541Y0027457D01*
X0158648Y0027487D01*
X0158757Y0027514D01*
X0158866Y0027536D01*
X0158977Y0027555D01*
X0159087Y0027570D01*
X0159199Y0027581D01*
X0159310Y0027588D01*
X0159422Y0027591D01*
X0159534Y0027590D01*
X0159646Y0027585D01*
X0159757Y0027576D01*
X0159868Y0027563D01*
X0159979Y0027546D01*
X0160089Y0027526D01*
X0160198Y0027501D01*
X0160306Y0027473D01*
X0160413Y0027440D01*
X0160519Y0027404D01*
X0160623Y0027364D01*
X0160726Y0027321D01*
X0160828Y0027274D01*
X0160927Y0027223D01*
X0161025Y0027169D01*
X0161121Y0027111D01*
X0161215Y0027050D01*
X0161306Y0026986D01*
X0161395Y0026919D01*
X0161482Y0026848D01*
X0161566Y0026774D01*
X0161648Y0026698D01*
X0161726Y0026618D01*
X0161802Y0026536D01*
X0161875Y0026451D01*
X0161945Y0026364D01*
X0162011Y0026274D01*
X0162075Y0026182D01*
X0162135Y0026088D01*
X0162192Y0025992D01*
X0162245Y0025893D01*
X0162295Y0025793D01*
X0162341Y0025692D01*
X0162384Y0025588D01*
X0162423Y0025483D01*
X0162458Y0025377D01*
X0162489Y0025270D01*
X0162517Y0025161D01*
X0162540Y0025052D01*
X0162560Y0024942D01*
X0162576Y0024831D01*
X0162588Y0024720D01*
X0162596Y0024609D01*
X0162600Y0024497D01*
X0162600Y0024385D01*
X0162596Y0024273D01*
X0162588Y0024162D01*
X0162576Y0024051D01*
X0162560Y0023940D01*
X0162540Y0023830D01*
X0162517Y0023721D01*
X0162489Y0023612D01*
X0162458Y0023505D01*
X0162423Y0023399D01*
X0162384Y0023294D01*
X0162341Y0023190D01*
X0162295Y0023089D01*
X0162245Y0022989D01*
X0162192Y0022890D01*
X0162135Y0022794D01*
X0162075Y0022700D01*
X0162011Y0022608D01*
X0161945Y0022518D01*
X0161875Y0022431D01*
X0161802Y0022346D01*
X0161726Y0022264D01*
X0161648Y0022184D01*
X0161566Y0022108D01*
X0161482Y0022034D01*
X0161395Y0021963D01*
X0161306Y0021896D01*
X0161215Y0021832D01*
X0161121Y0021771D01*
X0161025Y0021713D01*
X0160927Y0021659D01*
X0160828Y0021608D01*
X0160726Y0021561D01*
X0160623Y0021518D01*
X0160519Y0021478D01*
X0160413Y0021442D01*
X0160306Y0021409D01*
X0160198Y0021381D01*
X0160089Y0021356D01*
X0159979Y0021336D01*
X0159868Y0021319D01*
X0159757Y0021306D01*
X0159646Y0021297D01*
X0159534Y0021292D01*
X0159422Y0021291D01*
X0159310Y0021294D01*
X0159199Y0021301D01*
X0159087Y0021312D01*
X0158977Y0021327D01*
X0158866Y0021346D01*
X0158757Y0021368D01*
X0158648Y0021395D01*
X0158541Y0021425D01*
X0158434Y0021459D01*
X0158329Y0021497D01*
X0158225Y0021539D01*
X0158123Y0021584D01*
X0158022Y0021633D01*
X0157924Y0021685D01*
X0157827Y0021741D01*
X0157732Y0021801D01*
X0157639Y0021863D01*
X0157549Y0021929D01*
X0157461Y0021998D01*
X0157376Y0022070D01*
X0157293Y0022146D01*
X0157213Y0022224D01*
X0157135Y0022304D01*
X0157061Y0022388D01*
X0156990Y0022474D01*
X0156921Y0022562D01*
X0156856Y0022653D01*
X0156795Y0022747D01*
X0156736Y0022842D01*
X0156681Y0022939D01*
X0156630Y0023038D01*
X0156582Y0023139D01*
X0156537Y0023242D01*
X0156496Y0023346D01*
X0156459Y0023452D01*
X0156426Y0023558D01*
X0156397Y0023666D01*
X0156371Y0023775D01*
X0156349Y0023885D01*
X0156332Y0023995D01*
X0156318Y0024106D01*
X0156308Y0024218D01*
X0156302Y0024329D01*
X0156300Y0024441D01*
X0155907Y0042158D02*
X0155909Y0042276D01*
X0155915Y0042395D01*
X0155925Y0042513D01*
X0155939Y0042630D01*
X0155956Y0042747D01*
X0155978Y0042864D01*
X0156004Y0042979D01*
X0156033Y0043094D01*
X0156066Y0043208D01*
X0156103Y0043320D01*
X0156144Y0043431D01*
X0156188Y0043541D01*
X0156236Y0043649D01*
X0156288Y0043756D01*
X0156343Y0043861D01*
X0156402Y0043964D01*
X0156464Y0044064D01*
X0156529Y0044163D01*
X0156598Y0044260D01*
X0156669Y0044354D01*
X0156744Y0044445D01*
X0156822Y0044535D01*
X0156903Y0044621D01*
X0156987Y0044705D01*
X0157073Y0044786D01*
X0157163Y0044864D01*
X0157254Y0044939D01*
X0157348Y0045010D01*
X0157445Y0045079D01*
X0157544Y0045144D01*
X0157644Y0045206D01*
X0157747Y0045265D01*
X0157852Y0045320D01*
X0157959Y0045372D01*
X0158067Y0045420D01*
X0158177Y0045464D01*
X0158288Y0045505D01*
X0158400Y0045542D01*
X0158514Y0045575D01*
X0158629Y0045604D01*
X0158744Y0045630D01*
X0158861Y0045652D01*
X0158978Y0045669D01*
X0159095Y0045683D01*
X0159213Y0045693D01*
X0159332Y0045699D01*
X0159450Y0045701D01*
X0159568Y0045699D01*
X0159687Y0045693D01*
X0159805Y0045683D01*
X0159922Y0045669D01*
X0160039Y0045652D01*
X0160156Y0045630D01*
X0160271Y0045604D01*
X0160386Y0045575D01*
X0160500Y0045542D01*
X0160612Y0045505D01*
X0160723Y0045464D01*
X0160833Y0045420D01*
X0160941Y0045372D01*
X0161048Y0045320D01*
X0161153Y0045265D01*
X0161256Y0045206D01*
X0161356Y0045144D01*
X0161455Y0045079D01*
X0161552Y0045010D01*
X0161646Y0044939D01*
X0161737Y0044864D01*
X0161827Y0044786D01*
X0161913Y0044705D01*
X0161997Y0044621D01*
X0162078Y0044535D01*
X0162156Y0044445D01*
X0162231Y0044354D01*
X0162302Y0044260D01*
X0162371Y0044163D01*
X0162436Y0044064D01*
X0162498Y0043964D01*
X0162557Y0043861D01*
X0162612Y0043756D01*
X0162664Y0043649D01*
X0162712Y0043541D01*
X0162756Y0043431D01*
X0162797Y0043320D01*
X0162834Y0043208D01*
X0162867Y0043094D01*
X0162896Y0042979D01*
X0162922Y0042864D01*
X0162944Y0042747D01*
X0162961Y0042630D01*
X0162975Y0042513D01*
X0162985Y0042395D01*
X0162991Y0042276D01*
X0162993Y0042158D01*
X0162991Y0042040D01*
X0162985Y0041921D01*
X0162975Y0041803D01*
X0162961Y0041686D01*
X0162944Y0041569D01*
X0162922Y0041452D01*
X0162896Y0041337D01*
X0162867Y0041222D01*
X0162834Y0041108D01*
X0162797Y0040996D01*
X0162756Y0040885D01*
X0162712Y0040775D01*
X0162664Y0040667D01*
X0162612Y0040560D01*
X0162557Y0040455D01*
X0162498Y0040352D01*
X0162436Y0040252D01*
X0162371Y0040153D01*
X0162302Y0040056D01*
X0162231Y0039962D01*
X0162156Y0039871D01*
X0162078Y0039781D01*
X0161997Y0039695D01*
X0161913Y0039611D01*
X0161827Y0039530D01*
X0161737Y0039452D01*
X0161646Y0039377D01*
X0161552Y0039306D01*
X0161455Y0039237D01*
X0161356Y0039172D01*
X0161256Y0039110D01*
X0161153Y0039051D01*
X0161048Y0038996D01*
X0160941Y0038944D01*
X0160833Y0038896D01*
X0160723Y0038852D01*
X0160612Y0038811D01*
X0160500Y0038774D01*
X0160386Y0038741D01*
X0160271Y0038712D01*
X0160156Y0038686D01*
X0160039Y0038664D01*
X0159922Y0038647D01*
X0159805Y0038633D01*
X0159687Y0038623D01*
X0159568Y0038617D01*
X0159450Y0038615D01*
X0159332Y0038617D01*
X0159213Y0038623D01*
X0159095Y0038633D01*
X0158978Y0038647D01*
X0158861Y0038664D01*
X0158744Y0038686D01*
X0158629Y0038712D01*
X0158514Y0038741D01*
X0158400Y0038774D01*
X0158288Y0038811D01*
X0158177Y0038852D01*
X0158067Y0038896D01*
X0157959Y0038944D01*
X0157852Y0038996D01*
X0157747Y0039051D01*
X0157644Y0039110D01*
X0157544Y0039172D01*
X0157445Y0039237D01*
X0157348Y0039306D01*
X0157254Y0039377D01*
X0157163Y0039452D01*
X0157073Y0039530D01*
X0156987Y0039611D01*
X0156903Y0039695D01*
X0156822Y0039781D01*
X0156744Y0039871D01*
X0156669Y0039962D01*
X0156598Y0040056D01*
X0156529Y0040153D01*
X0156464Y0040252D01*
X0156402Y0040352D01*
X0156343Y0040455D01*
X0156288Y0040560D01*
X0156236Y0040667D01*
X0156188Y0040775D01*
X0156144Y0040885D01*
X0156103Y0040996D01*
X0156066Y0041108D01*
X0156033Y0041222D01*
X0156004Y0041337D01*
X0155978Y0041452D01*
X0155956Y0041569D01*
X0155939Y0041686D01*
X0155925Y0041803D01*
X0155915Y0041921D01*
X0155909Y0042040D01*
X0155907Y0042158D01*
X0026909Y0212319D02*
X0026911Y0212398D01*
X0026917Y0212477D01*
X0026927Y0212556D01*
X0026941Y0212634D01*
X0026958Y0212711D01*
X0026980Y0212787D01*
X0027005Y0212862D01*
X0027035Y0212935D01*
X0027067Y0213007D01*
X0027104Y0213078D01*
X0027144Y0213146D01*
X0027187Y0213212D01*
X0027233Y0213276D01*
X0027283Y0213338D01*
X0027336Y0213397D01*
X0027391Y0213453D01*
X0027450Y0213507D01*
X0027511Y0213557D01*
X0027574Y0213605D01*
X0027640Y0213649D01*
X0027708Y0213690D01*
X0027778Y0213727D01*
X0027849Y0213761D01*
X0027923Y0213791D01*
X0027997Y0213817D01*
X0028073Y0213839D01*
X0028150Y0213858D01*
X0028228Y0213873D01*
X0028306Y0213884D01*
X0028385Y0213891D01*
X0028464Y0213894D01*
X0028543Y0213893D01*
X0028622Y0213888D01*
X0028701Y0213879D01*
X0028779Y0213866D01*
X0028856Y0213849D01*
X0028933Y0213829D01*
X0029008Y0213804D01*
X0029082Y0213776D01*
X0029155Y0213744D01*
X0029225Y0213709D01*
X0029294Y0213670D01*
X0029361Y0213627D01*
X0029426Y0213581D01*
X0029488Y0213533D01*
X0029548Y0213481D01*
X0029605Y0213426D01*
X0029659Y0213368D01*
X0029710Y0213308D01*
X0029758Y0213245D01*
X0029803Y0213180D01*
X0029845Y0213112D01*
X0029883Y0213043D01*
X0029917Y0212972D01*
X0029948Y0212899D01*
X0029976Y0212824D01*
X0029999Y0212749D01*
X0030019Y0212672D01*
X0030035Y0212595D01*
X0030047Y0212516D01*
X0030055Y0212438D01*
X0030059Y0212359D01*
X0030059Y0212279D01*
X0030055Y0212200D01*
X0030047Y0212122D01*
X0030035Y0212043D01*
X0030019Y0211966D01*
X0029999Y0211889D01*
X0029976Y0211814D01*
X0029948Y0211739D01*
X0029917Y0211666D01*
X0029883Y0211595D01*
X0029845Y0211526D01*
X0029803Y0211458D01*
X0029758Y0211393D01*
X0029710Y0211330D01*
X0029659Y0211270D01*
X0029605Y0211212D01*
X0029548Y0211157D01*
X0029488Y0211105D01*
X0029426Y0211057D01*
X0029361Y0211011D01*
X0029294Y0210968D01*
X0029225Y0210929D01*
X0029155Y0210894D01*
X0029082Y0210862D01*
X0029008Y0210834D01*
X0028933Y0210809D01*
X0028856Y0210789D01*
X0028779Y0210772D01*
X0028701Y0210759D01*
X0028622Y0210750D01*
X0028543Y0210745D01*
X0028464Y0210744D01*
X0028385Y0210747D01*
X0028306Y0210754D01*
X0028228Y0210765D01*
X0028150Y0210780D01*
X0028073Y0210799D01*
X0027997Y0210821D01*
X0027923Y0210847D01*
X0027849Y0210877D01*
X0027778Y0210911D01*
X0027708Y0210948D01*
X0027640Y0210989D01*
X0027574Y0211033D01*
X0027511Y0211081D01*
X0027450Y0211131D01*
X0027391Y0211185D01*
X0027336Y0211241D01*
X0027283Y0211300D01*
X0027233Y0211362D01*
X0027187Y0211426D01*
X0027144Y0211492D01*
X0027104Y0211560D01*
X0027067Y0211631D01*
X0027035Y0211703D01*
X0027005Y0211776D01*
X0026980Y0211851D01*
X0026958Y0211927D01*
X0026941Y0212004D01*
X0026927Y0212082D01*
X0026917Y0212161D01*
X0026911Y0212240D01*
X0026909Y0212319D01*
X0007692Y0212319D02*
X0007694Y0212398D01*
X0007700Y0212477D01*
X0007710Y0212556D01*
X0007724Y0212634D01*
X0007741Y0212711D01*
X0007763Y0212787D01*
X0007788Y0212862D01*
X0007818Y0212935D01*
X0007850Y0213007D01*
X0007887Y0213078D01*
X0007927Y0213146D01*
X0007970Y0213212D01*
X0008016Y0213276D01*
X0008066Y0213338D01*
X0008119Y0213397D01*
X0008174Y0213453D01*
X0008233Y0213507D01*
X0008294Y0213557D01*
X0008357Y0213605D01*
X0008423Y0213649D01*
X0008491Y0213690D01*
X0008561Y0213727D01*
X0008632Y0213761D01*
X0008706Y0213791D01*
X0008780Y0213817D01*
X0008856Y0213839D01*
X0008933Y0213858D01*
X0009011Y0213873D01*
X0009089Y0213884D01*
X0009168Y0213891D01*
X0009247Y0213894D01*
X0009326Y0213893D01*
X0009405Y0213888D01*
X0009484Y0213879D01*
X0009562Y0213866D01*
X0009639Y0213849D01*
X0009716Y0213829D01*
X0009791Y0213804D01*
X0009865Y0213776D01*
X0009938Y0213744D01*
X0010008Y0213709D01*
X0010077Y0213670D01*
X0010144Y0213627D01*
X0010209Y0213581D01*
X0010271Y0213533D01*
X0010331Y0213481D01*
X0010388Y0213426D01*
X0010442Y0213368D01*
X0010493Y0213308D01*
X0010541Y0213245D01*
X0010586Y0213180D01*
X0010628Y0213112D01*
X0010666Y0213043D01*
X0010700Y0212972D01*
X0010731Y0212899D01*
X0010759Y0212824D01*
X0010782Y0212749D01*
X0010802Y0212672D01*
X0010818Y0212595D01*
X0010830Y0212516D01*
X0010838Y0212438D01*
X0010842Y0212359D01*
X0010842Y0212279D01*
X0010838Y0212200D01*
X0010830Y0212122D01*
X0010818Y0212043D01*
X0010802Y0211966D01*
X0010782Y0211889D01*
X0010759Y0211814D01*
X0010731Y0211739D01*
X0010700Y0211666D01*
X0010666Y0211595D01*
X0010628Y0211526D01*
X0010586Y0211458D01*
X0010541Y0211393D01*
X0010493Y0211330D01*
X0010442Y0211270D01*
X0010388Y0211212D01*
X0010331Y0211157D01*
X0010271Y0211105D01*
X0010209Y0211057D01*
X0010144Y0211011D01*
X0010077Y0210968D01*
X0010008Y0210929D01*
X0009938Y0210894D01*
X0009865Y0210862D01*
X0009791Y0210834D01*
X0009716Y0210809D01*
X0009639Y0210789D01*
X0009562Y0210772D01*
X0009484Y0210759D01*
X0009405Y0210750D01*
X0009326Y0210745D01*
X0009247Y0210744D01*
X0009168Y0210747D01*
X0009089Y0210754D01*
X0009011Y0210765D01*
X0008933Y0210780D01*
X0008856Y0210799D01*
X0008780Y0210821D01*
X0008706Y0210847D01*
X0008632Y0210877D01*
X0008561Y0210911D01*
X0008491Y0210948D01*
X0008423Y0210989D01*
X0008357Y0211033D01*
X0008294Y0211081D01*
X0008233Y0211131D01*
X0008174Y0211185D01*
X0008119Y0211241D01*
X0008066Y0211300D01*
X0008016Y0211362D01*
X0007970Y0211426D01*
X0007927Y0211492D01*
X0007887Y0211560D01*
X0007850Y0211631D01*
X0007818Y0211703D01*
X0007788Y0211776D01*
X0007763Y0211851D01*
X0007741Y0211927D01*
X0007724Y0212004D01*
X0007710Y0212082D01*
X0007700Y0212161D01*
X0007694Y0212240D01*
X0007692Y0212319D01*
M02*
