%
M48
M72
T01C0.0197
T02C0.0236
T03C0.0276
T04C0.0315
T05C0.0320
T06C0.0354
T07C0.0400
T08C0.0630
T09C0.0709
T10C0.0906
T11C0.1260
%
T01
X8838Y8292
X10350Y6934
X10195Y6054
X10213Y5229
X11650Y4104
X12435Y4694
X12915Y5174
X12373Y6294
X13463Y7729
X13938Y7754
X14543Y7727
X14898Y7352
X14275Y7229
X15155Y8214
X16355Y7334
X16775Y6917
X15900Y6104
X15916Y5610
X15299Y6254
X15088Y4354
X13588Y3417
X15411Y1130
X11275Y3104
X16355Y9174
X15475Y10054
X15027Y10032
X15475Y12854
X12400Y15229
X12400Y16104
X11315Y16934
X11155Y17574
X10755Y18534
X11875Y19894
X12525Y20229
X14595Y20934
X16838Y18542
X17152Y20924
X14115Y16534
X12755Y17574
X11025Y15797
X10283Y15420
X9525Y16229
X10338Y14292
X9315Y12534
X9715Y11974
X9715Y10854
X8150Y10604
X4588Y10479
X2025Y15229
X5588Y17417
X6755Y17479
X12275Y14374
T02
X16900Y21354
X14900Y4854
T03
X12023Y2054
X10487Y2054
T04
X9956Y2408
X12554Y2408
X2829Y9174
X908Y9174
X908Y14049
X2829Y14049
X2848Y16357
X927Y16357
X927Y21232
X2848Y21232
T05
X7669Y21466
X8669Y21466
X9669Y21466
T06
X8650Y18907
X8650Y17923
X8650Y17135
X8650Y16151
X8650Y6532
X8650Y5548
X8650Y4760
X8650Y3776
X9838Y1306
X12672Y1306
T07
X5275Y18484
X5275Y19484
X5275Y20484
X5275Y21484
T08
X15945Y2444
T09
X15945Y4216
T10
X7583Y2568
X7583Y7741
X7583Y14943
X7583Y20116
T11
X4775Y15229
X11900Y21729
M30
