G75*
%MOIN*%
%OFA0B0*%
%FSLAX25Y25*%
%IPPOS*%
%LPD*%
%AMOC8*
5,1,8,0,0,1.08239X$1,22.5*
%
%ADD10R,0.05118X0.05906*%
%ADD11R,0.05906X0.05118*%
%ADD12R,0.07480X0.13386*%
%ADD13R,0.05118X0.06299*%
%ADD14R,0.06299X0.05118*%
%ADD15R,0.03200X0.01200*%
%ADD16R,0.01200X0.03200*%
%ADD17R,0.10200X0.10200*%
%ADD18R,0.05512X0.03937*%
%ADD19R,0.06600X0.03200*%
%ADD20R,0.15000X0.07600*%
%ADD21R,0.00625X0.07750*%
%ADD22R,0.15125X0.00375*%
%ADD23R,0.22625X0.04125*%
%ADD24R,0.03750X0.52375*%
%ADD25R,0.18875X0.04125*%
%ADD26R,0.00375X0.04125*%
%ADD27R,0.15500X0.07875*%
%ADD28R,0.03150X0.03150*%
%ADD29R,0.08800X0.05900*%
%ADD30R,0.13386X0.07480*%
%ADD31R,0.05900X0.08800*%
%ADD32R,0.05118X0.04724*%
%ADD33R,0.05000X0.02200*%
%ADD34R,0.05512X0.07087*%
%ADD35R,0.03937X0.05512*%
D10*
X0087260Y0134541D03*
X0094740Y0134541D03*
X0110260Y0139441D03*
X0117740Y0139441D03*
X0118240Y0163341D03*
X0110760Y0163341D03*
X0132474Y0083102D03*
X0139954Y0083102D03*
X0156855Y0079188D03*
X0164336Y0079188D03*
X0164216Y0053320D03*
X0171697Y0053320D03*
X0148340Y0009240D03*
X0140860Y0009240D03*
D11*
X0112575Y0013651D03*
X0112575Y0021131D03*
X0118393Y0072905D03*
X0118393Y0080385D03*
X0125424Y0088018D03*
X0125424Y0095499D03*
X0103800Y0111551D03*
X0103800Y0119031D03*
X0151307Y0094879D03*
X0151307Y0087398D03*
X0149472Y0193571D03*
X0149472Y0201051D03*
D12*
X0161438Y0101547D03*
X0176792Y0101547D03*
X0096760Y0095635D03*
X0081406Y0095635D03*
D13*
X0088746Y0075635D03*
X0096227Y0075635D03*
X0103321Y0075841D03*
X0110802Y0075841D03*
X0118103Y0032265D03*
X0125583Y0032265D03*
X0172563Y0078916D03*
X0180043Y0078916D03*
X0161140Y0119891D03*
X0153660Y0119891D03*
X0153510Y0134341D03*
X0160990Y0134341D03*
X0161240Y0148591D03*
X0153760Y0148591D03*
D14*
X0139350Y0181651D03*
X0139350Y0189131D03*
X0130950Y0188931D03*
X0130950Y0181451D03*
X0131200Y0198576D03*
X0131200Y0206056D03*
X0101050Y0188381D03*
X0101050Y0180901D03*
X0149244Y0026198D03*
X0149244Y0018718D03*
X0171038Y0018739D03*
X0171038Y0026219D03*
D15*
X0146106Y0055205D03*
X0146106Y0057105D03*
X0146106Y0059105D03*
X0146106Y0061105D03*
X0146106Y0063105D03*
X0146106Y0065005D03*
X0130506Y0065005D03*
X0130506Y0063105D03*
X0130506Y0061105D03*
X0130506Y0059105D03*
X0130506Y0057105D03*
X0130506Y0055205D03*
X0119750Y0147141D03*
X0119750Y0149041D03*
X0119750Y0151041D03*
X0119750Y0153041D03*
X0119750Y0154941D03*
X0108750Y0154941D03*
X0108750Y0153041D03*
X0108750Y0151041D03*
X0108750Y0149041D03*
X0108750Y0147141D03*
D16*
X0093250Y0120591D03*
X0091350Y0120591D03*
X0089350Y0120591D03*
X0087350Y0120591D03*
X0085450Y0120591D03*
X0085450Y0109591D03*
X0087350Y0109591D03*
X0089350Y0109591D03*
X0091350Y0109591D03*
X0093250Y0109591D03*
X0133406Y0067905D03*
X0135306Y0067905D03*
X0137306Y0067905D03*
X0139306Y0067905D03*
X0141306Y0067905D03*
X0143206Y0067905D03*
X0143206Y0052305D03*
X0141306Y0052305D03*
X0139306Y0052305D03*
X0137306Y0052305D03*
X0135306Y0052305D03*
X0133406Y0052305D03*
D17*
X0138206Y0060105D03*
D18*
X0163207Y0181279D03*
X0163207Y0188759D03*
X0154546Y0185019D03*
D19*
X0032421Y0184010D03*
X0032421Y0191884D03*
X0032421Y0199758D03*
X0032421Y0176136D03*
X0032231Y0127924D03*
X0032231Y0120050D03*
X0032231Y0112176D03*
X0032231Y0104302D03*
D20*
X0035919Y0091866D03*
X0036109Y0163700D03*
D21*
X0028296Y0163575D03*
X0028107Y0091741D03*
D22*
X0035857Y0088054D03*
X0036046Y0159887D03*
D23*
X0016671Y0161762D03*
X0016482Y0089929D03*
D24*
X0007044Y0118179D03*
X0007234Y0190012D03*
D25*
X0018546Y0214137D03*
X0018357Y0142304D03*
D26*
X0027982Y0142304D03*
X0028171Y0214137D03*
D27*
X0035984Y0212262D03*
X0035794Y0140429D03*
D28*
X0159875Y0013299D03*
X0159875Y0007393D03*
X0166070Y0007393D03*
X0166070Y0013299D03*
X0174497Y0125241D03*
X0180403Y0125241D03*
X0180078Y0135166D03*
X0174172Y0135166D03*
X0174597Y0162191D03*
X0180503Y0162191D03*
D29*
X0089350Y0115091D03*
D30*
X0134325Y0143664D03*
X0134325Y0159019D03*
D31*
X0114250Y0151041D03*
D32*
X0118450Y0063641D03*
X0118450Y0055641D03*
X0118450Y0047641D03*
X0107800Y0047641D03*
X0107800Y0055641D03*
X0107800Y0063641D03*
X0096650Y0063641D03*
X0096650Y0055641D03*
X0096650Y0047641D03*
D33*
X0111500Y0181491D03*
X0111500Y0188891D03*
X0121700Y0188891D03*
X0121700Y0185191D03*
X0121700Y0181491D03*
D34*
X0113243Y0201841D03*
X0099857Y0201841D03*
D35*
X0153360Y0162461D03*
X0160840Y0162461D03*
X0157100Y0171122D03*
M02*
