G75*
%MOIN*%
%OFA0B0*%
%FSLAX25Y25*%
%IPPOS*%
%LPD*%
%AMOC8*
5,1,8,0,0,1.08239X$1,22.5*
%
%ADD10C,0.13398*%
%ADD11R,0.04737X0.22454*%
%ADD12R,0.07099X0.14186*%
%ADD13R,0.01969X0.05709*%
%ADD14R,0.04737X0.08674*%
%ADD15C,0.05950*%
%ADD16R,0.10643X0.10643*%
%ADD17C,0.03556*%
%ADD18R,0.08674X0.10249*%
%ADD19C,0.07099*%
%ADD20C,0.07887*%
%ADD21C,0.13855*%
%ADD22C,0.06343*%
%ADD23C,0.03950*%
%ADD24R,0.15750X0.08625*%
%ADD25R,0.23250X0.04500*%
%ADD26R,0.04125X0.52750*%
%ADD27R,0.19125X0.04500*%
%ADD28R,0.15875X0.08625*%
%ADD29R,0.05800X0.03300*%
%ADD30C,0.06800*%
%ADD31OC8,0.07800*%
%ADD32R,0.07800X0.07800*%
%ADD33C,0.04369*%
%ADD34C,0.04762*%
D10*
X0047750Y0152291D03*
X0119000Y0217291D03*
D11*
X0150764Y0207255D03*
X0158638Y0207255D03*
D12*
X0168087Y0200169D03*
X0141315Y0200169D03*
D13*
X0117668Y0023593D03*
X0115109Y0023593D03*
X0112550Y0023593D03*
X0109991Y0023593D03*
X0107432Y0023593D03*
D14*
X0109597Y0012667D03*
X0115503Y0012667D03*
D15*
X0125542Y0024085D02*
X0130692Y0024085D01*
X0099558Y0024085D02*
X0094408Y0024085D01*
D16*
X0098377Y0013061D03*
X0126723Y0013061D03*
D17*
X0120227Y0020541D03*
X0104873Y0020541D03*
D18*
X0137796Y0024441D03*
X0137796Y0048851D03*
X0181104Y0048851D03*
X0181104Y0024441D03*
D19*
X0159450Y0024441D03*
D20*
X0159450Y0042158D03*
D21*
X0075831Y0025675D03*
X0075831Y0077407D03*
X0075831Y0149425D03*
X0075831Y0201157D03*
D22*
X0086500Y0189071D03*
X0086500Y0179228D03*
X0086500Y0171354D03*
X0086500Y0161512D03*
X0086500Y0065321D03*
X0086500Y0055478D03*
X0086500Y0047604D03*
X0086500Y0037762D03*
D23*
X0028294Y0091741D03*
X0009078Y0091741D03*
X0009078Y0140485D03*
X0028294Y0140485D03*
X0028484Y0163575D03*
X0009267Y0163575D03*
X0009267Y0212319D03*
X0028484Y0212319D03*
D24*
X0036109Y0163637D03*
X0036109Y0163637D03*
X0035919Y0091804D03*
X0035919Y0091804D03*
D25*
X0016419Y0089741D03*
X0016609Y0161575D03*
D26*
X0007046Y0190200D03*
X0006857Y0118366D03*
D27*
X0018482Y0142491D03*
X0018671Y0214325D03*
D28*
X0036171Y0212262D03*
X0035982Y0140429D03*
D29*
X0038803Y0140655D03*
X0038993Y0163699D03*
X0038993Y0212488D03*
X0038803Y0091866D03*
D30*
X0049750Y0184841D02*
X0055750Y0184841D01*
X0055750Y0194841D02*
X0049750Y0194841D01*
X0049750Y0204841D02*
X0055750Y0204841D01*
X0055750Y0214841D02*
X0049750Y0214841D01*
D31*
X0086692Y0214657D03*
X0096692Y0214657D03*
D32*
X0076692Y0214657D03*
D33*
X0107550Y0185341D03*
X0111550Y0175741D03*
X0113150Y0169341D03*
X0110250Y0157973D03*
X0102826Y0154204D03*
X0095250Y0162291D03*
X0103375Y0142916D03*
X0093150Y0125341D03*
X0097150Y0119741D03*
X0097150Y0108541D03*
X0081500Y0106041D03*
X0088375Y0082916D03*
X0103500Y0069341D03*
X0101950Y0060541D03*
X0102125Y0052291D03*
X0116500Y0041041D03*
X0124350Y0046941D03*
X0129150Y0051741D03*
X0123725Y0062941D03*
X0134625Y0077291D03*
X0139375Y0077541D03*
X0145425Y0077266D03*
X0148975Y0073516D03*
X0142750Y0072291D03*
X0151550Y0082141D03*
X0163550Y0073341D03*
X0167750Y0069166D03*
X0159000Y0061041D03*
X0159160Y0056096D03*
X0152995Y0062545D03*
X0150875Y0043541D03*
X0135875Y0034166D03*
X0154108Y0011300D03*
X0112750Y0031041D03*
X0163550Y0091741D03*
X0154750Y0100541D03*
X0150269Y0100321D03*
X0154750Y0128541D03*
X0124000Y0152291D03*
X0124000Y0161041D03*
X0127550Y0175741D03*
X0141150Y0165341D03*
X0122750Y0143741D03*
X0118750Y0198941D03*
X0125250Y0202291D03*
X0145950Y0209341D03*
X0168375Y0185416D03*
X0171519Y0209242D03*
X0067550Y0174791D03*
X0055875Y0174166D03*
X0020250Y0152291D03*
X0045875Y0104791D03*
D34*
X0149000Y0048541D03*
X0169000Y0213541D03*
M02*
