G75*
%MOIN*%
%OFA0B0*%
%FSLAX25Y25*%
%IPPOS*%
%LPD*%
%AMOC8*
5,1,8,0,0,1.08239X$1,22.5*
%
%ADD10C,0.00600*%
%ADD11C,0.00200*%
%ADD12C,0.00300*%
%ADD13C,0.00400*%
%ADD14R,0.00984X0.00886*%
%ADD15R,0.00886X0.00984*%
%ADD16C,0.01000*%
%ADD17C,0.00800*%
%ADD18R,0.02400X0.06200*%
D10*
X0016362Y0095341D02*
X0020632Y0095341D01*
X0021700Y0096409D01*
X0021700Y0098544D01*
X0020632Y0099612D01*
X0020632Y0101787D02*
X0021700Y0102854D01*
X0021700Y0104990D01*
X0020632Y0106057D01*
X0015295Y0106057D01*
X0015295Y0108232D02*
X0015295Y0112503D01*
X0015295Y0110367D02*
X0021700Y0110367D01*
X0020632Y0101787D02*
X0015295Y0101787D01*
X0016362Y0099612D02*
X0015295Y0098544D01*
X0015295Y0096409D01*
X0016362Y0095341D01*
X0016362Y0121123D02*
X0015295Y0122191D01*
X0015295Y0124326D01*
X0016362Y0125394D01*
X0020632Y0125394D01*
X0021700Y0124326D01*
X0021700Y0122191D01*
X0020632Y0121123D01*
X0016362Y0121123D01*
X0015295Y0127569D02*
X0020632Y0127569D01*
X0021700Y0128636D01*
X0021700Y0130772D01*
X0020632Y0131839D01*
X0015295Y0131839D01*
X0015295Y0134014D02*
X0015295Y0138285D01*
X0015295Y0136149D02*
X0021700Y0136149D01*
X0021007Y0166341D02*
X0016737Y0166341D01*
X0015670Y0167409D01*
X0015670Y0169544D01*
X0016737Y0170612D01*
X0015670Y0172787D02*
X0021007Y0172787D01*
X0022075Y0173854D01*
X0022075Y0175990D01*
X0021007Y0177057D01*
X0015670Y0177057D01*
X0015670Y0179232D02*
X0015670Y0183503D01*
X0015670Y0181367D02*
X0022075Y0181367D01*
X0021007Y0170612D02*
X0022075Y0169544D01*
X0022075Y0167409D01*
X0021007Y0166341D01*
X0021007Y0192123D02*
X0016737Y0192123D01*
X0015670Y0193191D01*
X0015670Y0195326D01*
X0016737Y0196394D01*
X0021007Y0196394D01*
X0022075Y0195326D01*
X0022075Y0193191D01*
X0021007Y0192123D01*
X0021007Y0198569D02*
X0015670Y0198569D01*
X0015670Y0202839D02*
X0021007Y0202839D01*
X0022075Y0201772D01*
X0022075Y0199636D01*
X0021007Y0198569D01*
X0015670Y0205014D02*
X0015670Y0209285D01*
X0015670Y0207149D02*
X0022075Y0207149D01*
X0047750Y0207341D02*
X0047750Y0202341D01*
X0050250Y0199841D01*
X0055250Y0199841D01*
X0057750Y0202341D01*
X0057750Y0207341D01*
X0055250Y0209841D01*
X0050250Y0209841D01*
X0047750Y0207341D01*
X0050250Y0209841D02*
X0047750Y0212341D01*
X0047750Y0217341D01*
X0050250Y0219841D01*
X0055250Y0219841D01*
X0057750Y0217341D01*
X0057750Y0212341D01*
X0055250Y0209841D01*
X0055250Y0199841D02*
X0057750Y0197341D01*
X0057750Y0192341D01*
X0055250Y0189841D01*
X0057750Y0187341D01*
X0057750Y0182341D01*
X0055250Y0179841D01*
X0050250Y0179841D01*
X0047750Y0182341D01*
X0047750Y0187341D01*
X0050250Y0189841D01*
X0047750Y0192341D01*
X0047750Y0197341D01*
X0050250Y0199841D01*
X0050250Y0189841D02*
X0055250Y0189841D01*
X0108350Y0156941D02*
X0120150Y0156941D01*
X0120150Y0145141D02*
X0108350Y0145141D01*
X0095250Y0120991D02*
X0095250Y0109191D01*
X0083450Y0109191D02*
X0083450Y0120991D01*
X0130106Y0068305D02*
X0130106Y0066905D01*
X0130106Y0068305D02*
X0131506Y0068305D01*
X0125150Y0064242D02*
X0125150Y0063375D01*
X0124716Y0062941D01*
X0123849Y0063809D02*
X0123849Y0064242D01*
X0124283Y0064676D01*
X0124716Y0064676D01*
X0125150Y0064242D01*
X0123849Y0064242D02*
X0123415Y0064676D01*
X0122981Y0064676D01*
X0122548Y0064242D01*
X0122548Y0063375D01*
X0122981Y0062941D01*
X0122981Y0056676D02*
X0122548Y0056242D01*
X0122548Y0055375D01*
X0122981Y0054941D01*
X0122981Y0056676D02*
X0123415Y0056676D01*
X0125150Y0054941D01*
X0125150Y0056676D01*
X0130106Y0053305D02*
X0130106Y0051905D01*
X0131506Y0051905D01*
X0125150Y0048676D02*
X0125150Y0046941D01*
X0125150Y0047809D02*
X0122548Y0047809D01*
X0123415Y0046941D01*
X0114500Y0046941D02*
X0114500Y0048676D01*
X0114500Y0047809D02*
X0111898Y0047809D01*
X0112765Y0046941D01*
X0112331Y0054941D02*
X0111898Y0055375D01*
X0111898Y0056242D01*
X0112331Y0056676D01*
X0112765Y0056676D01*
X0114500Y0054941D01*
X0114500Y0056676D01*
X0114066Y0062941D02*
X0114500Y0063375D01*
X0114500Y0064242D01*
X0114066Y0064676D01*
X0113633Y0064676D01*
X0113199Y0064242D01*
X0113199Y0063809D01*
X0113199Y0064242D02*
X0112765Y0064676D01*
X0112331Y0064676D01*
X0111898Y0064242D01*
X0111898Y0063375D01*
X0112331Y0062941D01*
X0103350Y0063375D02*
X0102916Y0062941D01*
X0103350Y0063375D02*
X0103350Y0064242D01*
X0102916Y0064676D01*
X0102483Y0064676D01*
X0102049Y0064242D01*
X0102049Y0063809D01*
X0102049Y0064242D02*
X0101615Y0064676D01*
X0101181Y0064676D01*
X0100748Y0064242D01*
X0100748Y0063375D01*
X0101181Y0062941D01*
X0101181Y0056676D02*
X0100748Y0056242D01*
X0100748Y0055375D01*
X0101181Y0054941D01*
X0101181Y0056676D02*
X0101615Y0056676D01*
X0103350Y0054941D01*
X0103350Y0056676D01*
X0103350Y0048676D02*
X0103350Y0046941D01*
X0103350Y0047809D02*
X0100748Y0047809D01*
X0101615Y0046941D01*
X0139306Y0045505D02*
X0139306Y0049505D01*
X0145106Y0051905D02*
X0146506Y0051905D01*
X0146506Y0053305D01*
X0146506Y0066905D02*
X0146506Y0068305D01*
X0145106Y0068305D01*
X0141406Y0070705D02*
X0141406Y0074705D01*
X0118700Y0179191D02*
X0117800Y0179191D01*
X0115400Y0179191D01*
X0114500Y0179191D01*
X0115400Y0179191D02*
X0115402Y0179260D01*
X0115408Y0179328D01*
X0115418Y0179396D01*
X0115431Y0179463D01*
X0115449Y0179529D01*
X0115470Y0179594D01*
X0115495Y0179658D01*
X0115523Y0179720D01*
X0115555Y0179781D01*
X0115590Y0179840D01*
X0115629Y0179896D01*
X0115671Y0179951D01*
X0115716Y0180002D01*
X0115764Y0180052D01*
X0115814Y0180098D01*
X0115867Y0180141D01*
X0115923Y0180182D01*
X0115980Y0180219D01*
X0116040Y0180252D01*
X0116102Y0180283D01*
X0116165Y0180309D01*
X0116229Y0180332D01*
X0116295Y0180352D01*
X0116362Y0180367D01*
X0116429Y0180379D01*
X0116497Y0180387D01*
X0116566Y0180391D01*
X0116634Y0180391D01*
X0116703Y0180387D01*
X0116771Y0180379D01*
X0116838Y0180367D01*
X0116905Y0180352D01*
X0116971Y0180332D01*
X0117035Y0180309D01*
X0117098Y0180283D01*
X0117160Y0180252D01*
X0117220Y0180219D01*
X0117277Y0180182D01*
X0117333Y0180141D01*
X0117386Y0180098D01*
X0117436Y0180052D01*
X0117484Y0180002D01*
X0117529Y0179951D01*
X0117571Y0179896D01*
X0117610Y0179840D01*
X0117645Y0179781D01*
X0117677Y0179720D01*
X0117705Y0179658D01*
X0117730Y0179594D01*
X0117751Y0179529D01*
X0117769Y0179463D01*
X0117782Y0179396D01*
X0117792Y0179328D01*
X0117798Y0179260D01*
X0117800Y0179191D01*
X0113200Y0183891D02*
X0113200Y0186491D01*
X0114500Y0191191D02*
X0118700Y0191191D01*
D11*
X0111908Y0195041D02*
X0110440Y0195041D01*
X0111908Y0196509D01*
X0111908Y0196876D01*
X0111541Y0197243D01*
X0110807Y0197243D01*
X0110440Y0196876D01*
X0109698Y0196876D02*
X0109331Y0197243D01*
X0108230Y0197243D01*
X0108230Y0195041D01*
X0109331Y0195041D01*
X0109698Y0195408D01*
X0109698Y0196876D01*
X0095950Y0185629D02*
X0095950Y0184161D01*
X0095950Y0184895D02*
X0093748Y0184895D01*
X0094482Y0184161D01*
X0095950Y0183419D02*
X0095950Y0181951D01*
X0095950Y0182685D02*
X0093748Y0182685D01*
X0094482Y0181951D01*
X0094115Y0181209D02*
X0094849Y0181209D01*
X0095216Y0180842D01*
X0095216Y0179741D01*
X0095950Y0179741D02*
X0093748Y0179741D01*
X0093748Y0180842D01*
X0094115Y0181209D01*
X0095216Y0180475D02*
X0095950Y0181209D01*
X0110970Y0169876D02*
X0110970Y0168408D01*
X0111337Y0168041D01*
X0112071Y0168041D01*
X0112438Y0168408D01*
X0113180Y0168041D02*
X0114648Y0168041D01*
X0113914Y0168041D02*
X0113914Y0170243D01*
X0113180Y0169509D01*
X0112438Y0169876D02*
X0112071Y0170243D01*
X0111337Y0170243D01*
X0110970Y0169876D01*
X0115390Y0169876D02*
X0115757Y0170243D01*
X0116491Y0170243D01*
X0116858Y0169876D01*
X0115390Y0168408D01*
X0115757Y0168041D01*
X0116491Y0168041D01*
X0116858Y0168408D01*
X0116858Y0169876D01*
X0115390Y0169876D02*
X0115390Y0168408D01*
X0128780Y0175441D02*
X0128780Y0177643D01*
X0129881Y0177643D01*
X0130248Y0177276D01*
X0130248Y0176542D01*
X0129881Y0176175D01*
X0128780Y0176175D01*
X0129514Y0176175D02*
X0130248Y0175441D01*
X0130990Y0175808D02*
X0131357Y0175441D01*
X0132091Y0175441D01*
X0132458Y0175808D01*
X0132458Y0177276D01*
X0132091Y0177643D01*
X0131357Y0177643D01*
X0130990Y0177276D01*
X0130990Y0176909D01*
X0131357Y0176542D01*
X0132458Y0176542D01*
X0135570Y0176375D02*
X0136671Y0176375D01*
X0137038Y0176742D01*
X0137038Y0177476D01*
X0136671Y0177843D01*
X0135570Y0177843D01*
X0135570Y0175641D01*
X0136304Y0176375D02*
X0137038Y0175641D01*
X0137780Y0175641D02*
X0139248Y0175641D01*
X0138514Y0175641D02*
X0138514Y0177843D01*
X0137780Y0177109D01*
X0139990Y0177476D02*
X0140357Y0177843D01*
X0141091Y0177843D01*
X0141458Y0177476D01*
X0139990Y0176008D01*
X0140357Y0175641D01*
X0141091Y0175641D01*
X0141458Y0176008D01*
X0141458Y0177476D01*
X0139990Y0177476D02*
X0139990Y0176008D01*
X0153787Y0194911D02*
X0155255Y0194911D01*
X0155622Y0195278D01*
X0155622Y0196012D01*
X0155255Y0196379D01*
X0155255Y0197121D02*
X0154888Y0197121D01*
X0154521Y0197488D01*
X0154521Y0198222D01*
X0154888Y0198589D01*
X0155255Y0198589D01*
X0155622Y0198222D01*
X0155622Y0197488D01*
X0155255Y0197121D01*
X0154521Y0197488D02*
X0154154Y0197121D01*
X0153787Y0197121D01*
X0153420Y0197488D01*
X0153420Y0198222D01*
X0153787Y0198589D01*
X0154154Y0198589D01*
X0154521Y0198222D01*
X0153787Y0196379D02*
X0153420Y0196012D01*
X0153420Y0195278D01*
X0153787Y0194911D01*
X0166828Y0185600D02*
X0167195Y0185967D01*
X0167929Y0185967D01*
X0168296Y0185600D01*
X0168296Y0184132D01*
X0167929Y0183765D01*
X0167195Y0183765D01*
X0166828Y0184132D01*
X0166828Y0185600D01*
X0167562Y0184499D02*
X0168296Y0183765D01*
X0169038Y0183765D02*
X0170506Y0183765D01*
X0169772Y0183765D02*
X0169772Y0185967D01*
X0169038Y0185233D01*
X0164511Y0171093D02*
X0163777Y0171093D01*
X0163410Y0170726D01*
X0162668Y0170726D02*
X0162668Y0169258D01*
X0162301Y0168891D01*
X0161567Y0168891D01*
X0161200Y0169258D01*
X0161200Y0170726D01*
X0161567Y0171093D01*
X0162301Y0171093D01*
X0162668Y0170726D01*
X0161934Y0169625D02*
X0162668Y0168891D01*
X0163410Y0168891D02*
X0164878Y0170359D01*
X0164878Y0170726D01*
X0164511Y0171093D01*
X0164878Y0168891D02*
X0163410Y0168891D01*
X0144725Y0153252D02*
X0144725Y0152518D01*
X0144358Y0152151D01*
X0144725Y0151409D02*
X0144725Y0149941D01*
X0142523Y0149941D01*
X0142890Y0152151D02*
X0142523Y0152518D01*
X0142523Y0153252D01*
X0142890Y0153619D01*
X0143257Y0153619D01*
X0143624Y0153252D01*
X0143991Y0153619D01*
X0144358Y0153619D01*
X0144725Y0153252D01*
X0143624Y0153252D02*
X0143624Y0152885D01*
X0153970Y0143993D02*
X0153970Y0141791D01*
X0153970Y0142525D02*
X0155071Y0142525D01*
X0155438Y0142892D01*
X0155438Y0143626D01*
X0155071Y0143993D01*
X0153970Y0143993D01*
X0154704Y0142525D02*
X0155438Y0141791D01*
X0156180Y0141791D02*
X0157648Y0141791D01*
X0156914Y0141791D02*
X0156914Y0143993D01*
X0156180Y0143259D01*
X0158390Y0143626D02*
X0158757Y0143993D01*
X0159491Y0143993D01*
X0159858Y0143626D01*
X0159858Y0143259D01*
X0158390Y0141791D01*
X0159858Y0141791D01*
X0158241Y0129743D02*
X0158608Y0129376D01*
X0158608Y0129009D01*
X0158241Y0128642D01*
X0157507Y0128642D01*
X0157140Y0129009D01*
X0157140Y0129376D01*
X0157507Y0129743D01*
X0158241Y0129743D01*
X0158241Y0128642D02*
X0158608Y0128275D01*
X0158608Y0127908D01*
X0158241Y0127541D01*
X0157507Y0127541D01*
X0157140Y0127908D01*
X0157140Y0128275D01*
X0157507Y0128642D01*
X0156398Y0128642D02*
X0156031Y0128275D01*
X0154930Y0128275D01*
X0154930Y0127541D02*
X0154930Y0129743D01*
X0156031Y0129743D01*
X0156398Y0129376D01*
X0156398Y0128642D01*
X0155664Y0128275D02*
X0156398Y0127541D01*
X0156181Y0115293D02*
X0156548Y0114926D01*
X0156548Y0114192D01*
X0156181Y0113825D01*
X0155080Y0113825D01*
X0155080Y0113091D02*
X0155080Y0115293D01*
X0156181Y0115293D01*
X0157290Y0115293D02*
X0158758Y0115293D01*
X0158758Y0114926D01*
X0157290Y0113458D01*
X0157290Y0113091D01*
X0156548Y0113091D02*
X0155814Y0113825D01*
X0167965Y0111349D02*
X0167965Y0109147D01*
X0169433Y0109147D01*
X0170175Y0109147D02*
X0171642Y0109147D01*
X0170909Y0109147D02*
X0170909Y0111349D01*
X0170175Y0110615D01*
X0184448Y0122641D02*
X0184448Y0123742D01*
X0184815Y0124109D01*
X0185549Y0124109D01*
X0185916Y0123742D01*
X0185916Y0122641D01*
X0186650Y0122641D02*
X0184448Y0122641D01*
X0185916Y0123375D02*
X0186650Y0124109D01*
X0186650Y0124851D02*
X0184448Y0124851D01*
X0184448Y0125952D01*
X0184815Y0126319D01*
X0185549Y0126319D01*
X0185916Y0125952D01*
X0185916Y0124851D01*
X0186650Y0127061D02*
X0186650Y0127795D01*
X0186650Y0127428D02*
X0184448Y0127428D01*
X0184448Y0127061D02*
X0184448Y0127795D01*
X0184815Y0132141D02*
X0185182Y0132141D01*
X0185549Y0132508D01*
X0185549Y0133242D01*
X0185916Y0133609D01*
X0186283Y0133609D01*
X0186650Y0133242D01*
X0186650Y0132508D01*
X0186283Y0132141D01*
X0184815Y0132141D02*
X0184448Y0132508D01*
X0184448Y0133242D01*
X0184815Y0133609D01*
X0184448Y0134351D02*
X0184448Y0135452D01*
X0184815Y0135819D01*
X0186283Y0135819D01*
X0186650Y0135452D01*
X0186650Y0134351D01*
X0184448Y0134351D01*
X0184448Y0136561D02*
X0184448Y0137662D01*
X0184815Y0138029D01*
X0185549Y0138029D01*
X0185916Y0137662D01*
X0185916Y0136561D01*
X0186650Y0136561D02*
X0184448Y0136561D01*
X0185916Y0137295D02*
X0186650Y0138029D01*
X0186150Y0156141D02*
X0183948Y0156141D01*
X0183948Y0157242D01*
X0184315Y0157609D01*
X0184682Y0157609D01*
X0185049Y0157242D01*
X0185049Y0156141D01*
X0186150Y0156141D02*
X0186150Y0157242D01*
X0185783Y0157609D01*
X0185416Y0157609D01*
X0185049Y0157242D01*
X0185783Y0158351D02*
X0185416Y0158718D01*
X0185416Y0159819D01*
X0185049Y0159819D02*
X0186150Y0159819D01*
X0186150Y0158718D01*
X0185783Y0158351D01*
X0184682Y0158718D02*
X0184682Y0159452D01*
X0185049Y0159819D01*
X0184682Y0160561D02*
X0184682Y0161295D01*
X0184315Y0160928D02*
X0185783Y0160928D01*
X0186150Y0161295D01*
X0185783Y0162401D02*
X0186150Y0162768D01*
X0185783Y0162401D02*
X0184315Y0162401D01*
X0184682Y0162034D02*
X0184682Y0162768D01*
X0183948Y0165717D02*
X0186150Y0165717D01*
X0186150Y0167185D01*
X0185783Y0167927D02*
X0186150Y0168294D01*
X0186150Y0169028D01*
X0185783Y0169395D01*
X0185049Y0169395D01*
X0184682Y0169028D01*
X0184682Y0168294D01*
X0185049Y0167927D01*
X0185783Y0167927D01*
X0185783Y0170137D02*
X0184682Y0170137D01*
X0185783Y0170137D02*
X0186150Y0170504D01*
X0185783Y0170871D01*
X0186150Y0171238D01*
X0185783Y0171605D01*
X0184682Y0171605D01*
X0137250Y0198287D02*
X0135048Y0198287D01*
X0135048Y0199388D01*
X0135415Y0199755D01*
X0136149Y0199755D01*
X0136516Y0199388D01*
X0136516Y0198287D01*
X0136516Y0199021D02*
X0137250Y0199755D01*
X0137250Y0200497D02*
X0137250Y0201964D01*
X0137250Y0201231D02*
X0135048Y0201231D01*
X0135782Y0200497D01*
X0136149Y0202706D02*
X0136149Y0203807D01*
X0136516Y0204174D01*
X0136883Y0204174D01*
X0137250Y0203807D01*
X0137250Y0203073D01*
X0136883Y0202706D01*
X0136149Y0202706D01*
X0135415Y0203440D01*
X0135048Y0204174D01*
X0093254Y0141343D02*
X0093254Y0139141D01*
X0092520Y0139141D02*
X0093988Y0139141D01*
X0092520Y0140609D02*
X0093254Y0141343D01*
X0091044Y0141343D02*
X0091044Y0139141D01*
X0090310Y0139141D02*
X0091778Y0139141D01*
X0090310Y0140609D02*
X0091044Y0141343D01*
X0089568Y0140976D02*
X0089201Y0141343D01*
X0088467Y0141343D01*
X0088100Y0140976D01*
X0088100Y0139508D01*
X0088467Y0139141D01*
X0089201Y0139141D01*
X0089568Y0139508D01*
X0108765Y0117149D02*
X0108398Y0116782D01*
X0108398Y0116048D01*
X0108765Y0115681D01*
X0108765Y0117149D02*
X0109132Y0117149D01*
X0110600Y0115681D01*
X0110600Y0117149D01*
X0110600Y0114939D02*
X0110600Y0113472D01*
X0110600Y0114206D02*
X0108398Y0114206D01*
X0109132Y0113472D01*
X0108765Y0112730D02*
X0108398Y0112363D01*
X0108398Y0111629D01*
X0108765Y0111262D01*
X0110233Y0111262D01*
X0110600Y0111629D01*
X0110600Y0112363D01*
X0110233Y0112730D01*
X0112967Y0132541D02*
X0113701Y0132541D01*
X0114068Y0132908D01*
X0114810Y0132908D02*
X0114810Y0132541D01*
X0114810Y0132908D02*
X0116278Y0134376D01*
X0116278Y0134743D01*
X0114810Y0134743D01*
X0114068Y0134376D02*
X0113701Y0134743D01*
X0112967Y0134743D01*
X0112600Y0134376D01*
X0112600Y0132908D01*
X0112967Y0132541D01*
X0129924Y0092565D02*
X0131025Y0091464D01*
X0131025Y0092932D01*
X0132126Y0092565D02*
X0129924Y0092565D01*
X0130291Y0090722D02*
X0129924Y0090355D01*
X0129924Y0089621D01*
X0130291Y0089254D01*
X0131759Y0089254D01*
X0132126Y0089621D01*
X0132126Y0090355D01*
X0131759Y0090722D01*
X0132261Y0079254D02*
X0131894Y0078887D01*
X0131894Y0077419D01*
X0132261Y0077052D01*
X0132995Y0077052D01*
X0133362Y0077419D01*
X0134104Y0077052D02*
X0135572Y0077052D01*
X0134838Y0077052D02*
X0134838Y0079254D01*
X0134104Y0078520D01*
X0133362Y0078887D02*
X0132995Y0079254D01*
X0132261Y0079254D01*
X0124407Y0077078D02*
X0124040Y0077078D01*
X0122572Y0078546D01*
X0122205Y0078546D01*
X0122205Y0077078D01*
X0122205Y0075602D02*
X0124407Y0075602D01*
X0124407Y0074868D02*
X0124407Y0076336D01*
X0122939Y0074868D02*
X0122205Y0075602D01*
X0122572Y0074126D02*
X0122205Y0073759D01*
X0122205Y0073025D01*
X0122572Y0072658D01*
X0124040Y0072658D01*
X0124407Y0073025D01*
X0124407Y0073759D01*
X0124040Y0074126D01*
X0107670Y0071126D02*
X0107303Y0071493D01*
X0106569Y0071493D01*
X0106202Y0071126D01*
X0105460Y0071126D02*
X0105460Y0070392D01*
X0105093Y0070025D01*
X0103992Y0070025D01*
X0104726Y0070025D02*
X0105460Y0069291D01*
X0106202Y0069291D02*
X0107670Y0070759D01*
X0107670Y0071126D01*
X0107670Y0069291D02*
X0106202Y0069291D01*
X0105460Y0071126D02*
X0105093Y0071493D01*
X0103992Y0071493D01*
X0103992Y0069291D01*
X0093844Y0069085D02*
X0092376Y0069085D01*
X0093110Y0069085D02*
X0093110Y0071287D01*
X0092376Y0070553D01*
X0091634Y0070920D02*
X0091634Y0070186D01*
X0091268Y0069819D01*
X0090167Y0069819D01*
X0090901Y0069819D02*
X0091634Y0069085D01*
X0090167Y0069085D02*
X0090167Y0071287D01*
X0091268Y0071287D01*
X0091634Y0070920D01*
X0091610Y0085735D02*
X0090143Y0085735D01*
X0091610Y0087202D01*
X0091610Y0087569D01*
X0091244Y0087936D01*
X0090510Y0087936D01*
X0090143Y0087569D01*
X0089401Y0085735D02*
X0087933Y0085735D01*
X0087933Y0087936D01*
X0120023Y0028417D02*
X0121124Y0028417D01*
X0121491Y0028050D01*
X0121491Y0027316D01*
X0121124Y0026949D01*
X0120023Y0026949D01*
X0120023Y0026215D02*
X0120023Y0028417D01*
X0120757Y0026949D02*
X0121491Y0026215D01*
X0122233Y0026582D02*
X0122233Y0027316D01*
X0123334Y0027316D01*
X0123701Y0026949D01*
X0123701Y0026582D01*
X0123334Y0026215D01*
X0122600Y0026215D01*
X0122233Y0026582D01*
X0122233Y0027316D02*
X0122967Y0028050D01*
X0123701Y0028417D01*
X0113091Y0009868D02*
X0113458Y0009501D01*
X0113458Y0009134D01*
X0113091Y0008767D01*
X0113458Y0008400D01*
X0113458Y0008033D01*
X0113091Y0007666D01*
X0112357Y0007666D01*
X0111990Y0008033D01*
X0111248Y0008033D02*
X0110881Y0007666D01*
X0110147Y0007666D01*
X0109780Y0008033D01*
X0109780Y0009501D01*
X0110147Y0009868D01*
X0110881Y0009868D01*
X0111248Y0009501D01*
X0111990Y0009501D02*
X0112357Y0009868D01*
X0113091Y0009868D01*
X0113091Y0008767D02*
X0112724Y0008767D01*
X0141531Y0013557D02*
X0141898Y0013190D01*
X0142631Y0013190D01*
X0142998Y0013557D01*
X0143740Y0013557D02*
X0144107Y0013190D01*
X0144841Y0013190D01*
X0145208Y0013557D01*
X0145208Y0014291D01*
X0144841Y0014658D01*
X0144474Y0014658D01*
X0143740Y0014291D01*
X0143740Y0015392D01*
X0145208Y0015392D01*
X0142998Y0015025D02*
X0142631Y0015392D01*
X0141898Y0015392D01*
X0141531Y0015025D01*
X0141531Y0013557D01*
X0153093Y0020638D02*
X0153093Y0021739D01*
X0153460Y0022106D01*
X0154194Y0022106D01*
X0154560Y0021739D01*
X0154560Y0020638D01*
X0154560Y0021372D02*
X0155294Y0022106D01*
X0154194Y0022848D02*
X0154194Y0024316D01*
X0155294Y0023949D02*
X0153093Y0023949D01*
X0154194Y0022848D01*
X0155294Y0020638D02*
X0153093Y0020638D01*
X0174886Y0020660D02*
X0174886Y0021760D01*
X0175253Y0022127D01*
X0175987Y0022127D01*
X0176354Y0021760D01*
X0176354Y0020660D01*
X0176354Y0021394D02*
X0177088Y0022127D01*
X0176721Y0022869D02*
X0177088Y0023236D01*
X0177088Y0023970D01*
X0176721Y0024337D01*
X0175987Y0024337D01*
X0175620Y0023970D01*
X0175620Y0023603D01*
X0175987Y0022869D01*
X0174886Y0022869D01*
X0174886Y0024337D01*
X0174886Y0020660D02*
X0177088Y0020660D01*
X0168867Y0057170D02*
X0169234Y0057537D01*
X0169234Y0059004D01*
X0168867Y0059371D01*
X0168134Y0059371D01*
X0167767Y0059004D01*
X0167767Y0058637D01*
X0168134Y0058271D01*
X0169234Y0058271D01*
X0168867Y0057170D02*
X0168134Y0057170D01*
X0167767Y0057537D01*
X0167025Y0057537D02*
X0166658Y0057170D01*
X0165924Y0057170D01*
X0165557Y0057537D01*
X0165557Y0059004D01*
X0165924Y0059371D01*
X0166658Y0059371D01*
X0167025Y0059004D01*
X0162087Y0073138D02*
X0162454Y0073505D01*
X0162454Y0073872D01*
X0162087Y0074239D01*
X0160986Y0074239D01*
X0160986Y0073505D01*
X0161353Y0073138D01*
X0162087Y0073138D01*
X0160986Y0074239D02*
X0161720Y0074973D01*
X0162454Y0075340D01*
X0160244Y0074973D02*
X0159877Y0075340D01*
X0159143Y0075340D01*
X0158776Y0074973D01*
X0158776Y0073505D01*
X0159143Y0073138D01*
X0159877Y0073138D01*
X0160244Y0073505D01*
X0157376Y0089124D02*
X0155908Y0089124D01*
X0155541Y0089491D01*
X0155541Y0090225D01*
X0155908Y0090592D01*
X0155908Y0091334D02*
X0155541Y0091701D01*
X0155541Y0092435D01*
X0155908Y0092802D01*
X0156275Y0092802D01*
X0157743Y0091334D01*
X0157743Y0092802D01*
X0157376Y0090592D02*
X0157743Y0090225D01*
X0157743Y0089491D01*
X0157376Y0089124D01*
X0174047Y0084968D02*
X0174047Y0082766D01*
X0174047Y0083500D02*
X0175148Y0083500D01*
X0175515Y0083867D01*
X0175515Y0084601D01*
X0175148Y0084968D01*
X0174047Y0084968D01*
X0174781Y0083500D02*
X0175515Y0082766D01*
X0176257Y0083133D02*
X0176624Y0082766D01*
X0177358Y0082766D01*
X0177725Y0083133D01*
X0177725Y0083500D01*
X0177358Y0083867D01*
X0176991Y0083867D01*
X0177358Y0083867D02*
X0177725Y0084234D01*
X0177725Y0084601D01*
X0177358Y0084968D01*
X0176624Y0084968D01*
X0176257Y0084601D01*
D12*
X0127492Y0069075D02*
X0124356Y0065939D01*
X0124356Y0067507D02*
X0127492Y0067507D01*
X0127492Y0065939D02*
X0124356Y0069075D01*
X0125924Y0069075D02*
X0125924Y0065939D01*
X0124850Y0175721D02*
X0121714Y0178857D01*
X0121714Y0177289D02*
X0124850Y0177289D01*
X0124850Y0178857D02*
X0121714Y0175721D01*
X0123282Y0175721D02*
X0123282Y0178857D01*
D13*
X0176763Y0163569D02*
X0178337Y0163569D01*
X0178337Y0160813D02*
X0176763Y0160813D01*
X0176338Y0136544D02*
X0177912Y0136544D01*
X0177912Y0133788D02*
X0176338Y0133788D01*
X0176663Y0126619D02*
X0178237Y0126619D01*
X0178237Y0123863D02*
X0176663Y0123863D01*
X0167448Y0011134D02*
X0167448Y0009559D01*
X0164692Y0009559D02*
X0164692Y0011134D01*
X0161253Y0011134D02*
X0161253Y0009559D01*
X0158497Y0009559D02*
X0158497Y0011134D01*
D14*
X0176958Y0126373D03*
X0176633Y0136298D03*
X0177058Y0163323D03*
D15*
X0167202Y0010838D03*
X0161007Y0010838D03*
D16*
X0101692Y0209657D02*
X0081692Y0209657D01*
X0081692Y0219657D01*
X0071692Y0219657D01*
X0071692Y0209657D01*
X0081692Y0209657D01*
X0081692Y0219657D02*
X0101692Y0219657D01*
X0101692Y0209657D01*
D17*
X0104081Y0204204D02*
X0104081Y0199479D01*
X0108019Y0201841D01*
X0104081Y0204204D01*
X0105800Y0051641D02*
X0109800Y0051641D01*
X0116450Y0051641D02*
X0120450Y0051641D01*
X0098650Y0051641D02*
X0094650Y0051641D01*
D18*
X0108750Y0201841D03*
M02*
