G75*
%MOIN*%
%OFA0B0*%
%FSLAX25Y25*%
%IPPOS*%
%LPD*%
%AMOC8*
5,1,8,0,0,1.08239X$1,22.5*
%
%ADD10R,0.03937X0.21654*%
%ADD11R,0.06299X0.13386*%
%ADD12R,0.03937X0.07874*%
%ADD13R,0.01575X0.05315*%
%ADD14C,0.05150*%
%ADD15R,0.09843X0.09843*%
%ADD16R,0.07874X0.09449*%
%ADD17C,0.13055*%
%ADD18C,0.05543*%
%ADD19C,0.00500*%
%ADD20R,0.05000X0.02500*%
%ADD21C,0.06000*%
%ADD22OC8,0.07000*%
%ADD23R,0.07000X0.07000*%
%ADD24C,0.03569*%
%ADD25C,0.01000*%
%ADD26C,0.01200*%
%ADD27C,0.02400*%
%ADD28C,0.03962*%
D10*
X0150764Y0207255D03*
X0158638Y0207255D03*
D11*
X0168087Y0200169D03*
X0141315Y0200169D03*
D12*
X0115503Y0012667D03*
X0109597Y0012667D03*
D13*
X0109991Y0023593D03*
X0107432Y0023593D03*
X0112550Y0023593D03*
X0115109Y0023593D03*
X0117668Y0023593D03*
D14*
X0125542Y0024085D02*
X0130692Y0024085D01*
X0099558Y0024085D02*
X0094408Y0024085D01*
D15*
X0098377Y0013061D03*
X0126723Y0013061D03*
D16*
X0137796Y0024441D03*
X0137796Y0048851D03*
X0181104Y0048851D03*
X0181104Y0024441D03*
D17*
X0075831Y0025675D03*
X0075831Y0077407D03*
X0075831Y0149425D03*
X0075831Y0201157D03*
D18*
X0086500Y0189071D03*
X0086500Y0179228D03*
X0086500Y0171354D03*
X0086500Y0161512D03*
X0086500Y0065321D03*
X0086500Y0055478D03*
X0086500Y0047604D03*
X0086500Y0037762D03*
D19*
X0043544Y0087741D02*
X0005044Y0087741D01*
X0005044Y0144491D01*
X0043544Y0144491D01*
X0043544Y0136366D01*
X0028419Y0136366D01*
X0028419Y0140491D01*
X0008669Y0140491D01*
X0008669Y0091741D01*
X0028294Y0091741D01*
X0028294Y0095866D01*
X0043544Y0095866D01*
X0043544Y0087741D01*
X0043544Y0087745D02*
X0005044Y0087745D01*
X0005044Y0088244D02*
X0043544Y0088244D01*
X0043544Y0088742D02*
X0005044Y0088742D01*
X0005044Y0089241D02*
X0043544Y0089241D01*
X0043544Y0089739D02*
X0005044Y0089739D01*
X0005044Y0090238D02*
X0043544Y0090238D01*
X0043544Y0090736D02*
X0005044Y0090736D01*
X0005044Y0091235D02*
X0043544Y0091235D01*
X0043544Y0091733D02*
X0005044Y0091733D01*
X0005044Y0092232D02*
X0008669Y0092232D01*
X0008669Y0092730D02*
X0005044Y0092730D01*
X0005044Y0093229D02*
X0008669Y0093229D01*
X0008669Y0093727D02*
X0005044Y0093727D01*
X0005044Y0094226D02*
X0008669Y0094226D01*
X0008669Y0094724D02*
X0005044Y0094724D01*
X0005044Y0095223D02*
X0008669Y0095223D01*
X0008669Y0095721D02*
X0005044Y0095721D01*
X0005044Y0096220D02*
X0008669Y0096220D01*
X0008669Y0096718D02*
X0005044Y0096718D01*
X0005044Y0097217D02*
X0008669Y0097217D01*
X0008669Y0097715D02*
X0005044Y0097715D01*
X0005044Y0098214D02*
X0008669Y0098214D01*
X0008669Y0098712D02*
X0005044Y0098712D01*
X0005044Y0099211D02*
X0008669Y0099211D01*
X0008669Y0099709D02*
X0005044Y0099709D01*
X0005044Y0100208D02*
X0008669Y0100208D01*
X0008669Y0100706D02*
X0005044Y0100706D01*
X0005044Y0101205D02*
X0008669Y0101205D01*
X0008669Y0101703D02*
X0005044Y0101703D01*
X0005044Y0102202D02*
X0008669Y0102202D01*
X0008669Y0102700D02*
X0005044Y0102700D01*
X0005044Y0103199D02*
X0008669Y0103199D01*
X0008669Y0103697D02*
X0005044Y0103697D01*
X0005044Y0104196D02*
X0008669Y0104196D01*
X0008669Y0104694D02*
X0005044Y0104694D01*
X0005044Y0105193D02*
X0008669Y0105193D01*
X0008669Y0105691D02*
X0005044Y0105691D01*
X0005044Y0106190D02*
X0008669Y0106190D01*
X0008669Y0106689D02*
X0005044Y0106689D01*
X0005044Y0107187D02*
X0008669Y0107187D01*
X0008669Y0107686D02*
X0005044Y0107686D01*
X0005044Y0108184D02*
X0008669Y0108184D01*
X0008669Y0108683D02*
X0005044Y0108683D01*
X0005044Y0109181D02*
X0008669Y0109181D01*
X0008669Y0109680D02*
X0005044Y0109680D01*
X0005044Y0110178D02*
X0008669Y0110178D01*
X0008669Y0110677D02*
X0005044Y0110677D01*
X0005044Y0111175D02*
X0008669Y0111175D01*
X0008669Y0111674D02*
X0005044Y0111674D01*
X0005044Y0112172D02*
X0008669Y0112172D01*
X0008669Y0112671D02*
X0005044Y0112671D01*
X0005044Y0113169D02*
X0008669Y0113169D01*
X0008669Y0113668D02*
X0005044Y0113668D01*
X0005044Y0114166D02*
X0008669Y0114166D01*
X0008669Y0114665D02*
X0005044Y0114665D01*
X0005044Y0115163D02*
X0008669Y0115163D01*
X0008669Y0115662D02*
X0005044Y0115662D01*
X0005044Y0116160D02*
X0008669Y0116160D01*
X0008669Y0116659D02*
X0005044Y0116659D01*
X0005044Y0117157D02*
X0008669Y0117157D01*
X0008669Y0117656D02*
X0005044Y0117656D01*
X0005044Y0118154D02*
X0008669Y0118154D01*
X0008669Y0118653D02*
X0005044Y0118653D01*
X0005044Y0119151D02*
X0008669Y0119151D01*
X0008669Y0119650D02*
X0005044Y0119650D01*
X0005044Y0120148D02*
X0008669Y0120148D01*
X0008669Y0120647D02*
X0005044Y0120647D01*
X0005044Y0121145D02*
X0008669Y0121145D01*
X0008669Y0121644D02*
X0005044Y0121644D01*
X0005044Y0122142D02*
X0008669Y0122142D01*
X0008669Y0122641D02*
X0005044Y0122641D01*
X0005044Y0123139D02*
X0008669Y0123139D01*
X0008669Y0123638D02*
X0005044Y0123638D01*
X0005044Y0124136D02*
X0008669Y0124136D01*
X0008669Y0124635D02*
X0005044Y0124635D01*
X0005044Y0125133D02*
X0008669Y0125133D01*
X0008669Y0125632D02*
X0005044Y0125632D01*
X0005044Y0126130D02*
X0008669Y0126130D01*
X0008669Y0126629D02*
X0005044Y0126629D01*
X0005044Y0127127D02*
X0008669Y0127127D01*
X0008669Y0127626D02*
X0005044Y0127626D01*
X0005044Y0128125D02*
X0008669Y0128125D01*
X0008669Y0128623D02*
X0005044Y0128623D01*
X0005044Y0129122D02*
X0008669Y0129122D01*
X0008669Y0129620D02*
X0005044Y0129620D01*
X0005044Y0130119D02*
X0008669Y0130119D01*
X0008669Y0130617D02*
X0005044Y0130617D01*
X0005044Y0131116D02*
X0008669Y0131116D01*
X0008669Y0131614D02*
X0005044Y0131614D01*
X0005044Y0132113D02*
X0008669Y0132113D01*
X0008669Y0132611D02*
X0005044Y0132611D01*
X0005044Y0133110D02*
X0008669Y0133110D01*
X0008669Y0133608D02*
X0005044Y0133608D01*
X0005044Y0134107D02*
X0008669Y0134107D01*
X0008669Y0134605D02*
X0005044Y0134605D01*
X0005044Y0135104D02*
X0008669Y0135104D01*
X0008669Y0135602D02*
X0005044Y0135602D01*
X0005044Y0136101D02*
X0008669Y0136101D01*
X0008669Y0136599D02*
X0005044Y0136599D01*
X0005044Y0137098D02*
X0008669Y0137098D01*
X0008669Y0137596D02*
X0005044Y0137596D01*
X0005044Y0138095D02*
X0008669Y0138095D01*
X0008669Y0138593D02*
X0005044Y0138593D01*
X0005044Y0139092D02*
X0008669Y0139092D01*
X0008669Y0139590D02*
X0005044Y0139590D01*
X0005044Y0140089D02*
X0008669Y0140089D01*
X0005044Y0140587D02*
X0043544Y0140587D01*
X0043544Y0140089D02*
X0028419Y0140089D01*
X0028419Y0139590D02*
X0043544Y0139590D01*
X0043544Y0139092D02*
X0028419Y0139092D01*
X0028419Y0138593D02*
X0043544Y0138593D01*
X0043544Y0138095D02*
X0028419Y0138095D01*
X0028419Y0137596D02*
X0043544Y0137596D01*
X0043544Y0137098D02*
X0028419Y0137098D01*
X0028419Y0136599D02*
X0043544Y0136599D01*
X0043544Y0141086D02*
X0005044Y0141086D01*
X0005044Y0141584D02*
X0043544Y0141584D01*
X0043544Y0142083D02*
X0005044Y0142083D01*
X0005044Y0142581D02*
X0043544Y0142581D01*
X0043544Y0143080D02*
X0005044Y0143080D01*
X0005044Y0143578D02*
X0043544Y0143578D01*
X0043544Y0144077D02*
X0005044Y0144077D01*
X0005234Y0159575D02*
X0005234Y0216325D01*
X0043734Y0216325D01*
X0043734Y0208200D01*
X0028609Y0208200D01*
X0028609Y0212325D01*
X0008859Y0212325D01*
X0008859Y0163575D01*
X0028484Y0163575D01*
X0028484Y0167700D01*
X0043734Y0167700D01*
X0043734Y0159575D01*
X0005234Y0159575D01*
X0005234Y0160029D02*
X0043734Y0160029D01*
X0043734Y0160528D02*
X0005234Y0160528D01*
X0005234Y0161026D02*
X0043734Y0161026D01*
X0043734Y0161525D02*
X0005234Y0161525D01*
X0005234Y0162023D02*
X0043734Y0162023D01*
X0043734Y0162522D02*
X0005234Y0162522D01*
X0005234Y0163020D02*
X0043734Y0163020D01*
X0043734Y0163519D02*
X0005234Y0163519D01*
X0005234Y0164017D02*
X0008859Y0164017D01*
X0008859Y0164516D02*
X0005234Y0164516D01*
X0005234Y0165014D02*
X0008859Y0165014D01*
X0008859Y0165513D02*
X0005234Y0165513D01*
X0005234Y0166011D02*
X0008859Y0166011D01*
X0008859Y0166510D02*
X0005234Y0166510D01*
X0005234Y0167008D02*
X0008859Y0167008D01*
X0008859Y0167507D02*
X0005234Y0167507D01*
X0005234Y0168005D02*
X0008859Y0168005D01*
X0008859Y0168504D02*
X0005234Y0168504D01*
X0005234Y0169002D02*
X0008859Y0169002D01*
X0008859Y0169501D02*
X0005234Y0169501D01*
X0005234Y0169999D02*
X0008859Y0169999D01*
X0008859Y0170498D02*
X0005234Y0170498D01*
X0005234Y0170996D02*
X0008859Y0170996D01*
X0008859Y0171495D02*
X0005234Y0171495D01*
X0005234Y0171994D02*
X0008859Y0171994D01*
X0008859Y0172492D02*
X0005234Y0172492D01*
X0005234Y0172991D02*
X0008859Y0172991D01*
X0008859Y0173489D02*
X0005234Y0173489D01*
X0005234Y0173988D02*
X0008859Y0173988D01*
X0008859Y0174486D02*
X0005234Y0174486D01*
X0005234Y0174985D02*
X0008859Y0174985D01*
X0008859Y0175483D02*
X0005234Y0175483D01*
X0005234Y0175982D02*
X0008859Y0175982D01*
X0008859Y0176480D02*
X0005234Y0176480D01*
X0005234Y0176979D02*
X0008859Y0176979D01*
X0008859Y0177477D02*
X0005234Y0177477D01*
X0005234Y0177976D02*
X0008859Y0177976D01*
X0008859Y0178474D02*
X0005234Y0178474D01*
X0005234Y0178973D02*
X0008859Y0178973D01*
X0008859Y0179471D02*
X0005234Y0179471D01*
X0005234Y0179970D02*
X0008859Y0179970D01*
X0008859Y0180468D02*
X0005234Y0180468D01*
X0005234Y0180967D02*
X0008859Y0180967D01*
X0008859Y0181465D02*
X0005234Y0181465D01*
X0005234Y0181964D02*
X0008859Y0181964D01*
X0008859Y0182462D02*
X0005234Y0182462D01*
X0005234Y0182961D02*
X0008859Y0182961D01*
X0008859Y0183459D02*
X0005234Y0183459D01*
X0005234Y0183958D02*
X0008859Y0183958D01*
X0008859Y0184456D02*
X0005234Y0184456D01*
X0005234Y0184955D02*
X0008859Y0184955D01*
X0008859Y0185453D02*
X0005234Y0185453D01*
X0005234Y0185952D02*
X0008859Y0185952D01*
X0008859Y0186450D02*
X0005234Y0186450D01*
X0005234Y0186949D02*
X0008859Y0186949D01*
X0008859Y0187447D02*
X0005234Y0187447D01*
X0005234Y0187946D02*
X0008859Y0187946D01*
X0008859Y0188444D02*
X0005234Y0188444D01*
X0005234Y0188943D02*
X0008859Y0188943D01*
X0008859Y0189441D02*
X0005234Y0189441D01*
X0005234Y0189940D02*
X0008859Y0189940D01*
X0008859Y0190438D02*
X0005234Y0190438D01*
X0005234Y0190937D02*
X0008859Y0190937D01*
X0008859Y0191435D02*
X0005234Y0191435D01*
X0005234Y0191934D02*
X0008859Y0191934D01*
X0008859Y0192432D02*
X0005234Y0192432D01*
X0005234Y0192931D02*
X0008859Y0192931D01*
X0008859Y0193429D02*
X0005234Y0193429D01*
X0005234Y0193928D02*
X0008859Y0193928D01*
X0008859Y0194427D02*
X0005234Y0194427D01*
X0005234Y0194925D02*
X0008859Y0194925D01*
X0008859Y0195424D02*
X0005234Y0195424D01*
X0005234Y0195922D02*
X0008859Y0195922D01*
X0008859Y0196421D02*
X0005234Y0196421D01*
X0005234Y0196919D02*
X0008859Y0196919D01*
X0008859Y0197418D02*
X0005234Y0197418D01*
X0005234Y0197916D02*
X0008859Y0197916D01*
X0008859Y0198415D02*
X0005234Y0198415D01*
X0005234Y0198913D02*
X0008859Y0198913D01*
X0008859Y0199412D02*
X0005234Y0199412D01*
X0005234Y0199910D02*
X0008859Y0199910D01*
X0008859Y0200409D02*
X0005234Y0200409D01*
X0005234Y0200907D02*
X0008859Y0200907D01*
X0008859Y0201406D02*
X0005234Y0201406D01*
X0005234Y0201904D02*
X0008859Y0201904D01*
X0008859Y0202403D02*
X0005234Y0202403D01*
X0005234Y0202901D02*
X0008859Y0202901D01*
X0008859Y0203400D02*
X0005234Y0203400D01*
X0005234Y0203898D02*
X0008859Y0203898D01*
X0008859Y0204397D02*
X0005234Y0204397D01*
X0005234Y0204895D02*
X0008859Y0204895D01*
X0008859Y0205394D02*
X0005234Y0205394D01*
X0005234Y0205892D02*
X0008859Y0205892D01*
X0008859Y0206391D02*
X0005234Y0206391D01*
X0005234Y0206889D02*
X0008859Y0206889D01*
X0008859Y0207388D02*
X0005234Y0207388D01*
X0005234Y0207886D02*
X0008859Y0207886D01*
X0008859Y0208385D02*
X0005234Y0208385D01*
X0005234Y0208883D02*
X0008859Y0208883D01*
X0008859Y0209382D02*
X0005234Y0209382D01*
X0005234Y0209880D02*
X0008859Y0209880D01*
X0008859Y0210379D02*
X0005234Y0210379D01*
X0005234Y0210877D02*
X0008859Y0210877D01*
X0008859Y0211376D02*
X0005234Y0211376D01*
X0005234Y0211874D02*
X0008859Y0211874D01*
X0005234Y0212373D02*
X0043734Y0212373D01*
X0043734Y0212871D02*
X0005234Y0212871D01*
X0005234Y0213370D02*
X0043734Y0213370D01*
X0043734Y0213868D02*
X0005234Y0213868D01*
X0005234Y0214367D02*
X0043734Y0214367D01*
X0043734Y0214865D02*
X0005234Y0214865D01*
X0005234Y0215364D02*
X0043734Y0215364D01*
X0043734Y0215862D02*
X0005234Y0215862D01*
X0028609Y0211874D02*
X0043734Y0211874D01*
X0043734Y0211376D02*
X0028609Y0211376D01*
X0028609Y0210877D02*
X0043734Y0210877D01*
X0043734Y0210379D02*
X0028609Y0210379D01*
X0028609Y0209880D02*
X0043734Y0209880D01*
X0043734Y0209382D02*
X0028609Y0209382D01*
X0028609Y0208883D02*
X0043734Y0208883D01*
X0043734Y0208385D02*
X0028609Y0208385D01*
X0028484Y0167507D02*
X0043734Y0167507D01*
X0043734Y0167008D02*
X0028484Y0167008D01*
X0028484Y0166510D02*
X0043734Y0166510D01*
X0043734Y0166011D02*
X0028484Y0166011D01*
X0028484Y0165513D02*
X0043734Y0165513D01*
X0043734Y0165014D02*
X0028484Y0165014D01*
X0028484Y0164516D02*
X0043734Y0164516D01*
X0043734Y0164017D02*
X0028484Y0164017D01*
X0028294Y0095721D02*
X0043544Y0095721D01*
X0043544Y0095223D02*
X0028294Y0095223D01*
X0028294Y0094724D02*
X0043544Y0094724D01*
X0043544Y0094226D02*
X0028294Y0094226D01*
X0028294Y0093727D02*
X0043544Y0093727D01*
X0043544Y0093229D02*
X0028294Y0093229D01*
X0028294Y0092730D02*
X0043544Y0092730D01*
X0043544Y0092232D02*
X0028294Y0092232D01*
D20*
X0038803Y0091866D03*
X0038803Y0140655D03*
X0038993Y0163699D03*
X0038993Y0212488D03*
D21*
X0049750Y0214841D02*
X0055750Y0214841D01*
X0055750Y0204841D02*
X0049750Y0204841D01*
X0049750Y0194841D02*
X0055750Y0194841D01*
X0055750Y0184841D02*
X0049750Y0184841D01*
D22*
X0086692Y0214657D03*
X0096692Y0214657D03*
D23*
X0076692Y0214657D03*
D24*
X0107550Y0185341D03*
X0111550Y0175741D03*
X0113150Y0169341D03*
X0110250Y0157973D03*
X0102826Y0154204D03*
X0095250Y0162291D03*
X0103375Y0142916D03*
X0093150Y0125341D03*
X0097150Y0119741D03*
X0097150Y0108541D03*
X0081500Y0106041D03*
X0088375Y0082916D03*
X0103500Y0069341D03*
X0101950Y0060541D03*
X0102125Y0052291D03*
X0116500Y0041041D03*
X0124350Y0046941D03*
X0129150Y0051741D03*
X0123725Y0062941D03*
X0134625Y0077291D03*
X0139375Y0077541D03*
X0145425Y0077266D03*
X0148975Y0073516D03*
X0142750Y0072291D03*
X0151550Y0082141D03*
X0163550Y0073341D03*
X0167750Y0069166D03*
X0159000Y0061041D03*
X0159160Y0056096D03*
X0152995Y0062545D03*
X0150875Y0043541D03*
X0135875Y0034166D03*
X0154108Y0011300D03*
X0112750Y0031041D03*
X0163550Y0091741D03*
X0154750Y0100541D03*
X0150269Y0100321D03*
X0154750Y0128541D03*
X0124000Y0152291D03*
X0124000Y0161041D03*
X0127550Y0175741D03*
X0141150Y0165341D03*
X0122750Y0143741D03*
X0118750Y0198941D03*
X0125250Y0202291D03*
X0145950Y0209341D03*
X0168375Y0185416D03*
X0171519Y0209242D03*
X0067550Y0174791D03*
X0055875Y0174166D03*
X0020250Y0152291D03*
X0045875Y0104791D03*
D25*
X0055130Y0079782D02*
X0055124Y0006318D01*
X0096164Y0006318D01*
X0095399Y0006529D01*
X0095399Y0006529D01*
X0095256Y0006640D01*
X0093258Y0006640D01*
X0092877Y0006742D01*
X0092534Y0006939D01*
X0092255Y0007219D01*
X0092058Y0007561D01*
X0091956Y0007942D01*
X0091956Y0012675D01*
X0092105Y0012675D01*
X0092105Y0013447D01*
X0091956Y0013447D01*
X0091956Y0018180D01*
X0092058Y0018561D01*
X0092255Y0018903D01*
X0092534Y0019183D01*
X0092877Y0019380D01*
X0093258Y0019482D01*
X0095256Y0019482D01*
X0095399Y0019593D01*
X0095399Y0019593D01*
X0096913Y0020010D01*
X0094088Y0020010D01*
X0093454Y0020110D01*
X0092844Y0020308D01*
X0092273Y0020600D01*
X0091754Y0020977D01*
X0091300Y0021430D01*
X0090923Y0021949D01*
X0090632Y0022520D01*
X0090434Y0023130D01*
X0090333Y0023764D01*
X0090333Y0023797D01*
X0099270Y0023797D01*
X0099270Y0024372D01*
X0090333Y0024372D01*
X0090333Y0024405D01*
X0090434Y0025039D01*
X0090632Y0025649D01*
X0090923Y0026220D01*
X0091300Y0026739D01*
X0091754Y0027193D01*
X0092273Y0027570D01*
X0092844Y0027861D01*
X0093454Y0028059D01*
X0094088Y0028159D01*
X0099270Y0028159D01*
X0099270Y0024372D01*
X0099845Y0024372D01*
X0099845Y0028159D01*
X0099879Y0028159D01*
X0100512Y0028059D01*
X0101122Y0027861D01*
X0101694Y0027570D01*
X0102212Y0027193D01*
X0102666Y0026739D01*
X0103043Y0026220D01*
X0103074Y0026159D01*
X0103704Y0026419D01*
X0105144Y0026419D01*
X0105144Y0026447D01*
X0105247Y0026829D01*
X0105444Y0027171D01*
X0105723Y0027450D01*
X0106066Y0027648D01*
X0106447Y0027750D01*
X0107432Y0027750D01*
X0107432Y0025844D01*
X0107432Y0027750D01*
X0108417Y0027750D01*
X0108798Y0027648D01*
X0109140Y0027450D01*
X0109241Y0027350D01*
X0111234Y0027350D01*
X0111270Y0027313D01*
X0111307Y0027350D01*
X0113793Y0027350D01*
X0113830Y0027313D01*
X0113866Y0027350D01*
X0114179Y0027350D01*
X0113358Y0028171D01*
X0113324Y0028157D01*
X0112176Y0028157D01*
X0111116Y0028596D01*
X0110305Y0029408D01*
X0109866Y0030468D01*
X0109866Y0031615D01*
X0110305Y0032675D01*
X0111116Y0033486D01*
X0112176Y0033926D01*
X0113324Y0033926D01*
X0114384Y0033486D01*
X0115195Y0032675D01*
X0115634Y0031615D01*
X0115634Y0030468D01*
X0115620Y0030434D01*
X0118704Y0027350D01*
X0118911Y0027350D01*
X0119555Y0026706D01*
X0119555Y0026419D01*
X0121396Y0026419D01*
X0122026Y0026159D01*
X0122057Y0026220D01*
X0122434Y0026739D01*
X0122888Y0027193D01*
X0123406Y0027570D01*
X0123978Y0027861D01*
X0124588Y0028059D01*
X0125221Y0028159D01*
X0125255Y0028159D01*
X0125255Y0024372D01*
X0125830Y0024372D01*
X0134767Y0024372D01*
X0134767Y0024405D01*
X0134682Y0024941D01*
X0137296Y0024941D01*
X0137296Y0023941D01*
X0132359Y0023941D01*
X0132359Y0023797D01*
X0125830Y0023797D01*
X0125830Y0024372D01*
X0125830Y0028159D01*
X0131012Y0028159D01*
X0131646Y0028059D01*
X0132256Y0027861D01*
X0132359Y0027808D01*
X0132359Y0029363D01*
X0132462Y0029745D01*
X0132659Y0030087D01*
X0132938Y0030366D01*
X0133280Y0030564D01*
X0133662Y0030666D01*
X0137296Y0030666D01*
X0137296Y0030091D01*
X0138296Y0030091D01*
X0138296Y0030666D01*
X0141931Y0030666D01*
X0142312Y0030564D01*
X0142654Y0030366D01*
X0142934Y0030087D01*
X0143131Y0029745D01*
X0143233Y0029363D01*
X0143233Y0024941D01*
X0142600Y0024941D01*
X0142600Y0023941D01*
X0143233Y0023941D01*
X0143233Y0019519D01*
X0143131Y0019138D01*
X0142934Y0018796D01*
X0142654Y0018517D01*
X0142312Y0018319D01*
X0141931Y0018217D01*
X0138296Y0018217D01*
X0138296Y0023941D01*
X0137296Y0023941D01*
X0137296Y0018217D01*
X0133662Y0018217D01*
X0133280Y0018319D01*
X0133075Y0018438D01*
X0133144Y0018180D01*
X0133144Y0013447D01*
X0132995Y0013447D01*
X0132995Y0012675D01*
X0133144Y0012675D01*
X0133144Y0007942D01*
X0133042Y0007561D01*
X0132845Y0007219D01*
X0132566Y0006939D01*
X0132223Y0006742D01*
X0131842Y0006640D01*
X0129713Y0006640D01*
X0129062Y0006318D01*
X0184644Y0006319D01*
X0184603Y0018617D01*
X0176711Y0018617D01*
X0176067Y0019261D01*
X0176067Y0026562D01*
X0171687Y0030941D01*
X0163747Y0030941D01*
X0163783Y0030926D01*
X0165935Y0028774D01*
X0167100Y0025963D01*
X0167100Y0022920D01*
X0165935Y0020108D01*
X0163783Y0017956D01*
X0160972Y0016792D01*
X0157928Y0016792D01*
X0155117Y0017956D01*
X0152965Y0020108D01*
X0151800Y0022920D01*
X0151800Y0025963D01*
X0152965Y0028774D01*
X0155117Y0030926D01*
X0156096Y0031332D01*
X0155550Y0031879D01*
X0143550Y0043879D01*
X0143550Y0051079D01*
X0143233Y0051395D01*
X0143233Y0049351D01*
X0142600Y0049351D01*
X0142600Y0048351D01*
X0143233Y0048351D01*
X0143233Y0043929D01*
X0143131Y0043547D01*
X0142934Y0043205D01*
X0142654Y0042926D01*
X0142312Y0042729D01*
X0141931Y0042626D01*
X0138296Y0042626D01*
X0138296Y0043191D01*
X0137296Y0043191D01*
X0137296Y0042626D01*
X0133662Y0042626D01*
X0133280Y0042729D01*
X0132938Y0042926D01*
X0132659Y0043205D01*
X0132462Y0043547D01*
X0132359Y0043929D01*
X0132359Y0048351D01*
X0137296Y0048351D01*
X0137296Y0049351D01*
X0132359Y0049351D01*
X0132359Y0053773D01*
X0132462Y0054154D01*
X0132659Y0054496D01*
X0132938Y0054775D01*
X0133280Y0054973D01*
X0133662Y0055075D01*
X0137296Y0055075D01*
X0137296Y0049351D01*
X0138296Y0049351D01*
X0138296Y0055075D01*
X0139553Y0055075D01*
X0130887Y0063741D01*
X0130541Y0064088D01*
X0130128Y0064352D01*
X0130087Y0064542D01*
X0128209Y0066419D01*
X0128209Y0061084D01*
X0118100Y0050975D01*
X0118100Y0043500D01*
X0118134Y0043486D01*
X0118945Y0042675D01*
X0119384Y0041615D01*
X0119384Y0040468D01*
X0118945Y0039408D01*
X0118134Y0038596D01*
X0117074Y0038157D01*
X0115926Y0038157D01*
X0114866Y0038596D01*
X0114055Y0039408D01*
X0113616Y0040468D01*
X0113616Y0041615D01*
X0114055Y0042675D01*
X0114866Y0043486D01*
X0114900Y0043500D01*
X0114900Y0052300D01*
X0122802Y0060202D01*
X0122091Y0060496D01*
X0121280Y0061308D01*
X0121276Y0061318D01*
X0105012Y0061340D01*
X0104820Y0061149D01*
X0104834Y0061115D01*
X0104834Y0059968D01*
X0104395Y0058908D01*
X0103584Y0058096D01*
X0102524Y0057657D01*
X0101376Y0057657D01*
X0100316Y0058096D01*
X0099505Y0058908D01*
X0099066Y0059968D01*
X0099066Y0061115D01*
X0099505Y0062175D01*
X0100316Y0062986D01*
X0101376Y0063426D01*
X0102524Y0063426D01*
X0102558Y0063412D01*
X0102751Y0063605D01*
X0102751Y0063606D01*
X0103220Y0064074D01*
X0103687Y0064541D01*
X0103689Y0064541D01*
X0103690Y0064542D01*
X0104354Y0064541D01*
X0105013Y0064541D01*
X0105014Y0064540D01*
X0121256Y0064518D01*
X0121280Y0064575D01*
X0121562Y0064857D01*
X0101643Y0064857D01*
X0100705Y0065794D01*
X0099953Y0066547D01*
X0099016Y0067484D01*
X0099016Y0071199D01*
X0100705Y0072888D01*
X0101643Y0073826D01*
X0132022Y0073826D01*
X0133025Y0074829D01*
X0133025Y0074832D01*
X0132991Y0074846D01*
X0132180Y0075658D01*
X0131741Y0076718D01*
X0131741Y0077865D01*
X0132180Y0078925D01*
X0132991Y0079736D01*
X0134051Y0080176D01*
X0135199Y0080176D01*
X0136259Y0079736D01*
X0136898Y0079098D01*
X0136930Y0079175D01*
X0137741Y0079986D01*
X0138801Y0080426D01*
X0139949Y0080426D01*
X0140941Y0080015D01*
X0140941Y0092051D01*
X0140936Y0092056D01*
X0140941Y0092713D01*
X0140941Y0093370D01*
X0140946Y0093375D01*
X0140946Y0093382D01*
X0141414Y0093843D01*
X0141878Y0094307D01*
X0141885Y0094307D01*
X0147391Y0099732D01*
X0147385Y0099747D01*
X0147385Y0100895D01*
X0147824Y0101955D01*
X0148635Y0102766D01*
X0149695Y0103205D01*
X0150843Y0103205D01*
X0151903Y0102766D01*
X0152399Y0102270D01*
X0153116Y0102986D01*
X0154176Y0103426D01*
X0155324Y0103426D01*
X0156384Y0102986D01*
X0156622Y0102748D01*
X0156558Y0126271D01*
X0156384Y0126096D01*
X0155324Y0125657D01*
X0154176Y0125657D01*
X0153116Y0126096D01*
X0152305Y0126908D01*
X0152291Y0126941D01*
X0137287Y0126941D01*
X0123358Y0140871D01*
X0123324Y0140857D01*
X0122176Y0140857D01*
X0121116Y0141296D01*
X0120305Y0142108D01*
X0119866Y0143168D01*
X0119866Y0144315D01*
X0120305Y0145375D01*
X0121116Y0146186D01*
X0122176Y0146626D01*
X0123324Y0146626D01*
X0124384Y0146186D01*
X0125195Y0145375D01*
X0125634Y0144315D01*
X0125634Y0143168D01*
X0125620Y0143134D01*
X0138613Y0130141D01*
X0152291Y0130141D01*
X0152305Y0130175D01*
X0153116Y0130986D01*
X0154176Y0131426D01*
X0155324Y0131426D01*
X0156384Y0130986D01*
X0156546Y0130824D01*
X0156370Y0195328D01*
X0156214Y0195328D01*
X0155569Y0195973D01*
X0155569Y0218538D01*
X0156214Y0219182D01*
X0161062Y0219182D01*
X0161706Y0218538D01*
X0161706Y0213576D01*
X0163971Y0215841D01*
X0166943Y0215841D01*
X0167255Y0216153D01*
X0168387Y0216622D01*
X0169613Y0216622D01*
X0170745Y0216153D01*
X0171612Y0215287D01*
X0172081Y0214154D01*
X0172081Y0212928D01*
X0171612Y0211796D01*
X0170745Y0210929D01*
X0169613Y0210460D01*
X0168387Y0210460D01*
X0167255Y0210929D01*
X0166943Y0211241D01*
X0165877Y0211241D01*
X0161706Y0207071D01*
X0161706Y0195973D01*
X0161062Y0195328D01*
X0160970Y0195328D01*
X0161247Y0093518D01*
X0161916Y0094186D01*
X0162976Y0094626D01*
X0164124Y0094626D01*
X0164834Y0094331D01*
X0164834Y0184138D01*
X0165505Y0184809D01*
X0165491Y0184843D01*
X0165491Y0185990D01*
X0165930Y0187050D01*
X0166741Y0187861D01*
X0167801Y0188301D01*
X0168949Y0188301D01*
X0170009Y0187861D01*
X0170820Y0187050D01*
X0171259Y0185990D01*
X0171259Y0184843D01*
X0170820Y0183783D01*
X0170009Y0182971D01*
X0168949Y0182532D01*
X0168034Y0182532D01*
X0168034Y0072051D01*
X0168324Y0072051D01*
X0169384Y0071611D01*
X0170195Y0070800D01*
X0170634Y0069740D01*
X0170634Y0068593D01*
X0170195Y0067533D01*
X0169384Y0066721D01*
X0168324Y0066282D01*
X0167176Y0066282D01*
X0167142Y0066296D01*
X0161884Y0061038D01*
X0161884Y0060468D01*
X0161445Y0059408D01*
X0160634Y0058596D01*
X0159574Y0058157D01*
X0158426Y0058157D01*
X0157716Y0058451D01*
X0157716Y0050146D01*
X0157850Y0050201D01*
X0161050Y0050201D01*
X0164006Y0048977D01*
X0166269Y0046714D01*
X0167493Y0043758D01*
X0167493Y0040558D01*
X0166269Y0037602D01*
X0164006Y0035339D01*
X0161114Y0034141D01*
X0173013Y0034141D01*
X0176888Y0030266D01*
X0184563Y0030266D01*
X0184548Y0034682D01*
X0184539Y0034704D01*
X0184539Y0037397D01*
X0184531Y0039894D01*
X0184528Y0039902D01*
X0184528Y0040798D01*
X0184525Y0041696D01*
X0184528Y0041703D01*
X0184528Y0043026D01*
X0176711Y0043026D01*
X0176067Y0043671D01*
X0176067Y0054031D01*
X0176711Y0054675D01*
X0184528Y0054675D01*
X0184528Y0220253D01*
X0151573Y0220308D01*
X0129373Y0220303D01*
X0129799Y0218713D01*
X0129799Y0215870D01*
X0129063Y0213123D01*
X0127642Y0210660D01*
X0125631Y0208650D01*
X0123168Y0207228D01*
X0120422Y0206492D01*
X0117578Y0206492D01*
X0114832Y0207228D01*
X0112369Y0208650D01*
X0110358Y0210660D01*
X0108937Y0213123D01*
X0108201Y0215870D01*
X0108201Y0218713D01*
X0108625Y0220297D01*
X0006381Y0220272D01*
X0006381Y0218075D01*
X0007289Y0218075D01*
X0008059Y0218393D01*
X0010476Y0218393D01*
X0011246Y0218075D01*
X0026506Y0218075D01*
X0027276Y0218393D01*
X0029692Y0218393D01*
X0030462Y0218075D01*
X0038868Y0218075D01*
X0038868Y0212613D01*
X0039118Y0212613D01*
X0039118Y0218075D01*
X0043964Y0218075D01*
X0044409Y0217955D01*
X0044808Y0217725D01*
X0045134Y0217399D01*
X0045365Y0217000D01*
X0045484Y0216555D01*
X0045484Y0207969D01*
X0045365Y0207524D01*
X0045134Y0207125D01*
X0044808Y0206799D01*
X0044409Y0206569D01*
X0043964Y0206450D01*
X0039118Y0206450D01*
X0039118Y0212363D01*
X0038868Y0212363D01*
X0038868Y0206450D01*
X0032984Y0206450D01*
X0032984Y0169450D01*
X0038868Y0169450D01*
X0038868Y0163824D01*
X0039118Y0163824D01*
X0045484Y0163824D01*
X0045484Y0167930D01*
X0045365Y0168375D01*
X0045134Y0168774D01*
X0044808Y0169100D01*
X0044409Y0169330D01*
X0043964Y0169450D01*
X0039118Y0169450D01*
X0039118Y0163824D01*
X0039118Y0163574D01*
X0045484Y0163574D01*
X0045484Y0162864D01*
X0046328Y0163091D01*
X0049172Y0163091D01*
X0051918Y0162355D01*
X0054381Y0160933D01*
X0056392Y0158922D01*
X0057813Y0156460D01*
X0058549Y0153713D01*
X0058549Y0150870D01*
X0057813Y0148123D01*
X0056392Y0145660D01*
X0054381Y0143650D01*
X0051918Y0142228D01*
X0049172Y0141492D01*
X0046328Y0141492D01*
X0045294Y0141769D01*
X0045294Y0136136D01*
X0045175Y0135691D01*
X0044944Y0135292D01*
X0044619Y0134966D01*
X0044220Y0134736D01*
X0043774Y0134616D01*
X0038928Y0134616D01*
X0038928Y0140530D01*
X0038678Y0140530D01*
X0038678Y0134616D01*
X0032794Y0134616D01*
X0032794Y0097616D01*
X0038678Y0097616D01*
X0038678Y0091991D01*
X0038928Y0091991D01*
X0038928Y0097616D01*
X0043774Y0097616D01*
X0044220Y0097497D01*
X0044619Y0097267D01*
X0044944Y0096941D01*
X0045175Y0096542D01*
X0045294Y0096097D01*
X0045294Y0091991D01*
X0038928Y0091991D01*
X0038928Y0091741D01*
X0045294Y0091741D01*
X0045294Y0087511D01*
X0045175Y0087066D01*
X0044944Y0086667D01*
X0044619Y0086341D01*
X0044220Y0086111D01*
X0043774Y0085991D01*
X0038928Y0085991D01*
X0038928Y0091741D01*
X0038678Y0091741D01*
X0034369Y0091741D01*
X0034369Y0091991D01*
X0038678Y0091991D01*
X0038678Y0091741D01*
X0038678Y0085991D01*
X0030287Y0085991D01*
X0029502Y0085666D01*
X0027086Y0085666D01*
X0026302Y0085991D01*
X0011070Y0085991D01*
X0010286Y0085666D01*
X0007869Y0085666D01*
X0007085Y0085991D01*
X0006426Y0085991D01*
X0006427Y0083427D01*
X0049676Y0083426D01*
X0049677Y0083427D01*
X0051486Y0083426D01*
X0053158Y0082734D01*
X0054438Y0081454D01*
X0055130Y0079782D01*
X0055130Y0079406D02*
X0068055Y0079406D01*
X0067941Y0078977D02*
X0067803Y0077934D01*
X0067803Y0077907D01*
X0075331Y0077907D01*
X0075331Y0076907D01*
X0076331Y0076907D01*
X0076331Y0069380D01*
X0076357Y0069380D01*
X0077400Y0069517D01*
X0078417Y0069790D01*
X0079389Y0070192D01*
X0080300Y0070718D01*
X0081135Y0071359D01*
X0081879Y0072103D01*
X0082520Y0072938D01*
X0083046Y0073849D01*
X0083449Y0074822D01*
X0083721Y0075838D01*
X0083858Y0076881D01*
X0083858Y0076907D01*
X0076331Y0076907D01*
X0076331Y0077907D01*
X0083858Y0077907D01*
X0083858Y0077934D01*
X0083721Y0078977D01*
X0083449Y0079993D01*
X0083046Y0080966D01*
X0082520Y0081877D01*
X0081879Y0082712D01*
X0081135Y0083456D01*
X0080300Y0084096D01*
X0079389Y0084623D01*
X0078417Y0085025D01*
X0077400Y0085298D01*
X0076357Y0085435D01*
X0076331Y0085435D01*
X0076331Y0077908D01*
X0075331Y0077908D01*
X0075331Y0085435D01*
X0075305Y0085435D01*
X0074261Y0085298D01*
X0073245Y0085025D01*
X0072273Y0084623D01*
X0071361Y0084096D01*
X0070526Y0083456D01*
X0069782Y0082712D01*
X0069142Y0081877D01*
X0068616Y0080966D01*
X0068213Y0079993D01*
X0067941Y0078977D01*
X0067866Y0078407D02*
X0055130Y0078407D01*
X0055130Y0077409D02*
X0075331Y0077409D01*
X0075831Y0077407D02*
X0076350Y0077341D01*
X0076331Y0077409D02*
X0131741Y0077409D01*
X0131868Y0076410D02*
X0083796Y0076410D01*
X0083607Y0075412D02*
X0132426Y0075412D01*
X0132609Y0074413D02*
X0083279Y0074413D01*
X0082795Y0073415D02*
X0101232Y0073415D01*
X0100233Y0072416D02*
X0082119Y0072416D01*
X0081194Y0071418D02*
X0099235Y0071418D01*
X0099016Y0070419D02*
X0079782Y0070419D01*
X0083242Y0068104D02*
X0082847Y0067560D01*
X0082541Y0066961D01*
X0082334Y0066321D01*
X0082236Y0065707D01*
X0086114Y0065707D01*
X0086114Y0069585D01*
X0085500Y0069487D01*
X0084860Y0069280D01*
X0084261Y0068974D01*
X0083717Y0068579D01*
X0083242Y0068104D01*
X0083560Y0068422D02*
X0055129Y0068422D01*
X0055129Y0067424D02*
X0082777Y0067424D01*
X0082367Y0066425D02*
X0055129Y0066425D01*
X0055129Y0065427D02*
X0086114Y0065427D01*
X0085950Y0065341D02*
X0086500Y0065321D01*
X0085950Y0064541D01*
X0086114Y0064428D02*
X0086886Y0064428D01*
X0086886Y0064935D02*
X0086886Y0061057D01*
X0087500Y0061154D01*
X0088140Y0061362D01*
X0088739Y0061667D01*
X0089283Y0062063D01*
X0089758Y0062538D01*
X0090153Y0063082D01*
X0090459Y0063681D01*
X0090666Y0064321D01*
X0090764Y0064935D01*
X0086886Y0064935D01*
X0086886Y0065707D01*
X0086114Y0065707D01*
X0086114Y0064935D01*
X0082236Y0064935D01*
X0082334Y0064321D01*
X0082541Y0063681D01*
X0082847Y0063082D01*
X0083242Y0062538D01*
X0083717Y0062063D01*
X0084261Y0061667D01*
X0084860Y0061362D01*
X0085500Y0061154D01*
X0086114Y0061057D01*
X0086114Y0064935D01*
X0086886Y0064935D01*
X0086886Y0065427D02*
X0101073Y0065427D01*
X0100074Y0066425D02*
X0090633Y0066425D01*
X0090666Y0066321D02*
X0090459Y0066961D01*
X0090153Y0067560D01*
X0089758Y0068104D01*
X0089283Y0068579D01*
X0088739Y0068974D01*
X0088140Y0069280D01*
X0087500Y0069487D01*
X0086886Y0069585D01*
X0086886Y0065707D01*
X0090764Y0065707D01*
X0090666Y0066321D01*
X0090223Y0067424D02*
X0099076Y0067424D01*
X0099016Y0068422D02*
X0089440Y0068422D01*
X0087705Y0069421D02*
X0099016Y0069421D01*
X0100616Y0070536D02*
X0100616Y0068147D01*
X0102305Y0066457D01*
X0126609Y0066457D01*
X0126609Y0061747D01*
X0116500Y0051637D01*
X0116500Y0041041D01*
X0113966Y0042461D02*
X0055127Y0042461D01*
X0055127Y0043459D02*
X0114839Y0043459D01*
X0114900Y0044458D02*
X0088829Y0044458D01*
X0088693Y0044322D02*
X0089782Y0045411D01*
X0090372Y0046834D01*
X0090372Y0048374D01*
X0089782Y0049797D01*
X0088693Y0050887D01*
X0087270Y0051476D01*
X0085730Y0051476D01*
X0084307Y0050887D01*
X0083218Y0049797D01*
X0082628Y0048374D01*
X0082628Y0046834D01*
X0083218Y0045411D01*
X0084307Y0044322D01*
X0085730Y0043733D01*
X0087270Y0043733D01*
X0088693Y0044322D01*
X0089801Y0045456D02*
X0114900Y0045456D01*
X0114900Y0046455D02*
X0090215Y0046455D01*
X0090372Y0047454D02*
X0114900Y0047454D01*
X0114900Y0048452D02*
X0090340Y0048452D01*
X0089926Y0049451D02*
X0114900Y0049451D01*
X0114900Y0050449D02*
X0089131Y0050449D01*
X0088693Y0052196D02*
X0089782Y0053285D01*
X0090372Y0054708D01*
X0090372Y0056248D01*
X0089782Y0057671D01*
X0088693Y0058761D01*
X0087270Y0059350D01*
X0085730Y0059350D01*
X0084307Y0058761D01*
X0083218Y0057671D01*
X0082628Y0056248D01*
X0082628Y0054708D01*
X0083218Y0053285D01*
X0084307Y0052196D01*
X0085730Y0051607D01*
X0087270Y0051607D01*
X0088693Y0052196D01*
X0088943Y0052446D02*
X0115046Y0052446D01*
X0114900Y0051448D02*
X0087339Y0051448D01*
X0085661Y0051448D02*
X0055128Y0051448D01*
X0055128Y0052446D02*
X0084057Y0052446D01*
X0083152Y0053445D02*
X0055128Y0053445D01*
X0055128Y0054443D02*
X0082738Y0054443D01*
X0082628Y0055442D02*
X0055128Y0055442D01*
X0055128Y0056440D02*
X0082708Y0056440D01*
X0083121Y0057439D02*
X0055129Y0057439D01*
X0055129Y0058437D02*
X0083983Y0058437D01*
X0085950Y0060541D02*
X0076350Y0050941D01*
X0076350Y0026141D01*
X0075831Y0025675D01*
X0076331Y0025486D02*
X0090579Y0025486D01*
X0090347Y0024488D02*
X0083771Y0024488D01*
X0083721Y0024106D02*
X0083858Y0025149D01*
X0083858Y0025175D01*
X0076331Y0025175D01*
X0076331Y0026175D01*
X0083858Y0026175D01*
X0083858Y0026201D01*
X0083721Y0027245D01*
X0083449Y0028261D01*
X0083046Y0029233D01*
X0082520Y0030145D01*
X0081879Y0030979D01*
X0081135Y0031724D01*
X0080300Y0032364D01*
X0079389Y0032890D01*
X0078417Y0033293D01*
X0077400Y0033565D01*
X0076357Y0033703D01*
X0076331Y0033703D01*
X0076331Y0026175D01*
X0075331Y0026175D01*
X0075331Y0033703D01*
X0075305Y0033703D01*
X0074261Y0033565D01*
X0073245Y0033293D01*
X0072273Y0032890D01*
X0071361Y0032364D01*
X0070526Y0031724D01*
X0069782Y0030979D01*
X0069142Y0030145D01*
X0068616Y0029233D01*
X0068213Y0028261D01*
X0067941Y0027245D01*
X0067803Y0026201D01*
X0067803Y0026175D01*
X0075331Y0026175D01*
X0075331Y0025175D01*
X0076331Y0025175D01*
X0076331Y0017648D01*
X0076357Y0017648D01*
X0077400Y0017785D01*
X0078417Y0018057D01*
X0079389Y0018460D01*
X0080300Y0018986D01*
X0081135Y0019627D01*
X0081879Y0020371D01*
X0082520Y0021206D01*
X0083046Y0022117D01*
X0083449Y0023089D01*
X0083721Y0024106D01*
X0083556Y0023489D02*
X0090377Y0023489D01*
X0090647Y0022491D02*
X0083201Y0022491D01*
X0082685Y0021492D02*
X0091255Y0021492D01*
X0092480Y0020494D02*
X0081973Y0020494D01*
X0080963Y0019495D02*
X0095272Y0019495D01*
X0092040Y0018497D02*
X0079452Y0018497D01*
X0076331Y0018497D02*
X0075331Y0018497D01*
X0075331Y0017648D02*
X0075331Y0025175D01*
X0067803Y0025175D01*
X0067803Y0025149D01*
X0067941Y0024106D01*
X0068213Y0023089D01*
X0068616Y0022117D01*
X0069142Y0021206D01*
X0069782Y0020371D01*
X0070526Y0019627D01*
X0071361Y0018986D01*
X0072273Y0018460D01*
X0073245Y0018057D01*
X0074261Y0017785D01*
X0075305Y0017648D01*
X0075331Y0017648D01*
X0075331Y0019495D02*
X0076331Y0019495D01*
X0076331Y0020494D02*
X0075331Y0020494D01*
X0075331Y0021492D02*
X0076331Y0021492D01*
X0076331Y0022491D02*
X0075331Y0022491D01*
X0075331Y0023489D02*
X0076331Y0023489D01*
X0076331Y0024488D02*
X0075331Y0024488D01*
X0075331Y0025486D02*
X0055126Y0025486D01*
X0055126Y0024488D02*
X0067890Y0024488D01*
X0068106Y0023489D02*
X0055126Y0023489D01*
X0055126Y0022491D02*
X0068461Y0022491D01*
X0068976Y0021492D02*
X0055126Y0021492D01*
X0055126Y0020494D02*
X0069688Y0020494D01*
X0070698Y0019495D02*
X0055125Y0019495D01*
X0055125Y0018497D02*
X0072209Y0018497D01*
X0075331Y0026485D02*
X0076331Y0026485D01*
X0076331Y0027483D02*
X0075331Y0027483D01*
X0075331Y0028482D02*
X0076331Y0028482D01*
X0076331Y0029480D02*
X0075331Y0029480D01*
X0075331Y0030479D02*
X0076331Y0030479D01*
X0076331Y0031477D02*
X0075331Y0031477D01*
X0075331Y0032476D02*
X0076331Y0032476D01*
X0076331Y0033474D02*
X0075331Y0033474D01*
X0073921Y0033474D02*
X0055127Y0033474D01*
X0055127Y0032476D02*
X0071555Y0032476D01*
X0070280Y0031477D02*
X0055126Y0031477D01*
X0055126Y0030479D02*
X0069398Y0030479D01*
X0068758Y0029480D02*
X0055126Y0029480D01*
X0055126Y0028482D02*
X0068304Y0028482D01*
X0068004Y0027483D02*
X0055126Y0027483D01*
X0055126Y0026485D02*
X0067840Y0026485D01*
X0077740Y0033474D02*
X0111104Y0033474D01*
X0110222Y0032476D02*
X0080107Y0032476D01*
X0081381Y0031477D02*
X0109866Y0031477D01*
X0109866Y0030479D02*
X0082263Y0030479D01*
X0082903Y0029480D02*
X0110275Y0029480D01*
X0111392Y0028482D02*
X0083357Y0028482D01*
X0083657Y0027483D02*
X0092154Y0027483D01*
X0091115Y0026485D02*
X0083821Y0026485D01*
X0085730Y0033890D02*
X0087270Y0033890D01*
X0088693Y0034480D01*
X0089782Y0035569D01*
X0090372Y0036992D01*
X0090372Y0038532D01*
X0089782Y0039955D01*
X0088693Y0041044D01*
X0087270Y0041633D01*
X0085730Y0041633D01*
X0084307Y0041044D01*
X0083218Y0039955D01*
X0082628Y0038532D01*
X0082628Y0036992D01*
X0083218Y0035569D01*
X0084307Y0034480D01*
X0085730Y0033890D01*
X0084323Y0034473D02*
X0055127Y0034473D01*
X0055127Y0035471D02*
X0083315Y0035471D01*
X0082844Y0036470D02*
X0055127Y0036470D01*
X0055127Y0037468D02*
X0082628Y0037468D01*
X0082628Y0038467D02*
X0055127Y0038467D01*
X0055127Y0039465D02*
X0083015Y0039465D01*
X0083727Y0040464D02*
X0055127Y0040464D01*
X0055127Y0041462D02*
X0085317Y0041462D01*
X0087683Y0041462D02*
X0113616Y0041462D01*
X0113617Y0040464D02*
X0089273Y0040464D01*
X0089985Y0039465D02*
X0114031Y0039465D01*
X0115178Y0038467D02*
X0090372Y0038467D01*
X0090372Y0037468D02*
X0149960Y0037468D01*
X0150959Y0036470D02*
X0090155Y0036470D01*
X0089685Y0035471D02*
X0151957Y0035471D01*
X0152956Y0034473D02*
X0088677Y0034473D01*
X0084171Y0044458D02*
X0055128Y0044458D01*
X0055128Y0045456D02*
X0083199Y0045456D01*
X0082785Y0046455D02*
X0055128Y0046455D01*
X0055128Y0047454D02*
X0082628Y0047454D01*
X0082660Y0048452D02*
X0055128Y0048452D01*
X0055128Y0049451D02*
X0083074Y0049451D01*
X0083869Y0050449D02*
X0055128Y0050449D01*
X0055129Y0059436D02*
X0099286Y0059436D01*
X0099066Y0060434D02*
X0055129Y0060434D01*
X0055129Y0061433D02*
X0084722Y0061433D01*
X0086114Y0061433D02*
X0086886Y0061433D01*
X0086886Y0062431D02*
X0086114Y0062431D01*
X0086114Y0063430D02*
X0086886Y0063430D01*
X0085950Y0065341D02*
X0085950Y0067741D01*
X0086114Y0067424D02*
X0086886Y0067424D01*
X0086886Y0068422D02*
X0086114Y0068422D01*
X0086114Y0069421D02*
X0086886Y0069421D01*
X0085295Y0069421D02*
X0076667Y0069421D01*
X0076331Y0069421D02*
X0075331Y0069421D01*
X0075331Y0069380D02*
X0075331Y0076907D01*
X0067803Y0076907D01*
X0067803Y0076881D01*
X0067941Y0075838D01*
X0068213Y0074822D01*
X0068616Y0073849D01*
X0069142Y0072938D01*
X0069782Y0072103D01*
X0070526Y0071359D01*
X0071361Y0070718D01*
X0072273Y0070192D01*
X0073245Y0069790D01*
X0074261Y0069517D01*
X0075305Y0069380D01*
X0075331Y0069380D01*
X0074994Y0069421D02*
X0055130Y0069421D01*
X0055130Y0070419D02*
X0071880Y0070419D01*
X0070468Y0071418D02*
X0055130Y0071418D01*
X0055130Y0072416D02*
X0069542Y0072416D01*
X0068866Y0073415D02*
X0055130Y0073415D01*
X0055130Y0074413D02*
X0068382Y0074413D01*
X0068055Y0075412D02*
X0055130Y0075412D01*
X0055130Y0076410D02*
X0067865Y0076410D01*
X0068383Y0080404D02*
X0054873Y0080404D01*
X0054459Y0081403D02*
X0068868Y0081403D01*
X0069544Y0082401D02*
X0053491Y0082401D01*
X0051550Y0083400D02*
X0070470Y0083400D01*
X0071884Y0084398D02*
X0006427Y0084398D01*
X0006426Y0085397D02*
X0075015Y0085397D01*
X0075331Y0085397D02*
X0076331Y0085397D01*
X0076646Y0085397D02*
X0086075Y0085397D01*
X0086075Y0084695D02*
X0085930Y0084550D01*
X0085491Y0083490D01*
X0085491Y0082343D01*
X0085930Y0081283D01*
X0086741Y0080471D01*
X0087801Y0080032D01*
X0088949Y0080032D01*
X0090009Y0080471D01*
X0090820Y0081283D01*
X0091259Y0082343D01*
X0091259Y0083490D01*
X0090820Y0084550D01*
X0090675Y0084695D01*
X0090675Y0099494D01*
X0084384Y0105785D01*
X0084384Y0106615D01*
X0083945Y0107675D01*
X0083134Y0108486D01*
X0082074Y0108926D01*
X0080926Y0108926D01*
X0079866Y0108486D01*
X0079055Y0107675D01*
X0078616Y0106615D01*
X0078616Y0105468D01*
X0079055Y0104408D01*
X0079866Y0103596D01*
X0080210Y0103454D01*
X0080547Y0103116D01*
X0086075Y0097589D01*
X0086075Y0084695D01*
X0085867Y0084398D02*
X0079777Y0084398D01*
X0081191Y0083400D02*
X0085491Y0083400D01*
X0085491Y0082401D02*
X0082117Y0082401D01*
X0082793Y0081403D02*
X0085880Y0081403D01*
X0086902Y0080404D02*
X0083278Y0080404D01*
X0083606Y0079406D02*
X0132661Y0079406D01*
X0131965Y0078407D02*
X0083796Y0078407D01*
X0089847Y0080404D02*
X0138750Y0080404D01*
X0140000Y0080404D02*
X0140941Y0080404D01*
X0140941Y0081403D02*
X0090870Y0081403D01*
X0091259Y0082401D02*
X0140941Y0082401D01*
X0140941Y0083400D02*
X0091259Y0083400D01*
X0090883Y0084398D02*
X0140941Y0084398D01*
X0140941Y0085397D02*
X0090675Y0085397D01*
X0090675Y0086395D02*
X0140941Y0086395D01*
X0140941Y0087394D02*
X0090675Y0087394D01*
X0090675Y0088392D02*
X0140941Y0088392D01*
X0140941Y0089391D02*
X0090675Y0089391D01*
X0090675Y0090389D02*
X0140941Y0090389D01*
X0140941Y0091388D02*
X0090675Y0091388D01*
X0090675Y0092387D02*
X0140938Y0092387D01*
X0140949Y0093385D02*
X0090675Y0093385D01*
X0090675Y0094384D02*
X0141963Y0094384D01*
X0142976Y0095382D02*
X0090675Y0095382D01*
X0090675Y0096381D02*
X0143990Y0096381D01*
X0145003Y0097379D02*
X0090675Y0097379D01*
X0090675Y0098378D02*
X0146017Y0098378D01*
X0147030Y0099376D02*
X0090675Y0099376D01*
X0089794Y0100375D02*
X0147385Y0100375D01*
X0147583Y0101373D02*
X0088796Y0101373D01*
X0087797Y0102372D02*
X0148241Y0102372D01*
X0150269Y0100321D02*
X0142541Y0092707D01*
X0142541Y0076072D01*
X0142750Y0075862D01*
X0142750Y0072291D01*
X0145425Y0077266D02*
X0150300Y0082141D01*
X0151550Y0082141D01*
X0154750Y0079291D02*
X0154750Y0100541D01*
X0152501Y0102372D02*
X0152298Y0102372D01*
X0154042Y0103370D02*
X0086799Y0103370D01*
X0085800Y0104369D02*
X0156618Y0104369D01*
X0156615Y0105367D02*
X0084802Y0105367D01*
X0084384Y0106366D02*
X0095247Y0106366D01*
X0095516Y0106096D02*
X0096576Y0105657D01*
X0097724Y0105657D01*
X0098784Y0106096D01*
X0099595Y0106908D01*
X0100034Y0107968D01*
X0100034Y0109115D01*
X0099595Y0110175D01*
X0098784Y0110986D01*
X0098750Y0111000D01*
X0098750Y0117282D01*
X0098784Y0117296D01*
X0099595Y0118108D01*
X0100034Y0119168D01*
X0100034Y0120315D01*
X0099595Y0121375D01*
X0098784Y0122186D01*
X0098750Y0122200D01*
X0098750Y0152679D01*
X0112542Y0166471D01*
X0112576Y0166457D01*
X0113724Y0166457D01*
X0114784Y0166896D01*
X0115595Y0167708D01*
X0116034Y0168768D01*
X0116034Y0169915D01*
X0115595Y0170975D01*
X0114784Y0171786D01*
X0113724Y0172226D01*
X0112576Y0172226D01*
X0111516Y0171786D01*
X0110705Y0170975D01*
X0110266Y0169915D01*
X0110266Y0168768D01*
X0110280Y0168734D01*
X0095550Y0154004D01*
X0095550Y0127020D01*
X0094784Y0127786D01*
X0093724Y0128226D01*
X0092576Y0128226D01*
X0091516Y0127786D01*
X0090705Y0126975D01*
X0090691Y0126941D01*
X0089013Y0126941D01*
X0074443Y0141511D01*
X0075305Y0141398D01*
X0075331Y0141398D01*
X0075331Y0148925D01*
X0076331Y0148925D01*
X0076331Y0149925D01*
X0083858Y0149925D01*
X0083858Y0149951D01*
X0083721Y0150995D01*
X0083449Y0152011D01*
X0083046Y0152983D01*
X0082520Y0153895D01*
X0081879Y0154729D01*
X0081135Y0155474D01*
X0080300Y0156114D01*
X0079389Y0156640D01*
X0078417Y0157043D01*
X0077400Y0157315D01*
X0076357Y0157453D01*
X0076331Y0157453D01*
X0076331Y0149925D01*
X0075331Y0149925D01*
X0075331Y0157453D01*
X0075305Y0157453D01*
X0074261Y0157315D01*
X0073245Y0157043D01*
X0072273Y0156640D01*
X0071361Y0156114D01*
X0070526Y0155474D01*
X0069782Y0154729D01*
X0069150Y0153905D01*
X0069150Y0172332D01*
X0069184Y0172346D01*
X0069995Y0173158D01*
X0070434Y0174218D01*
X0070434Y0175365D01*
X0069995Y0176425D01*
X0069184Y0177236D01*
X0069150Y0177250D01*
X0069150Y0180679D01*
X0096350Y0207879D01*
X0106887Y0197341D01*
X0116291Y0197341D01*
X0116305Y0197308D01*
X0117116Y0196496D01*
X0118176Y0196057D01*
X0119324Y0196057D01*
X0120384Y0196496D01*
X0121195Y0197308D01*
X0121634Y0198368D01*
X0121634Y0199515D01*
X0121195Y0200575D01*
X0120384Y0201386D01*
X0119324Y0201826D01*
X0118176Y0201826D01*
X0117116Y0201386D01*
X0116305Y0200575D01*
X0116291Y0200541D01*
X0108213Y0200541D01*
X0098648Y0210107D01*
X0101292Y0212751D01*
X0101292Y0216562D01*
X0098598Y0219257D01*
X0094787Y0219257D01*
X0092092Y0216562D01*
X0092092Y0212751D01*
X0094395Y0210449D01*
X0083749Y0199803D01*
X0083858Y0200631D01*
X0083858Y0200657D01*
X0076331Y0200657D01*
X0076331Y0193130D01*
X0076357Y0193130D01*
X0077185Y0193239D01*
X0065950Y0182004D01*
X0065950Y0177250D01*
X0065916Y0177236D01*
X0065105Y0176425D01*
X0064666Y0175365D01*
X0064666Y0174218D01*
X0065105Y0173158D01*
X0065916Y0172346D01*
X0065950Y0172332D01*
X0065950Y0145479D01*
X0066887Y0144541D01*
X0087687Y0123741D01*
X0090691Y0123741D01*
X0090705Y0123708D01*
X0091516Y0122896D01*
X0092576Y0122457D01*
X0093724Y0122457D01*
X0094784Y0122896D01*
X0095550Y0123662D01*
X0095550Y0122200D01*
X0095516Y0122186D01*
X0094705Y0121375D01*
X0094266Y0120315D01*
X0094266Y0119168D01*
X0094705Y0118108D01*
X0095516Y0117296D01*
X0095550Y0117282D01*
X0095550Y0111000D01*
X0095516Y0110986D01*
X0094705Y0110175D01*
X0094266Y0109115D01*
X0094266Y0107968D01*
X0094705Y0106908D01*
X0095516Y0106096D01*
X0094516Y0107364D02*
X0084074Y0107364D01*
X0083258Y0108363D02*
X0094266Y0108363D01*
X0094368Y0109361D02*
X0032794Y0109361D01*
X0032794Y0108363D02*
X0079742Y0108363D01*
X0078926Y0107364D02*
X0032794Y0107364D01*
X0032794Y0106366D02*
X0078616Y0106366D01*
X0078657Y0105367D02*
X0032794Y0105367D01*
X0032794Y0104369D02*
X0079094Y0104369D01*
X0080294Y0103370D02*
X0032794Y0103370D01*
X0032794Y0102372D02*
X0081292Y0102372D01*
X0082291Y0101373D02*
X0032794Y0101373D01*
X0032794Y0100375D02*
X0083289Y0100375D01*
X0084288Y0099376D02*
X0032794Y0099376D01*
X0032794Y0098378D02*
X0085286Y0098378D01*
X0086075Y0097379D02*
X0044424Y0097379D01*
X0045218Y0096381D02*
X0086075Y0096381D01*
X0086075Y0095382D02*
X0045294Y0095382D01*
X0045294Y0094384D02*
X0086075Y0094384D01*
X0086075Y0093385D02*
X0045294Y0093385D01*
X0045294Y0092387D02*
X0086075Y0092387D01*
X0086075Y0091388D02*
X0045294Y0091388D01*
X0045294Y0090389D02*
X0086075Y0090389D01*
X0086075Y0089391D02*
X0045294Y0089391D01*
X0045294Y0088392D02*
X0086075Y0088392D01*
X0086075Y0087394D02*
X0045263Y0087394D01*
X0044673Y0086395D02*
X0086075Y0086395D01*
X0076331Y0084398D02*
X0075331Y0084398D01*
X0075331Y0083400D02*
X0076331Y0083400D01*
X0076331Y0082401D02*
X0075331Y0082401D01*
X0075331Y0081403D02*
X0076331Y0081403D01*
X0076331Y0080404D02*
X0075331Y0080404D01*
X0075331Y0079406D02*
X0076331Y0079406D01*
X0076331Y0078407D02*
X0075331Y0078407D01*
X0075331Y0076410D02*
X0076331Y0076410D01*
X0076331Y0075412D02*
X0075331Y0075412D01*
X0075331Y0074413D02*
X0076331Y0074413D01*
X0076331Y0073415D02*
X0075331Y0073415D01*
X0075331Y0072416D02*
X0076331Y0072416D01*
X0076331Y0071418D02*
X0075331Y0071418D01*
X0075331Y0070419D02*
X0076331Y0070419D01*
X0082316Y0064428D02*
X0055129Y0064428D01*
X0055129Y0063430D02*
X0082669Y0063430D01*
X0083349Y0062431D02*
X0055129Y0062431D01*
X0038928Y0086395D02*
X0038678Y0086395D01*
X0038678Y0087394D02*
X0038928Y0087394D01*
X0038928Y0088392D02*
X0038678Y0088392D01*
X0038678Y0089391D02*
X0038928Y0089391D01*
X0038928Y0090389D02*
X0038678Y0090389D01*
X0038678Y0091388D02*
X0038928Y0091388D01*
X0038928Y0092387D02*
X0038678Y0092387D01*
X0038678Y0093385D02*
X0038928Y0093385D01*
X0038928Y0094384D02*
X0038678Y0094384D01*
X0038678Y0095382D02*
X0038928Y0095382D01*
X0038928Y0096381D02*
X0038678Y0096381D01*
X0038678Y0097379D02*
X0038928Y0097379D01*
X0032794Y0110360D02*
X0094889Y0110360D01*
X0095550Y0111358D02*
X0032794Y0111358D01*
X0032794Y0112357D02*
X0095550Y0112357D01*
X0095550Y0113355D02*
X0032794Y0113355D01*
X0032794Y0114354D02*
X0095550Y0114354D01*
X0095550Y0115352D02*
X0032794Y0115352D01*
X0032794Y0116351D02*
X0095550Y0116351D01*
X0095463Y0117349D02*
X0032794Y0117349D01*
X0032794Y0118348D02*
X0094605Y0118348D01*
X0094266Y0119346D02*
X0032794Y0119346D01*
X0032794Y0120345D02*
X0094278Y0120345D01*
X0094692Y0121343D02*
X0032794Y0121343D01*
X0032794Y0122342D02*
X0095550Y0122342D01*
X0095550Y0123340D02*
X0095228Y0123340D01*
X0093150Y0125341D02*
X0088350Y0125341D01*
X0067550Y0146141D01*
X0067550Y0174791D01*
X0067550Y0181341D01*
X0096350Y0210141D01*
X0107550Y0198941D01*
X0118750Y0198941D01*
X0119745Y0196232D02*
X0137065Y0196232D01*
X0137065Y0197230D02*
X0121118Y0197230D01*
X0121577Y0198229D02*
X0137065Y0198229D01*
X0137065Y0199227D02*
X0121634Y0199227D01*
X0121340Y0200226D02*
X0137065Y0200226D01*
X0137065Y0201224D02*
X0120546Y0201224D01*
X0116954Y0201224D02*
X0107530Y0201224D01*
X0106531Y0202223D02*
X0137065Y0202223D01*
X0137065Y0203221D02*
X0105533Y0203221D01*
X0104534Y0204220D02*
X0137065Y0204220D01*
X0137065Y0205218D02*
X0103536Y0205218D01*
X0102537Y0206217D02*
X0137065Y0206217D01*
X0137065Y0207215D02*
X0123121Y0207215D01*
X0124876Y0208214D02*
X0147295Y0208214D01*
X0147295Y0207739D02*
X0150279Y0207739D01*
X0150279Y0206771D01*
X0147295Y0206771D01*
X0147295Y0196231D01*
X0147397Y0195849D01*
X0147595Y0195507D01*
X0147874Y0195228D01*
X0148216Y0195031D01*
X0148598Y0194928D01*
X0150279Y0194928D01*
X0150279Y0206771D01*
X0151248Y0206771D01*
X0151248Y0207739D01*
X0154232Y0207739D01*
X0154232Y0218279D01*
X0154130Y0218661D01*
X0153933Y0219003D01*
X0153653Y0219282D01*
X0153311Y0219480D01*
X0152930Y0219582D01*
X0151248Y0219582D01*
X0151248Y0207740D01*
X0150279Y0207740D01*
X0150279Y0219582D01*
X0148598Y0219582D01*
X0148216Y0219480D01*
X0147874Y0219282D01*
X0147595Y0219003D01*
X0147397Y0218661D01*
X0147295Y0218279D01*
X0147295Y0207739D01*
X0147295Y0209212D02*
X0126193Y0209212D01*
X0127192Y0210211D02*
X0147295Y0210211D01*
X0147295Y0211209D02*
X0127958Y0211209D01*
X0128535Y0212208D02*
X0147295Y0212208D01*
X0147295Y0213206D02*
X0129086Y0213206D01*
X0129353Y0214205D02*
X0147295Y0214205D01*
X0147295Y0215203D02*
X0129621Y0215203D01*
X0129799Y0216202D02*
X0147295Y0216202D01*
X0147295Y0217200D02*
X0129799Y0217200D01*
X0129799Y0218199D02*
X0147295Y0218199D01*
X0147789Y0219197D02*
X0129669Y0219197D01*
X0129402Y0220196D02*
X0184528Y0220196D01*
X0184528Y0219197D02*
X0153738Y0219197D01*
X0154232Y0218199D02*
X0155569Y0218199D01*
X0155569Y0217200D02*
X0154232Y0217200D01*
X0154232Y0216202D02*
X0155569Y0216202D01*
X0155569Y0215203D02*
X0154232Y0215203D01*
X0154232Y0214205D02*
X0155569Y0214205D01*
X0155569Y0213206D02*
X0154232Y0213206D01*
X0154232Y0212208D02*
X0155569Y0212208D01*
X0155569Y0211209D02*
X0154232Y0211209D01*
X0154232Y0210211D02*
X0155569Y0210211D01*
X0155569Y0209212D02*
X0154232Y0209212D01*
X0154232Y0208214D02*
X0155569Y0208214D01*
X0155569Y0207215D02*
X0151248Y0207215D01*
X0151248Y0206771D02*
X0154232Y0206771D01*
X0154232Y0196231D01*
X0154130Y0195849D01*
X0153933Y0195507D01*
X0153653Y0195228D01*
X0153311Y0195031D01*
X0152930Y0194928D01*
X0151248Y0194928D01*
X0151248Y0206771D01*
X0151248Y0206217D02*
X0150279Y0206217D01*
X0150279Y0207215D02*
X0145565Y0207215D01*
X0145565Y0207317D02*
X0144920Y0207961D01*
X0137710Y0207961D01*
X0137065Y0207317D01*
X0137065Y0193020D01*
X0137710Y0192376D01*
X0144920Y0192376D01*
X0145565Y0193020D01*
X0145565Y0207317D01*
X0145565Y0206217D02*
X0147295Y0206217D01*
X0147295Y0205218D02*
X0145565Y0205218D01*
X0145565Y0204220D02*
X0147295Y0204220D01*
X0147295Y0203221D02*
X0145565Y0203221D01*
X0145565Y0202223D02*
X0147295Y0202223D01*
X0147295Y0201224D02*
X0145565Y0201224D01*
X0145565Y0200226D02*
X0147295Y0200226D01*
X0147295Y0199227D02*
X0145565Y0199227D01*
X0145565Y0198229D02*
X0147295Y0198229D01*
X0147295Y0197230D02*
X0145565Y0197230D01*
X0145565Y0196232D02*
X0147295Y0196232D01*
X0147869Y0195233D02*
X0145565Y0195233D01*
X0145565Y0194235D02*
X0156373Y0194235D01*
X0156370Y0195233D02*
X0153658Y0195233D01*
X0154232Y0196232D02*
X0155569Y0196232D01*
X0155569Y0197230D02*
X0154232Y0197230D01*
X0154232Y0198229D02*
X0155569Y0198229D01*
X0155569Y0199227D02*
X0154232Y0199227D01*
X0154232Y0200226D02*
X0155569Y0200226D01*
X0155569Y0201224D02*
X0154232Y0201224D01*
X0154232Y0202223D02*
X0155569Y0202223D01*
X0155569Y0203221D02*
X0154232Y0203221D01*
X0154232Y0204220D02*
X0155569Y0204220D01*
X0155569Y0205218D02*
X0154232Y0205218D01*
X0154232Y0206217D02*
X0155569Y0206217D01*
X0151248Y0205218D02*
X0150279Y0205218D01*
X0150279Y0204220D02*
X0151248Y0204220D01*
X0151248Y0203221D02*
X0150279Y0203221D01*
X0150279Y0202223D02*
X0151248Y0202223D01*
X0151248Y0201224D02*
X0150279Y0201224D01*
X0150279Y0200226D02*
X0151248Y0200226D01*
X0151248Y0199227D02*
X0150279Y0199227D01*
X0150279Y0198229D02*
X0151248Y0198229D01*
X0151248Y0197230D02*
X0150279Y0197230D01*
X0150279Y0196232D02*
X0151248Y0196232D01*
X0151248Y0195233D02*
X0150279Y0195233D01*
X0145565Y0193236D02*
X0156376Y0193236D01*
X0156379Y0192238D02*
X0089374Y0192238D01*
X0089283Y0192329D02*
X0088739Y0192724D01*
X0088140Y0193030D01*
X0087500Y0193237D01*
X0086886Y0193335D01*
X0086886Y0189457D01*
X0086114Y0189457D01*
X0086114Y0193335D01*
X0085500Y0193237D01*
X0084860Y0193030D01*
X0084261Y0192724D01*
X0083717Y0192329D01*
X0083242Y0191854D01*
X0082847Y0191310D01*
X0082541Y0190711D01*
X0082334Y0190071D01*
X0082236Y0189457D01*
X0086114Y0189457D01*
X0086114Y0188685D01*
X0082236Y0188685D01*
X0082334Y0188071D01*
X0082541Y0187431D01*
X0082847Y0186832D01*
X0083242Y0186288D01*
X0083717Y0185813D01*
X0084261Y0185417D01*
X0084860Y0185112D01*
X0085500Y0184904D01*
X0086114Y0184807D01*
X0086114Y0188685D01*
X0086886Y0188685D01*
X0086886Y0189457D01*
X0090764Y0189457D01*
X0090666Y0190071D01*
X0090459Y0190711D01*
X0090153Y0191310D01*
X0089758Y0191854D01*
X0089283Y0192329D01*
X0090189Y0191239D02*
X0156381Y0191239D01*
X0156384Y0190241D02*
X0090611Y0190241D01*
X0090764Y0188685D02*
X0090666Y0188071D01*
X0090459Y0187431D01*
X0090153Y0186832D01*
X0089758Y0186288D01*
X0089283Y0185813D01*
X0088739Y0185417D01*
X0088140Y0185112D01*
X0087500Y0184904D01*
X0086886Y0184807D01*
X0086886Y0188685D01*
X0090764Y0188685D01*
X0090694Y0188244D02*
X0156390Y0188244D01*
X0156387Y0189242D02*
X0086886Y0189242D01*
X0086500Y0189071D02*
X0086750Y0188541D01*
X0086886Y0188244D02*
X0086114Y0188244D01*
X0086114Y0189242D02*
X0077713Y0189242D01*
X0076715Y0188244D02*
X0082306Y0188244D01*
X0082636Y0187245D02*
X0075716Y0187245D01*
X0074718Y0186247D02*
X0083283Y0186247D01*
X0084594Y0185248D02*
X0073719Y0185248D01*
X0072721Y0184250D02*
X0156400Y0184250D01*
X0156398Y0185248D02*
X0088406Y0185248D01*
X0086886Y0185248D02*
X0086114Y0185248D01*
X0086114Y0186247D02*
X0086886Y0186247D01*
X0086886Y0187245D02*
X0086114Y0187245D01*
X0086114Y0190241D02*
X0086886Y0190241D01*
X0086886Y0191239D02*
X0086114Y0191239D01*
X0086114Y0192238D02*
X0086886Y0192238D01*
X0086886Y0193236D02*
X0086114Y0193236D01*
X0085496Y0193236D02*
X0081708Y0193236D01*
X0082706Y0194235D02*
X0137065Y0194235D01*
X0137065Y0195233D02*
X0083705Y0195233D01*
X0084703Y0196232D02*
X0117755Y0196232D01*
X0116382Y0197230D02*
X0085702Y0197230D01*
X0086700Y0198229D02*
X0106000Y0198229D01*
X0105001Y0199227D02*
X0087699Y0199227D01*
X0088697Y0200226D02*
X0104003Y0200226D01*
X0103004Y0201224D02*
X0089696Y0201224D01*
X0090694Y0202223D02*
X0102006Y0202223D01*
X0101007Y0203221D02*
X0091693Y0203221D01*
X0092691Y0204220D02*
X0100009Y0204220D01*
X0099010Y0205218D02*
X0093690Y0205218D01*
X0094688Y0206217D02*
X0098012Y0206217D01*
X0097013Y0207215D02*
X0095687Y0207215D01*
X0096350Y0210141D02*
X0096350Y0214141D01*
X0096692Y0214657D01*
X0093634Y0211209D02*
X0090316Y0211209D01*
X0089317Y0210211D02*
X0094157Y0210211D01*
X0093158Y0209212D02*
X0045484Y0209212D01*
X0045484Y0208214D02*
X0047324Y0208214D01*
X0047428Y0208317D02*
X0046274Y0207164D01*
X0045650Y0205657D01*
X0045650Y0204026D01*
X0046274Y0202519D01*
X0047428Y0201366D01*
X0048934Y0200741D01*
X0056566Y0200741D01*
X0058072Y0201366D01*
X0059226Y0202519D01*
X0059850Y0204026D01*
X0059850Y0205657D01*
X0059226Y0207164D01*
X0058072Y0208317D01*
X0056566Y0208941D01*
X0048934Y0208941D01*
X0047428Y0208317D01*
X0046326Y0207215D02*
X0045186Y0207215D01*
X0045882Y0206217D02*
X0032984Y0206217D01*
X0032984Y0205218D02*
X0045650Y0205218D01*
X0045650Y0204220D02*
X0032984Y0204220D01*
X0032984Y0203221D02*
X0045983Y0203221D01*
X0046570Y0202223D02*
X0032984Y0202223D01*
X0032984Y0201224D02*
X0047769Y0201224D01*
X0048686Y0199227D02*
X0032984Y0199227D01*
X0032984Y0198229D02*
X0046773Y0198229D01*
X0046818Y0198274D02*
X0046318Y0197773D01*
X0045901Y0197200D01*
X0045580Y0196569D01*
X0045361Y0195895D01*
X0045273Y0195341D01*
X0052250Y0195341D01*
X0052250Y0194341D01*
X0053250Y0194341D01*
X0053250Y0190341D01*
X0056104Y0190341D01*
X0056804Y0190452D01*
X0057477Y0190671D01*
X0058109Y0190993D01*
X0058682Y0191409D01*
X0059182Y0191910D01*
X0059599Y0192483D01*
X0059920Y0193114D01*
X0060139Y0193788D01*
X0060227Y0194341D01*
X0053250Y0194341D01*
X0053250Y0195341D01*
X0060227Y0195341D01*
X0060139Y0195895D01*
X0059920Y0196569D01*
X0059599Y0197200D01*
X0059182Y0197773D01*
X0058682Y0198274D01*
X0058109Y0198690D01*
X0057477Y0199012D01*
X0056804Y0199231D01*
X0056104Y0199341D01*
X0053250Y0199341D01*
X0053250Y0195341D01*
X0052250Y0195341D01*
X0052250Y0199341D01*
X0049396Y0199341D01*
X0048696Y0199231D01*
X0048023Y0199012D01*
X0047391Y0198690D01*
X0046818Y0198274D01*
X0045923Y0197230D02*
X0032984Y0197230D01*
X0032984Y0196232D02*
X0045470Y0196232D01*
X0045273Y0194341D02*
X0045361Y0193788D01*
X0045580Y0193114D01*
X0045901Y0192483D01*
X0046318Y0191910D01*
X0046818Y0191409D01*
X0047391Y0190993D01*
X0048023Y0190671D01*
X0048696Y0190452D01*
X0049396Y0190341D01*
X0052250Y0190341D01*
X0052250Y0194341D01*
X0045273Y0194341D01*
X0045290Y0194235D02*
X0032984Y0194235D01*
X0032984Y0195233D02*
X0052250Y0195233D01*
X0052750Y0194841D02*
X0053150Y0194941D01*
X0069950Y0194941D01*
X0070402Y0195233D02*
X0053250Y0195233D01*
X0053250Y0194235D02*
X0052250Y0194235D01*
X0052250Y0193236D02*
X0053250Y0193236D01*
X0053250Y0192238D02*
X0052250Y0192238D01*
X0052250Y0191239D02*
X0053250Y0191239D01*
X0053250Y0189341D02*
X0053250Y0185341D01*
X0060227Y0185341D01*
X0060139Y0185895D01*
X0059920Y0186569D01*
X0059599Y0187200D01*
X0059182Y0187773D01*
X0058682Y0188274D01*
X0058109Y0188690D01*
X0057477Y0189012D01*
X0056804Y0189231D01*
X0056104Y0189341D01*
X0053250Y0189341D01*
X0053250Y0189242D02*
X0052250Y0189242D01*
X0052250Y0189341D02*
X0049396Y0189341D01*
X0048696Y0189231D01*
X0048023Y0189012D01*
X0047391Y0188690D01*
X0046818Y0188274D01*
X0046318Y0187773D01*
X0045901Y0187200D01*
X0045580Y0186569D01*
X0045361Y0185895D01*
X0045273Y0185341D01*
X0052250Y0185341D01*
X0052250Y0184341D01*
X0053250Y0184341D01*
X0053250Y0180341D01*
X0056104Y0180341D01*
X0056804Y0180452D01*
X0057477Y0180671D01*
X0058109Y0180993D01*
X0058682Y0181409D01*
X0059182Y0181910D01*
X0059599Y0182483D01*
X0059920Y0183114D01*
X0060139Y0183788D01*
X0060227Y0184341D01*
X0053250Y0184341D01*
X0053250Y0185341D01*
X0052250Y0185341D01*
X0052250Y0189341D01*
X0052250Y0188244D02*
X0053250Y0188244D01*
X0053250Y0187245D02*
X0052250Y0187245D01*
X0052250Y0186247D02*
X0053250Y0186247D01*
X0053250Y0185248D02*
X0069194Y0185248D01*
X0068195Y0184250D02*
X0060212Y0184250D01*
X0059965Y0183251D02*
X0067197Y0183251D01*
X0066198Y0182253D02*
X0059431Y0182253D01*
X0058468Y0181254D02*
X0065950Y0181254D01*
X0065950Y0180256D02*
X0032984Y0180256D01*
X0032984Y0181254D02*
X0047032Y0181254D01*
X0046818Y0181409D02*
X0047391Y0180993D01*
X0048023Y0180671D01*
X0048696Y0180452D01*
X0049396Y0180341D01*
X0052250Y0180341D01*
X0052250Y0184341D01*
X0045273Y0184341D01*
X0045361Y0183788D01*
X0045580Y0183114D01*
X0045901Y0182483D01*
X0046318Y0181910D01*
X0046818Y0181409D01*
X0046069Y0182253D02*
X0032984Y0182253D01*
X0032984Y0183251D02*
X0045535Y0183251D01*
X0045288Y0184250D02*
X0032984Y0184250D01*
X0032984Y0185248D02*
X0052250Y0185248D01*
X0052250Y0184250D02*
X0053250Y0184250D01*
X0053250Y0183251D02*
X0052250Y0183251D01*
X0052250Y0182253D02*
X0053250Y0182253D01*
X0053250Y0181254D02*
X0052250Y0181254D01*
X0046788Y0188244D02*
X0032984Y0188244D01*
X0032984Y0189242D02*
X0048769Y0189242D01*
X0047052Y0191239D02*
X0032984Y0191239D01*
X0032984Y0190241D02*
X0074187Y0190241D01*
X0075185Y0191239D02*
X0058448Y0191239D01*
X0059421Y0192238D02*
X0076184Y0192238D01*
X0076331Y0193236D02*
X0075331Y0193236D01*
X0075331Y0193130D02*
X0075331Y0200657D01*
X0076331Y0200657D01*
X0076331Y0201657D01*
X0083858Y0201657D01*
X0083858Y0201684D01*
X0083721Y0202727D01*
X0083449Y0203743D01*
X0083046Y0204716D01*
X0082520Y0205627D01*
X0081879Y0206462D01*
X0081135Y0207206D01*
X0080300Y0207846D01*
X0079389Y0208373D01*
X0078417Y0208775D01*
X0077400Y0209048D01*
X0076357Y0209185D01*
X0076331Y0209185D01*
X0076331Y0201658D01*
X0075331Y0201658D01*
X0075331Y0209185D01*
X0075305Y0209185D01*
X0074261Y0209048D01*
X0073245Y0208775D01*
X0072273Y0208373D01*
X0071361Y0207846D01*
X0070526Y0207206D01*
X0069782Y0206462D01*
X0069142Y0205627D01*
X0068616Y0204716D01*
X0068213Y0203743D01*
X0067941Y0202727D01*
X0067803Y0201684D01*
X0067803Y0201657D01*
X0075331Y0201657D01*
X0075331Y0200657D01*
X0067803Y0200657D01*
X0067803Y0200631D01*
X0067941Y0199588D01*
X0068213Y0198572D01*
X0068616Y0197599D01*
X0069142Y0196688D01*
X0069782Y0195853D01*
X0070526Y0195109D01*
X0071361Y0194468D01*
X0072273Y0193942D01*
X0073245Y0193540D01*
X0074261Y0193267D01*
X0075305Y0193130D01*
X0075331Y0193130D01*
X0074498Y0193236D02*
X0059960Y0193236D01*
X0060210Y0194235D02*
X0071766Y0194235D01*
X0069492Y0196232D02*
X0060030Y0196232D01*
X0059577Y0197230D02*
X0068829Y0197230D01*
X0068355Y0198229D02*
X0058727Y0198229D01*
X0056814Y0199227D02*
X0068037Y0199227D01*
X0067857Y0200226D02*
X0032984Y0200226D01*
X0032984Y0193236D02*
X0045540Y0193236D01*
X0046079Y0192238D02*
X0032984Y0192238D01*
X0032984Y0187245D02*
X0045934Y0187245D01*
X0045475Y0186247D02*
X0032984Y0186247D01*
X0032984Y0179257D02*
X0065950Y0179257D01*
X0065950Y0178258D02*
X0032984Y0178258D01*
X0032984Y0177260D02*
X0065950Y0177260D01*
X0065037Y0176261D02*
X0032984Y0176261D01*
X0032984Y0175263D02*
X0064666Y0175263D01*
X0064666Y0174264D02*
X0032984Y0174264D01*
X0032984Y0173266D02*
X0065060Y0173266D01*
X0065950Y0172267D02*
X0032984Y0172267D01*
X0032984Y0171269D02*
X0065950Y0171269D01*
X0065950Y0170270D02*
X0032984Y0170270D01*
X0034559Y0163824D02*
X0034559Y0163574D01*
X0038868Y0163574D01*
X0039118Y0163574D01*
X0039118Y0158932D01*
X0039108Y0158922D01*
X0038868Y0158505D01*
X0038868Y0163574D01*
X0038868Y0163824D01*
X0034559Y0163824D01*
X0038868Y0164279D02*
X0039118Y0164279D01*
X0039118Y0163281D02*
X0038868Y0163281D01*
X0038868Y0162282D02*
X0039118Y0162282D01*
X0039118Y0161284D02*
X0038868Y0161284D01*
X0038868Y0160285D02*
X0039118Y0160285D01*
X0039118Y0159287D02*
X0038868Y0159287D01*
X0038475Y0157825D02*
X0037687Y0156460D01*
X0036951Y0153713D01*
X0036951Y0150870D01*
X0037687Y0148123D01*
X0038928Y0145973D01*
X0038928Y0140780D01*
X0038678Y0140780D01*
X0038678Y0146241D01*
X0030272Y0146241D01*
X0029502Y0146560D01*
X0027086Y0146560D01*
X0026316Y0146241D01*
X0011056Y0146241D01*
X0010286Y0146560D01*
X0007869Y0146560D01*
X0007099Y0146241D01*
X0006406Y0146241D01*
X0006402Y0157825D01*
X0007275Y0157825D01*
X0008059Y0157500D01*
X0010476Y0157500D01*
X0011260Y0157825D01*
X0026491Y0157825D01*
X0027276Y0157500D01*
X0029692Y0157500D01*
X0030476Y0157825D01*
X0038475Y0157825D01*
X0038166Y0157290D02*
X0006402Y0157290D01*
X0006402Y0156291D02*
X0037642Y0156291D01*
X0037374Y0155293D02*
X0006403Y0155293D01*
X0006403Y0154294D02*
X0037107Y0154294D01*
X0036951Y0153296D02*
X0006403Y0153296D01*
X0006404Y0152297D02*
X0036951Y0152297D01*
X0036951Y0151299D02*
X0006404Y0151299D01*
X0006404Y0150300D02*
X0037103Y0150300D01*
X0037371Y0149302D02*
X0006405Y0149302D01*
X0006405Y0148303D02*
X0037638Y0148303D01*
X0038159Y0147305D02*
X0006405Y0147305D01*
X0006406Y0146306D02*
X0007256Y0146306D01*
X0010899Y0146306D02*
X0026472Y0146306D01*
X0030116Y0146306D02*
X0038736Y0146306D01*
X0038678Y0145308D02*
X0038928Y0145308D01*
X0038928Y0144309D02*
X0038678Y0144309D01*
X0038678Y0143311D02*
X0038928Y0143311D01*
X0038928Y0142312D02*
X0038678Y0142312D01*
X0038678Y0141314D02*
X0038928Y0141314D01*
X0038928Y0140315D02*
X0038678Y0140315D01*
X0038678Y0139317D02*
X0038928Y0139317D01*
X0038928Y0138318D02*
X0038678Y0138318D01*
X0038678Y0137320D02*
X0038928Y0137320D01*
X0038928Y0136321D02*
X0038678Y0136321D01*
X0038678Y0135323D02*
X0038928Y0135323D01*
X0044962Y0135323D02*
X0076106Y0135323D01*
X0075108Y0136321D02*
X0045294Y0136321D01*
X0045294Y0137320D02*
X0074109Y0137320D01*
X0073111Y0138318D02*
X0045294Y0138318D01*
X0045294Y0139317D02*
X0072112Y0139317D01*
X0071114Y0140315D02*
X0045294Y0140315D01*
X0045294Y0141314D02*
X0070115Y0141314D01*
X0069117Y0142312D02*
X0052064Y0142312D01*
X0053793Y0143311D02*
X0068118Y0143311D01*
X0067119Y0144309D02*
X0055040Y0144309D01*
X0056039Y0145308D02*
X0066121Y0145308D01*
X0065950Y0146306D02*
X0056764Y0146306D01*
X0057341Y0147305D02*
X0065950Y0147305D01*
X0065950Y0148303D02*
X0057862Y0148303D01*
X0058129Y0149302D02*
X0065950Y0149302D01*
X0065950Y0150300D02*
X0058397Y0150300D01*
X0058549Y0151299D02*
X0065950Y0151299D01*
X0065950Y0152297D02*
X0058549Y0152297D01*
X0058549Y0153296D02*
X0065950Y0153296D01*
X0065950Y0154294D02*
X0058393Y0154294D01*
X0058126Y0155293D02*
X0065950Y0155293D01*
X0065950Y0156291D02*
X0057858Y0156291D01*
X0057334Y0157290D02*
X0065950Y0157290D01*
X0065950Y0158288D02*
X0056758Y0158288D01*
X0056027Y0159287D02*
X0065950Y0159287D01*
X0065950Y0160285D02*
X0055028Y0160285D01*
X0053773Y0161284D02*
X0065950Y0161284D01*
X0065950Y0162282D02*
X0052044Y0162282D01*
X0045484Y0163281D02*
X0065950Y0163281D01*
X0065950Y0164279D02*
X0045484Y0164279D01*
X0045484Y0165278D02*
X0065950Y0165278D01*
X0065950Y0166276D02*
X0045484Y0166276D01*
X0045484Y0167275D02*
X0065950Y0167275D01*
X0065950Y0168273D02*
X0045392Y0168273D01*
X0044511Y0169272D02*
X0065950Y0169272D01*
X0069150Y0169272D02*
X0083172Y0169272D01*
X0083218Y0169161D02*
X0084307Y0168072D01*
X0085730Y0167483D01*
X0087270Y0167483D01*
X0088693Y0168072D01*
X0089782Y0169161D01*
X0090372Y0170584D01*
X0090372Y0172124D01*
X0089782Y0173547D01*
X0088693Y0174637D01*
X0087270Y0175226D01*
X0085730Y0175226D01*
X0084307Y0174637D01*
X0083218Y0173547D01*
X0082628Y0172124D01*
X0082628Y0170584D01*
X0083218Y0169161D01*
X0082758Y0170270D02*
X0069150Y0170270D01*
X0069150Y0171269D02*
X0082628Y0171269D01*
X0082688Y0172267D02*
X0069150Y0172267D01*
X0070040Y0173266D02*
X0083101Y0173266D01*
X0083935Y0174264D02*
X0070434Y0174264D01*
X0070434Y0175263D02*
X0097609Y0175263D01*
X0098607Y0176261D02*
X0089008Y0176261D01*
X0088693Y0175946D02*
X0089782Y0177035D01*
X0090372Y0178458D01*
X0090372Y0179998D01*
X0089782Y0181421D01*
X0088693Y0182511D01*
X0087270Y0183100D01*
X0085730Y0183100D01*
X0084307Y0182511D01*
X0083218Y0181421D01*
X0082628Y0179998D01*
X0082628Y0178458D01*
X0083218Y0177035D01*
X0084307Y0175946D01*
X0085730Y0175357D01*
X0087270Y0175357D01*
X0088693Y0175946D01*
X0089065Y0174264D02*
X0096610Y0174264D01*
X0095612Y0173266D02*
X0089899Y0173266D01*
X0090312Y0172267D02*
X0094613Y0172267D01*
X0093615Y0171269D02*
X0090372Y0171269D01*
X0090242Y0170270D02*
X0092616Y0170270D01*
X0091618Y0169272D02*
X0089828Y0169272D01*
X0090619Y0168273D02*
X0088894Y0168273D01*
X0089621Y0167275D02*
X0069150Y0167275D01*
X0069150Y0168273D02*
X0084106Y0168273D01*
X0085475Y0165278D02*
X0069150Y0165278D01*
X0069150Y0166276D02*
X0088622Y0166276D01*
X0087624Y0165278D02*
X0087525Y0165278D01*
X0087595Y0165249D02*
X0087270Y0165383D01*
X0085730Y0165383D01*
X0084307Y0164794D01*
X0083218Y0163705D01*
X0082628Y0162282D01*
X0082628Y0160742D01*
X0083218Y0159319D01*
X0084307Y0158230D01*
X0085730Y0157640D01*
X0087270Y0157640D01*
X0088693Y0158230D01*
X0089782Y0159319D01*
X0090372Y0160742D01*
X0090372Y0162282D01*
X0090015Y0163143D01*
X0101013Y0174141D01*
X0109091Y0174141D01*
X0109105Y0174108D01*
X0109916Y0173296D01*
X0110976Y0172857D01*
X0112124Y0172857D01*
X0113184Y0173296D01*
X0113995Y0174108D01*
X0114009Y0174141D01*
X0125091Y0174141D01*
X0125105Y0174108D01*
X0125916Y0173296D01*
X0126976Y0172857D01*
X0128124Y0172857D01*
X0128158Y0172871D01*
X0136350Y0164679D01*
X0136350Y0164679D01*
X0137287Y0163741D01*
X0138691Y0163741D01*
X0138705Y0163708D01*
X0139516Y0162896D01*
X0140576Y0162457D01*
X0141724Y0162457D01*
X0142784Y0162896D01*
X0143595Y0163708D01*
X0144034Y0164768D01*
X0144034Y0165915D01*
X0143595Y0166975D01*
X0142784Y0167786D01*
X0141724Y0168226D01*
X0140576Y0168226D01*
X0139516Y0167786D01*
X0138705Y0166975D01*
X0138691Y0166941D01*
X0138613Y0166941D01*
X0130420Y0175134D01*
X0130434Y0175168D01*
X0130434Y0176315D01*
X0129995Y0177375D01*
X0129184Y0178186D01*
X0128124Y0178626D01*
X0126976Y0178626D01*
X0125916Y0178186D01*
X0125105Y0177375D01*
X0125091Y0177341D01*
X0114009Y0177341D01*
X0113995Y0177375D01*
X0113184Y0178186D01*
X0112124Y0178626D01*
X0110976Y0178626D01*
X0109916Y0178186D01*
X0109105Y0177375D01*
X0109091Y0177341D01*
X0099687Y0177341D01*
X0087595Y0165249D01*
X0086750Y0162141D02*
X0086500Y0161512D01*
X0086750Y0162141D02*
X0100350Y0175741D01*
X0111550Y0175741D01*
X0127550Y0175741D01*
X0137950Y0165341D01*
X0141150Y0165341D01*
X0143168Y0163281D02*
X0156457Y0163281D01*
X0156455Y0164279D02*
X0143832Y0164279D01*
X0144034Y0165278D02*
X0156452Y0165278D01*
X0156449Y0166276D02*
X0143885Y0166276D01*
X0143295Y0167275D02*
X0156447Y0167275D01*
X0156444Y0168273D02*
X0137281Y0168273D01*
X0138279Y0167275D02*
X0139005Y0167275D01*
X0136282Y0169272D02*
X0156441Y0169272D01*
X0156438Y0170270D02*
X0135284Y0170270D01*
X0134285Y0171269D02*
X0156436Y0171269D01*
X0156433Y0172267D02*
X0133287Y0172267D01*
X0132288Y0173266D02*
X0156430Y0173266D01*
X0156428Y0174264D02*
X0131290Y0174264D01*
X0130434Y0175263D02*
X0156425Y0175263D01*
X0156422Y0176261D02*
X0130434Y0176261D01*
X0130043Y0177260D02*
X0156419Y0177260D01*
X0156417Y0178258D02*
X0129010Y0178258D01*
X0126090Y0178258D02*
X0113010Y0178258D01*
X0110090Y0178258D02*
X0090289Y0178258D01*
X0090372Y0179257D02*
X0156414Y0179257D01*
X0156411Y0180256D02*
X0090265Y0180256D01*
X0089852Y0181254D02*
X0156409Y0181254D01*
X0156406Y0182253D02*
X0088951Y0182253D01*
X0089950Y0185341D02*
X0107550Y0185341D01*
X0109950Y0185341D01*
X0133950Y0209341D01*
X0145950Y0209341D01*
X0149150Y0209341D02*
X0150750Y0207741D01*
X0150764Y0207255D01*
X0150279Y0208214D02*
X0151248Y0208214D01*
X0151248Y0209212D02*
X0150279Y0209212D01*
X0150279Y0210211D02*
X0151248Y0210211D01*
X0151248Y0211209D02*
X0150279Y0211209D01*
X0150279Y0212208D02*
X0151248Y0212208D01*
X0151248Y0213206D02*
X0150279Y0213206D01*
X0150279Y0214205D02*
X0151248Y0214205D01*
X0151248Y0215203D02*
X0150279Y0215203D01*
X0150279Y0216202D02*
X0151248Y0216202D01*
X0151248Y0217200D02*
X0150279Y0217200D01*
X0150279Y0218199D02*
X0151248Y0218199D01*
X0151248Y0219197D02*
X0150279Y0219197D01*
X0161706Y0218199D02*
X0184528Y0218199D01*
X0184528Y0217200D02*
X0161706Y0217200D01*
X0161706Y0216202D02*
X0167372Y0216202D01*
X0170628Y0216202D02*
X0184528Y0216202D01*
X0184528Y0215203D02*
X0171647Y0215203D01*
X0172060Y0214205D02*
X0184528Y0214205D01*
X0184528Y0213206D02*
X0172081Y0213206D01*
X0171783Y0212208D02*
X0184528Y0212208D01*
X0184528Y0211209D02*
X0171025Y0211209D01*
X0171692Y0207961D02*
X0164481Y0207961D01*
X0163837Y0207317D01*
X0163837Y0193020D01*
X0164481Y0192376D01*
X0171692Y0192376D01*
X0172336Y0193020D01*
X0172336Y0207317D01*
X0171692Y0207961D01*
X0172336Y0207215D02*
X0184528Y0207215D01*
X0184528Y0206217D02*
X0172336Y0206217D01*
X0172336Y0205218D02*
X0184528Y0205218D01*
X0184528Y0204220D02*
X0172336Y0204220D01*
X0172336Y0203221D02*
X0184528Y0203221D01*
X0184528Y0202223D02*
X0172336Y0202223D01*
X0172336Y0201224D02*
X0184528Y0201224D01*
X0184528Y0200226D02*
X0172336Y0200226D01*
X0172336Y0199227D02*
X0184528Y0199227D01*
X0184528Y0198229D02*
X0172336Y0198229D01*
X0172336Y0197230D02*
X0184528Y0197230D01*
X0184528Y0196232D02*
X0172336Y0196232D01*
X0172336Y0195233D02*
X0184528Y0195233D01*
X0184528Y0194235D02*
X0172336Y0194235D01*
X0172336Y0193236D02*
X0184528Y0193236D01*
X0184528Y0192238D02*
X0160979Y0192238D01*
X0160976Y0193236D02*
X0163837Y0193236D01*
X0163837Y0194235D02*
X0160973Y0194235D01*
X0160970Y0195233D02*
X0163837Y0195233D01*
X0163837Y0196232D02*
X0161706Y0196232D01*
X0161706Y0197230D02*
X0163837Y0197230D01*
X0163837Y0198229D02*
X0161706Y0198229D01*
X0161706Y0199227D02*
X0163837Y0199227D01*
X0163837Y0200226D02*
X0161706Y0200226D01*
X0161706Y0201224D02*
X0163837Y0201224D01*
X0163837Y0202223D02*
X0161706Y0202223D01*
X0161706Y0203221D02*
X0163837Y0203221D01*
X0163837Y0204220D02*
X0161706Y0204220D01*
X0161706Y0205218D02*
X0163837Y0205218D01*
X0163837Y0206217D02*
X0161706Y0206217D01*
X0161851Y0207215D02*
X0163837Y0207215D01*
X0162849Y0208214D02*
X0184528Y0208214D01*
X0184528Y0209212D02*
X0163848Y0209212D01*
X0164846Y0210211D02*
X0184528Y0210211D01*
X0184528Y0191239D02*
X0160981Y0191239D01*
X0160984Y0190241D02*
X0184528Y0190241D01*
X0184528Y0189242D02*
X0160987Y0189242D01*
X0160990Y0188244D02*
X0167664Y0188244D01*
X0169086Y0188244D02*
X0184528Y0188244D01*
X0184528Y0187245D02*
X0170625Y0187245D01*
X0171153Y0186247D02*
X0184528Y0186247D01*
X0184528Y0185248D02*
X0171259Y0185248D01*
X0171014Y0184250D02*
X0184528Y0184250D01*
X0184528Y0183251D02*
X0170289Y0183251D01*
X0168034Y0182253D02*
X0184528Y0182253D01*
X0184528Y0181254D02*
X0168034Y0181254D01*
X0168034Y0180256D02*
X0184528Y0180256D01*
X0184528Y0179257D02*
X0168034Y0179257D01*
X0168034Y0178258D02*
X0184528Y0178258D01*
X0184528Y0177260D02*
X0168034Y0177260D01*
X0168034Y0176261D02*
X0184528Y0176261D01*
X0184528Y0175263D02*
X0168034Y0175263D01*
X0168034Y0174264D02*
X0184528Y0174264D01*
X0184528Y0173266D02*
X0168034Y0173266D01*
X0168034Y0172267D02*
X0184528Y0172267D01*
X0184528Y0171269D02*
X0168034Y0171269D01*
X0168034Y0170270D02*
X0184528Y0170270D01*
X0184528Y0169272D02*
X0168034Y0169272D01*
X0168034Y0168273D02*
X0184528Y0168273D01*
X0184528Y0167275D02*
X0168034Y0167275D01*
X0168034Y0166276D02*
X0184528Y0166276D01*
X0184528Y0165278D02*
X0168034Y0165278D01*
X0168034Y0164279D02*
X0184528Y0164279D01*
X0184528Y0163281D02*
X0168034Y0163281D01*
X0168034Y0162282D02*
X0184528Y0162282D01*
X0184528Y0161284D02*
X0168034Y0161284D01*
X0168034Y0160285D02*
X0184528Y0160285D01*
X0184528Y0159287D02*
X0168034Y0159287D01*
X0168034Y0158288D02*
X0184528Y0158288D01*
X0184528Y0157290D02*
X0168034Y0157290D01*
X0168034Y0156291D02*
X0184528Y0156291D01*
X0184528Y0155293D02*
X0168034Y0155293D01*
X0168034Y0154294D02*
X0184528Y0154294D01*
X0184528Y0153296D02*
X0168034Y0153296D01*
X0168034Y0152297D02*
X0184528Y0152297D01*
X0184528Y0151299D02*
X0168034Y0151299D01*
X0168034Y0150300D02*
X0184528Y0150300D01*
X0184528Y0149302D02*
X0168034Y0149302D01*
X0168034Y0148303D02*
X0184528Y0148303D01*
X0184528Y0147305D02*
X0168034Y0147305D01*
X0168034Y0146306D02*
X0184528Y0146306D01*
X0184528Y0145308D02*
X0168034Y0145308D01*
X0168034Y0144309D02*
X0184528Y0144309D01*
X0184528Y0143311D02*
X0168034Y0143311D01*
X0168034Y0142312D02*
X0184528Y0142312D01*
X0184528Y0141314D02*
X0168034Y0141314D01*
X0168034Y0140315D02*
X0184528Y0140315D01*
X0184528Y0139317D02*
X0168034Y0139317D01*
X0168034Y0138318D02*
X0184528Y0138318D01*
X0184528Y0137320D02*
X0168034Y0137320D01*
X0168034Y0136321D02*
X0184528Y0136321D01*
X0184528Y0135323D02*
X0168034Y0135323D01*
X0168034Y0134324D02*
X0184528Y0134324D01*
X0184528Y0133325D02*
X0168034Y0133325D01*
X0168034Y0132327D02*
X0184528Y0132327D01*
X0184528Y0131328D02*
X0168034Y0131328D01*
X0168034Y0130330D02*
X0184528Y0130330D01*
X0184528Y0129331D02*
X0168034Y0129331D01*
X0168034Y0128333D02*
X0184528Y0128333D01*
X0184528Y0127334D02*
X0168034Y0127334D01*
X0168034Y0126336D02*
X0184528Y0126336D01*
X0184528Y0125337D02*
X0168034Y0125337D01*
X0168034Y0124339D02*
X0184528Y0124339D01*
X0184528Y0123340D02*
X0168034Y0123340D01*
X0168034Y0122342D02*
X0184528Y0122342D01*
X0184528Y0121343D02*
X0168034Y0121343D01*
X0168034Y0120345D02*
X0184528Y0120345D01*
X0184528Y0119346D02*
X0168034Y0119346D01*
X0168034Y0118348D02*
X0184528Y0118348D01*
X0184528Y0117349D02*
X0168034Y0117349D01*
X0168034Y0116351D02*
X0184528Y0116351D01*
X0184528Y0115352D02*
X0168034Y0115352D01*
X0168034Y0114354D02*
X0184528Y0114354D01*
X0184528Y0113355D02*
X0168034Y0113355D01*
X0168034Y0112357D02*
X0184528Y0112357D01*
X0184528Y0111358D02*
X0168034Y0111358D01*
X0168034Y0110360D02*
X0184528Y0110360D01*
X0184528Y0109361D02*
X0168034Y0109361D01*
X0168034Y0108363D02*
X0184528Y0108363D01*
X0184528Y0107364D02*
X0168034Y0107364D01*
X0168034Y0106366D02*
X0184528Y0106366D01*
X0184528Y0105367D02*
X0168034Y0105367D01*
X0168034Y0104369D02*
X0184528Y0104369D01*
X0184528Y0103370D02*
X0168034Y0103370D01*
X0168034Y0102372D02*
X0184528Y0102372D01*
X0184528Y0101373D02*
X0168034Y0101373D01*
X0168034Y0100375D02*
X0184528Y0100375D01*
X0184528Y0099376D02*
X0168034Y0099376D01*
X0168034Y0098378D02*
X0184528Y0098378D01*
X0184528Y0097379D02*
X0168034Y0097379D01*
X0168034Y0096381D02*
X0184528Y0096381D01*
X0184528Y0095382D02*
X0168034Y0095382D01*
X0168034Y0094384D02*
X0184528Y0094384D01*
X0184528Y0093385D02*
X0168034Y0093385D01*
X0168034Y0092387D02*
X0184528Y0092387D01*
X0184528Y0091388D02*
X0168034Y0091388D01*
X0168034Y0090389D02*
X0184528Y0090389D01*
X0184528Y0089391D02*
X0168034Y0089391D01*
X0168034Y0088392D02*
X0184528Y0088392D01*
X0184528Y0087394D02*
X0168034Y0087394D01*
X0168034Y0086395D02*
X0184528Y0086395D01*
X0184528Y0085397D02*
X0168034Y0085397D01*
X0168034Y0084398D02*
X0184528Y0084398D01*
X0184528Y0083400D02*
X0168034Y0083400D01*
X0168034Y0082401D02*
X0184528Y0082401D01*
X0184528Y0081403D02*
X0168034Y0081403D01*
X0168034Y0080404D02*
X0184528Y0080404D01*
X0184528Y0079406D02*
X0168034Y0079406D01*
X0168034Y0078407D02*
X0184528Y0078407D01*
X0184528Y0077409D02*
X0168034Y0077409D01*
X0168034Y0076410D02*
X0184528Y0076410D01*
X0184528Y0075412D02*
X0168034Y0075412D01*
X0168034Y0074413D02*
X0184528Y0074413D01*
X0184528Y0073415D02*
X0168034Y0073415D01*
X0168034Y0072416D02*
X0184528Y0072416D01*
X0184528Y0071418D02*
X0169577Y0071418D01*
X0170353Y0070419D02*
X0184528Y0070419D01*
X0184528Y0069421D02*
X0170634Y0069421D01*
X0170564Y0068422D02*
X0184528Y0068422D01*
X0184528Y0067424D02*
X0170086Y0067424D01*
X0168669Y0066425D02*
X0184528Y0066425D01*
X0184528Y0065427D02*
X0166273Y0065427D01*
X0165275Y0064428D02*
X0184528Y0064428D01*
X0184528Y0063430D02*
X0164276Y0063430D01*
X0163278Y0062431D02*
X0184528Y0062431D01*
X0184528Y0061433D02*
X0162279Y0061433D01*
X0161870Y0060434D02*
X0184528Y0060434D01*
X0184528Y0059436D02*
X0161457Y0059436D01*
X0160250Y0058437D02*
X0184528Y0058437D01*
X0184528Y0057439D02*
X0157716Y0057439D01*
X0157716Y0058437D02*
X0157750Y0058437D01*
X0157716Y0056440D02*
X0184528Y0056440D01*
X0184528Y0055442D02*
X0157716Y0055442D01*
X0157716Y0054443D02*
X0176479Y0054443D01*
X0176067Y0053445D02*
X0157716Y0053445D01*
X0157716Y0052446D02*
X0176067Y0052446D01*
X0176067Y0051448D02*
X0157716Y0051448D01*
X0157716Y0050449D02*
X0176067Y0050449D01*
X0176067Y0049451D02*
X0162862Y0049451D01*
X0164531Y0048452D02*
X0176067Y0048452D01*
X0176067Y0047454D02*
X0165529Y0047454D01*
X0166376Y0046455D02*
X0176067Y0046455D01*
X0176067Y0045456D02*
X0166790Y0045456D01*
X0167203Y0044458D02*
X0176067Y0044458D01*
X0176278Y0043459D02*
X0167493Y0043459D01*
X0167493Y0042461D02*
X0184528Y0042461D01*
X0184525Y0041462D02*
X0167493Y0041462D01*
X0167454Y0040464D02*
X0184528Y0040464D01*
X0184532Y0039465D02*
X0167041Y0039465D01*
X0166627Y0038467D02*
X0184536Y0038467D01*
X0184539Y0037468D02*
X0166135Y0037468D01*
X0165137Y0036470D02*
X0184539Y0036470D01*
X0184539Y0035471D02*
X0164138Y0035471D01*
X0161915Y0034473D02*
X0184549Y0034473D01*
X0184552Y0033474D02*
X0173680Y0033474D01*
X0174678Y0032476D02*
X0184556Y0032476D01*
X0184559Y0031477D02*
X0175677Y0031477D01*
X0176675Y0030479D02*
X0184563Y0030479D01*
X0181104Y0024441D02*
X0180350Y0024541D01*
X0172350Y0032541D01*
X0157150Y0032541D01*
X0145150Y0044541D01*
X0145150Y0051741D01*
X0131550Y0065341D01*
X0139375Y0077541D01*
X0137161Y0079406D02*
X0136589Y0079406D01*
X0134625Y0077291D02*
X0134625Y0074166D01*
X0132684Y0072226D01*
X0102305Y0072226D01*
X0100616Y0070536D01*
X0103500Y0069341D02*
X0127550Y0069341D01*
X0131550Y0065341D01*
X0130112Y0064428D02*
X0128209Y0064428D01*
X0128209Y0063430D02*
X0131199Y0063430D01*
X0132197Y0062431D02*
X0128209Y0062431D01*
X0128209Y0061433D02*
X0133196Y0061433D01*
X0134194Y0060434D02*
X0127560Y0060434D01*
X0126561Y0059436D02*
X0135193Y0059436D01*
X0136191Y0058437D02*
X0125562Y0058437D01*
X0124564Y0057439D02*
X0137190Y0057439D01*
X0138188Y0056440D02*
X0123565Y0056440D01*
X0122567Y0055442D02*
X0139187Y0055442D01*
X0138296Y0054443D02*
X0137296Y0054443D01*
X0137296Y0053445D02*
X0138296Y0053445D01*
X0138296Y0052446D02*
X0137296Y0052446D01*
X0137296Y0051448D02*
X0138296Y0051448D01*
X0138296Y0050449D02*
X0137296Y0050449D01*
X0137296Y0049451D02*
X0138296Y0049451D01*
X0137796Y0048851D02*
X0137150Y0048541D01*
X0137296Y0048452D02*
X0128123Y0048452D01*
X0128542Y0048871D02*
X0128576Y0048857D01*
X0129724Y0048857D01*
X0130784Y0049296D01*
X0131595Y0050108D01*
X0132034Y0051168D01*
X0132034Y0052315D01*
X0131595Y0053375D01*
X0130784Y0054186D01*
X0129724Y0054626D01*
X0128576Y0054626D01*
X0127516Y0054186D01*
X0126705Y0053375D01*
X0126266Y0052315D01*
X0126266Y0051168D01*
X0126280Y0051134D01*
X0124958Y0049812D01*
X0124924Y0049826D01*
X0123776Y0049826D01*
X0122716Y0049386D01*
X0121905Y0048575D01*
X0121466Y0047515D01*
X0121466Y0046368D01*
X0121905Y0045308D01*
X0122716Y0044496D01*
X0123776Y0044057D01*
X0124924Y0044057D01*
X0125984Y0044496D01*
X0126795Y0045308D01*
X0127234Y0046368D01*
X0127234Y0047515D01*
X0127220Y0047549D01*
X0128542Y0048871D01*
X0127234Y0047454D02*
X0132359Y0047454D01*
X0132359Y0046455D02*
X0127234Y0046455D01*
X0126857Y0045456D02*
X0132359Y0045456D01*
X0132359Y0044458D02*
X0125892Y0044458D01*
X0124350Y0046941D02*
X0129150Y0051741D01*
X0128136Y0054443D02*
X0121568Y0054443D01*
X0120570Y0053445D02*
X0126774Y0053445D01*
X0126320Y0052446D02*
X0119571Y0052446D01*
X0118573Y0051448D02*
X0126266Y0051448D01*
X0125595Y0050449D02*
X0118100Y0050449D01*
X0118100Y0049451D02*
X0122871Y0049451D01*
X0121854Y0048452D02*
X0118100Y0048452D01*
X0118100Y0047454D02*
X0121466Y0047454D01*
X0121466Y0046455D02*
X0118100Y0046455D01*
X0118100Y0045456D02*
X0121843Y0045456D01*
X0122808Y0044458D02*
X0118100Y0044458D01*
X0118161Y0043459D02*
X0132512Y0043459D01*
X0135550Y0043741D02*
X0135550Y0024541D01*
X0137796Y0024441D01*
X0137150Y0024541D01*
X0135550Y0024541D01*
X0134753Y0024488D02*
X0137296Y0024488D01*
X0137296Y0023489D02*
X0138296Y0023489D01*
X0138296Y0022491D02*
X0137296Y0022491D01*
X0137296Y0021492D02*
X0138296Y0021492D01*
X0138296Y0020494D02*
X0137296Y0020494D01*
X0137296Y0019495D02*
X0138296Y0019495D01*
X0138296Y0018497D02*
X0137296Y0018497D01*
X0142620Y0018497D02*
X0154576Y0018497D01*
X0153578Y0019495D02*
X0143227Y0019495D01*
X0143233Y0020494D02*
X0152805Y0020494D01*
X0152392Y0021492D02*
X0143233Y0021492D01*
X0143233Y0022491D02*
X0151978Y0022491D01*
X0151800Y0023489D02*
X0143233Y0023489D01*
X0142600Y0024488D02*
X0151800Y0024488D01*
X0151800Y0025486D02*
X0143233Y0025486D01*
X0143233Y0026485D02*
X0152017Y0026485D01*
X0152430Y0027483D02*
X0143233Y0027483D01*
X0143233Y0028482D02*
X0152844Y0028482D01*
X0153671Y0029480D02*
X0143202Y0029480D01*
X0142459Y0030479D02*
X0154669Y0030479D01*
X0155951Y0031477D02*
X0115634Y0031477D01*
X0115634Y0030479D02*
X0133134Y0030479D01*
X0132391Y0029480D02*
X0116574Y0029480D01*
X0117572Y0028482D02*
X0132359Y0028482D01*
X0137296Y0030479D02*
X0138296Y0030479D01*
X0147963Y0039465D02*
X0118969Y0039465D01*
X0119383Y0040464D02*
X0146965Y0040464D01*
X0145966Y0041462D02*
X0119384Y0041462D01*
X0119034Y0042461D02*
X0144968Y0042461D01*
X0143969Y0043459D02*
X0143080Y0043459D01*
X0143233Y0044458D02*
X0143550Y0044458D01*
X0143550Y0045456D02*
X0143233Y0045456D01*
X0143233Y0046455D02*
X0143550Y0046455D01*
X0143550Y0047454D02*
X0143233Y0047454D01*
X0143550Y0048452D02*
X0142600Y0048452D01*
X0143233Y0049451D02*
X0143550Y0049451D01*
X0143550Y0050449D02*
X0143233Y0050449D01*
X0151563Y0050449D02*
X0154103Y0050449D01*
X0154516Y0050861D02*
X0152081Y0048427D01*
X0152081Y0049154D01*
X0151612Y0050287D01*
X0151563Y0050336D01*
X0151563Y0063476D01*
X0159955Y0071869D01*
X0159959Y0071869D01*
X0160630Y0072543D01*
X0160721Y0072635D01*
X0161105Y0071708D01*
X0161916Y0070896D01*
X0162627Y0070602D01*
X0157550Y0065526D01*
X0157143Y0065526D01*
X0154516Y0062899D01*
X0154516Y0050861D01*
X0154516Y0051448D02*
X0151563Y0051448D01*
X0151563Y0052446D02*
X0154516Y0052446D01*
X0154516Y0053445D02*
X0151563Y0053445D01*
X0151563Y0054443D02*
X0154516Y0054443D01*
X0154516Y0055442D02*
X0151563Y0055442D01*
X0151563Y0056440D02*
X0154516Y0056440D01*
X0154516Y0057439D02*
X0151563Y0057439D01*
X0151563Y0058437D02*
X0154516Y0058437D01*
X0154516Y0059436D02*
X0151563Y0059436D01*
X0151563Y0060434D02*
X0154516Y0060434D01*
X0154516Y0061433D02*
X0151563Y0061433D01*
X0151563Y0062431D02*
X0154516Y0062431D01*
X0155047Y0063430D02*
X0151563Y0063430D01*
X0152515Y0064428D02*
X0156045Y0064428D01*
X0157044Y0065427D02*
X0153513Y0065427D01*
X0154512Y0066425D02*
X0158450Y0066425D01*
X0159449Y0067424D02*
X0155510Y0067424D01*
X0156509Y0068422D02*
X0160447Y0068422D01*
X0161446Y0069421D02*
X0157507Y0069421D01*
X0158506Y0070419D02*
X0162444Y0070419D01*
X0161395Y0071418D02*
X0159504Y0071418D01*
X0160503Y0072416D02*
X0160811Y0072416D01*
X0163550Y0073341D02*
X0163550Y0091741D01*
X0164708Y0094384D02*
X0164834Y0094384D01*
X0164834Y0095382D02*
X0161242Y0095382D01*
X0161245Y0094384D02*
X0162392Y0094384D01*
X0161240Y0096381D02*
X0164834Y0096381D01*
X0164834Y0097379D02*
X0161237Y0097379D01*
X0161234Y0098378D02*
X0164834Y0098378D01*
X0164834Y0099376D02*
X0161231Y0099376D01*
X0161229Y0100375D02*
X0164834Y0100375D01*
X0164834Y0101373D02*
X0161226Y0101373D01*
X0161223Y0102372D02*
X0164834Y0102372D01*
X0164834Y0103370D02*
X0161221Y0103370D01*
X0161218Y0104369D02*
X0164834Y0104369D01*
X0164834Y0105367D02*
X0161215Y0105367D01*
X0161212Y0106366D02*
X0164834Y0106366D01*
X0164834Y0107364D02*
X0161210Y0107364D01*
X0161207Y0108363D02*
X0164834Y0108363D01*
X0164834Y0109361D02*
X0161204Y0109361D01*
X0161201Y0110360D02*
X0164834Y0110360D01*
X0164834Y0111358D02*
X0161199Y0111358D01*
X0161196Y0112357D02*
X0164834Y0112357D01*
X0164834Y0113355D02*
X0161193Y0113355D01*
X0161191Y0114354D02*
X0164834Y0114354D01*
X0164834Y0115352D02*
X0161188Y0115352D01*
X0161185Y0116351D02*
X0164834Y0116351D01*
X0164834Y0117349D02*
X0161182Y0117349D01*
X0161180Y0118348D02*
X0164834Y0118348D01*
X0164834Y0119346D02*
X0161177Y0119346D01*
X0161174Y0120345D02*
X0164834Y0120345D01*
X0164834Y0121343D02*
X0161172Y0121343D01*
X0161169Y0122342D02*
X0164834Y0122342D01*
X0164834Y0123340D02*
X0161166Y0123340D01*
X0161163Y0124339D02*
X0164834Y0124339D01*
X0164834Y0125337D02*
X0161161Y0125337D01*
X0161158Y0126336D02*
X0164834Y0126336D01*
X0164834Y0127334D02*
X0161155Y0127334D01*
X0161153Y0128333D02*
X0164834Y0128333D01*
X0164834Y0129331D02*
X0161150Y0129331D01*
X0161147Y0130330D02*
X0164834Y0130330D01*
X0164834Y0131328D02*
X0161144Y0131328D01*
X0161142Y0132327D02*
X0164834Y0132327D01*
X0164834Y0133325D02*
X0161139Y0133325D01*
X0161136Y0134324D02*
X0164834Y0134324D01*
X0164834Y0135323D02*
X0161134Y0135323D01*
X0161131Y0136321D02*
X0164834Y0136321D01*
X0164834Y0137320D02*
X0161128Y0137320D01*
X0161125Y0138318D02*
X0164834Y0138318D01*
X0164834Y0139317D02*
X0161123Y0139317D01*
X0161120Y0140315D02*
X0164834Y0140315D01*
X0164834Y0141314D02*
X0161117Y0141314D01*
X0161115Y0142312D02*
X0164834Y0142312D01*
X0164834Y0143311D02*
X0161112Y0143311D01*
X0161109Y0144309D02*
X0164834Y0144309D01*
X0164834Y0145308D02*
X0161106Y0145308D01*
X0161104Y0146306D02*
X0164834Y0146306D01*
X0164834Y0147305D02*
X0161101Y0147305D01*
X0161098Y0148303D02*
X0164834Y0148303D01*
X0164834Y0149302D02*
X0161095Y0149302D01*
X0161093Y0150300D02*
X0164834Y0150300D01*
X0164834Y0151299D02*
X0161090Y0151299D01*
X0161087Y0152297D02*
X0164834Y0152297D01*
X0164834Y0153296D02*
X0161085Y0153296D01*
X0161082Y0154294D02*
X0164834Y0154294D01*
X0164834Y0155293D02*
X0161079Y0155293D01*
X0161076Y0156291D02*
X0164834Y0156291D01*
X0164834Y0157290D02*
X0161074Y0157290D01*
X0161071Y0158288D02*
X0164834Y0158288D01*
X0164834Y0159287D02*
X0161068Y0159287D01*
X0161066Y0160285D02*
X0164834Y0160285D01*
X0164834Y0161284D02*
X0161063Y0161284D01*
X0161060Y0162282D02*
X0164834Y0162282D01*
X0164834Y0163281D02*
X0161057Y0163281D01*
X0161055Y0164279D02*
X0164834Y0164279D01*
X0164834Y0165278D02*
X0161052Y0165278D01*
X0161049Y0166276D02*
X0164834Y0166276D01*
X0164834Y0167275D02*
X0161047Y0167275D01*
X0161044Y0168273D02*
X0164834Y0168273D01*
X0164834Y0169272D02*
X0161041Y0169272D01*
X0161038Y0170270D02*
X0164834Y0170270D01*
X0164834Y0171269D02*
X0161036Y0171269D01*
X0161033Y0172267D02*
X0164834Y0172267D01*
X0164834Y0173266D02*
X0161030Y0173266D01*
X0161028Y0174264D02*
X0164834Y0174264D01*
X0164834Y0175263D02*
X0161025Y0175263D01*
X0161022Y0176261D02*
X0164834Y0176261D01*
X0164834Y0177260D02*
X0161019Y0177260D01*
X0161017Y0178258D02*
X0164834Y0178258D01*
X0164834Y0179257D02*
X0161014Y0179257D01*
X0161011Y0180256D02*
X0164834Y0180256D01*
X0164834Y0181254D02*
X0161009Y0181254D01*
X0161006Y0182253D02*
X0164834Y0182253D01*
X0164834Y0183251D02*
X0161003Y0183251D01*
X0161000Y0184250D02*
X0164945Y0184250D01*
X0165491Y0185248D02*
X0160998Y0185248D01*
X0160995Y0186247D02*
X0165597Y0186247D01*
X0166125Y0187245D02*
X0160992Y0187245D01*
X0156392Y0187245D02*
X0090364Y0187245D01*
X0089717Y0186247D02*
X0156395Y0186247D01*
X0156403Y0183251D02*
X0071722Y0183251D01*
X0070724Y0182253D02*
X0084049Y0182253D01*
X0083148Y0181254D02*
X0069725Y0181254D01*
X0069150Y0180256D02*
X0082735Y0180256D01*
X0082628Y0179257D02*
X0069150Y0179257D01*
X0069150Y0178258D02*
X0082711Y0178258D01*
X0083125Y0177260D02*
X0069150Y0177260D01*
X0070063Y0176261D02*
X0083992Y0176261D01*
X0089875Y0177260D02*
X0099606Y0177260D01*
X0100137Y0173266D02*
X0109989Y0173266D01*
X0110999Y0171269D02*
X0098140Y0171269D01*
X0097142Y0170270D02*
X0110413Y0170270D01*
X0110266Y0169272D02*
X0096143Y0169272D01*
X0095145Y0168273D02*
X0109819Y0168273D01*
X0108821Y0167275D02*
X0094146Y0167275D01*
X0093148Y0166276D02*
X0107822Y0166276D01*
X0106824Y0165278D02*
X0092149Y0165278D01*
X0091151Y0164279D02*
X0105825Y0164279D01*
X0104827Y0163281D02*
X0090152Y0163281D01*
X0090371Y0162282D02*
X0103828Y0162282D01*
X0102830Y0161284D02*
X0090372Y0161284D01*
X0090183Y0160285D02*
X0101831Y0160285D01*
X0100833Y0159287D02*
X0089750Y0159287D01*
X0088752Y0158288D02*
X0099834Y0158288D01*
X0098836Y0157290D02*
X0077496Y0157290D01*
X0076331Y0157290D02*
X0075331Y0157290D01*
X0075331Y0156291D02*
X0076331Y0156291D01*
X0076331Y0155293D02*
X0075331Y0155293D01*
X0075331Y0154294D02*
X0076331Y0154294D01*
X0076331Y0153296D02*
X0075331Y0153296D01*
X0075331Y0152297D02*
X0076331Y0152297D01*
X0076331Y0151299D02*
X0075331Y0151299D01*
X0075331Y0150300D02*
X0076331Y0150300D01*
X0076350Y0150141D02*
X0075831Y0149425D01*
X0076331Y0149302D02*
X0095550Y0149302D01*
X0095550Y0150300D02*
X0083812Y0150300D01*
X0083639Y0151299D02*
X0095550Y0151299D01*
X0095550Y0152297D02*
X0083330Y0152297D01*
X0082865Y0153296D02*
X0095550Y0153296D01*
X0095840Y0154294D02*
X0082213Y0154294D01*
X0081316Y0155293D02*
X0096839Y0155293D01*
X0097837Y0156291D02*
X0079993Y0156291D01*
X0083250Y0159287D02*
X0069150Y0159287D01*
X0069150Y0160285D02*
X0082817Y0160285D01*
X0082628Y0161284D02*
X0069150Y0161284D01*
X0069150Y0162282D02*
X0082629Y0162282D01*
X0083042Y0163281D02*
X0069150Y0163281D01*
X0069150Y0164279D02*
X0083792Y0164279D01*
X0084248Y0158288D02*
X0069150Y0158288D01*
X0069150Y0157290D02*
X0074166Y0157290D01*
X0071668Y0156291D02*
X0069150Y0156291D01*
X0069150Y0155293D02*
X0070346Y0155293D01*
X0069448Y0154294D02*
X0069150Y0154294D01*
X0075331Y0148303D02*
X0076331Y0148303D01*
X0076331Y0148925D02*
X0076331Y0141398D01*
X0076357Y0141398D01*
X0077400Y0141535D01*
X0078417Y0141807D01*
X0079389Y0142210D01*
X0080300Y0142736D01*
X0081135Y0143377D01*
X0081879Y0144121D01*
X0082520Y0144956D01*
X0083046Y0145867D01*
X0083449Y0146839D01*
X0083721Y0147856D01*
X0083858Y0148899D01*
X0083858Y0148925D01*
X0076331Y0148925D01*
X0076331Y0147305D02*
X0075331Y0147305D01*
X0075331Y0146306D02*
X0076331Y0146306D01*
X0076331Y0145308D02*
X0075331Y0145308D01*
X0075331Y0144309D02*
X0076331Y0144309D01*
X0076331Y0143311D02*
X0075331Y0143311D01*
X0075331Y0142312D02*
X0076331Y0142312D01*
X0074640Y0141314D02*
X0095550Y0141314D01*
X0095550Y0142312D02*
X0079566Y0142312D01*
X0081049Y0143311D02*
X0095550Y0143311D01*
X0095550Y0144309D02*
X0082023Y0144309D01*
X0082723Y0145308D02*
X0095550Y0145308D01*
X0095550Y0146306D02*
X0083228Y0146306D01*
X0083573Y0147305D02*
X0095550Y0147305D01*
X0095550Y0148303D02*
X0083780Y0148303D01*
X0075639Y0140315D02*
X0095550Y0140315D01*
X0095550Y0139317D02*
X0076638Y0139317D01*
X0077636Y0138318D02*
X0095550Y0138318D01*
X0095550Y0137320D02*
X0078635Y0137320D01*
X0079633Y0136321D02*
X0095550Y0136321D01*
X0095550Y0135323D02*
X0080632Y0135323D01*
X0081630Y0134324D02*
X0095550Y0134324D01*
X0095550Y0133325D02*
X0082629Y0133325D01*
X0083627Y0132327D02*
X0095550Y0132327D01*
X0095550Y0131328D02*
X0084626Y0131328D01*
X0085624Y0130330D02*
X0095550Y0130330D01*
X0095550Y0129331D02*
X0086623Y0129331D01*
X0087621Y0128333D02*
X0095550Y0128333D01*
X0095550Y0127334D02*
X0095236Y0127334D01*
X0098750Y0127334D02*
X0136894Y0127334D01*
X0135896Y0128333D02*
X0098750Y0128333D01*
X0098750Y0129331D02*
X0134897Y0129331D01*
X0133899Y0130330D02*
X0098750Y0130330D01*
X0098750Y0131328D02*
X0132900Y0131328D01*
X0131902Y0132327D02*
X0098750Y0132327D01*
X0098750Y0133325D02*
X0130903Y0133325D01*
X0129905Y0134324D02*
X0098750Y0134324D01*
X0098750Y0135323D02*
X0128906Y0135323D01*
X0127908Y0136321D02*
X0098750Y0136321D01*
X0098750Y0137320D02*
X0126909Y0137320D01*
X0125911Y0138318D02*
X0098750Y0138318D01*
X0098750Y0139317D02*
X0124912Y0139317D01*
X0123914Y0140315D02*
X0104632Y0140315D01*
X0105009Y0140471D02*
X0105820Y0141283D01*
X0106259Y0142343D01*
X0106259Y0143490D01*
X0106245Y0143524D01*
X0111850Y0149129D01*
X0111850Y0155514D01*
X0111884Y0155528D01*
X0112695Y0156340D01*
X0113134Y0157400D01*
X0113134Y0158547D01*
X0112695Y0159607D01*
X0111884Y0160419D01*
X0110824Y0160858D01*
X0109676Y0160858D01*
X0108616Y0160419D01*
X0107805Y0159607D01*
X0107366Y0158547D01*
X0107366Y0157400D01*
X0107805Y0156340D01*
X0108616Y0155528D01*
X0108650Y0155514D01*
X0108650Y0150454D01*
X0103983Y0145787D01*
X0103949Y0145801D01*
X0102801Y0145801D01*
X0101741Y0145361D01*
X0100930Y0144550D01*
X0100491Y0143490D01*
X0100491Y0142343D01*
X0100930Y0141283D01*
X0101741Y0140471D01*
X0102801Y0140032D01*
X0103949Y0140032D01*
X0105009Y0140471D01*
X0105833Y0141314D02*
X0121099Y0141314D01*
X0120220Y0142312D02*
X0106247Y0142312D01*
X0106259Y0143311D02*
X0119866Y0143311D01*
X0119866Y0144309D02*
X0107030Y0144309D01*
X0108029Y0145308D02*
X0120277Y0145308D01*
X0121405Y0146306D02*
X0109028Y0146306D01*
X0110026Y0147305D02*
X0156501Y0147305D01*
X0156498Y0148303D02*
X0111025Y0148303D01*
X0111850Y0149302D02*
X0156495Y0149302D01*
X0156493Y0150300D02*
X0126088Y0150300D01*
X0126445Y0150658D02*
X0126884Y0151718D01*
X0126884Y0152865D01*
X0126445Y0153925D01*
X0125634Y0154736D01*
X0125600Y0154750D01*
X0125600Y0158582D01*
X0125634Y0158596D01*
X0126445Y0159408D01*
X0126884Y0160468D01*
X0126884Y0161615D01*
X0126445Y0162675D01*
X0125634Y0163486D01*
X0124574Y0163926D01*
X0123426Y0163926D01*
X0122366Y0163486D01*
X0121555Y0162675D01*
X0121116Y0161615D01*
X0121116Y0160468D01*
X0121555Y0159408D01*
X0122366Y0158596D01*
X0122400Y0158582D01*
X0122400Y0154750D01*
X0122366Y0154736D01*
X0121555Y0153925D01*
X0121116Y0152865D01*
X0121116Y0151718D01*
X0121555Y0150658D01*
X0122366Y0149846D01*
X0123426Y0149407D01*
X0124574Y0149407D01*
X0125634Y0149846D01*
X0126445Y0150658D01*
X0126711Y0151299D02*
X0156490Y0151299D01*
X0156487Y0152297D02*
X0126884Y0152297D01*
X0126706Y0153296D02*
X0156485Y0153296D01*
X0156482Y0154294D02*
X0126076Y0154294D01*
X0125600Y0155293D02*
X0156479Y0155293D01*
X0156476Y0156291D02*
X0125600Y0156291D01*
X0125600Y0157290D02*
X0156474Y0157290D01*
X0156471Y0158288D02*
X0125600Y0158288D01*
X0126324Y0159287D02*
X0156468Y0159287D01*
X0156466Y0160285D02*
X0126809Y0160285D01*
X0126884Y0161284D02*
X0156463Y0161284D01*
X0156460Y0162282D02*
X0126608Y0162282D01*
X0125839Y0163281D02*
X0139132Y0163281D01*
X0136749Y0164279D02*
X0110351Y0164279D01*
X0109352Y0163281D02*
X0122161Y0163281D01*
X0121392Y0162282D02*
X0108354Y0162282D01*
X0107355Y0161284D02*
X0121116Y0161284D01*
X0121191Y0160285D02*
X0112017Y0160285D01*
X0112828Y0159287D02*
X0121676Y0159287D01*
X0122400Y0158288D02*
X0113134Y0158288D01*
X0113089Y0157290D02*
X0122400Y0157290D01*
X0122400Y0156291D02*
X0112647Y0156291D01*
X0111850Y0155293D02*
X0122400Y0155293D01*
X0121924Y0154294D02*
X0111850Y0154294D01*
X0111850Y0153296D02*
X0121294Y0153296D01*
X0121116Y0152297D02*
X0111850Y0152297D01*
X0111850Y0151299D02*
X0121289Y0151299D01*
X0121912Y0150300D02*
X0111850Y0150300D01*
X0110250Y0149791D02*
X0103375Y0142916D01*
X0102118Y0140315D02*
X0098750Y0140315D01*
X0098750Y0141314D02*
X0100917Y0141314D01*
X0100503Y0142312D02*
X0098750Y0142312D01*
X0098750Y0143311D02*
X0100491Y0143311D01*
X0100830Y0144309D02*
X0098750Y0144309D01*
X0098750Y0145308D02*
X0101687Y0145308D01*
X0104502Y0146306D02*
X0098750Y0146306D01*
X0098750Y0147305D02*
X0105501Y0147305D01*
X0106499Y0148303D02*
X0098750Y0148303D01*
X0098750Y0149302D02*
X0107498Y0149302D01*
X0108496Y0150300D02*
X0098750Y0150300D01*
X0098750Y0151299D02*
X0108650Y0151299D01*
X0108650Y0152297D02*
X0098750Y0152297D01*
X0099367Y0153296D02*
X0108650Y0153296D01*
X0108650Y0154294D02*
X0100366Y0154294D01*
X0101364Y0155293D02*
X0108650Y0155293D01*
X0107853Y0156291D02*
X0102363Y0156291D01*
X0103361Y0157290D02*
X0107411Y0157290D01*
X0107366Y0158288D02*
X0104360Y0158288D01*
X0105358Y0159287D02*
X0107672Y0159287D01*
X0108483Y0160285D02*
X0106357Y0160285D01*
X0110250Y0157973D02*
X0110250Y0149791D01*
X0122750Y0143741D02*
X0137950Y0128541D01*
X0154750Y0128541D01*
X0152876Y0126336D02*
X0098750Y0126336D01*
X0098750Y0125337D02*
X0156561Y0125337D01*
X0156563Y0124339D02*
X0098750Y0124339D01*
X0098750Y0123340D02*
X0156566Y0123340D01*
X0156569Y0122342D02*
X0098750Y0122342D01*
X0099608Y0121343D02*
X0156572Y0121343D01*
X0156574Y0120345D02*
X0100022Y0120345D01*
X0100034Y0119346D02*
X0156577Y0119346D01*
X0156580Y0118348D02*
X0099695Y0118348D01*
X0098837Y0117349D02*
X0156582Y0117349D01*
X0156585Y0116351D02*
X0098750Y0116351D01*
X0098750Y0115352D02*
X0156588Y0115352D01*
X0156591Y0114354D02*
X0098750Y0114354D01*
X0098750Y0113355D02*
X0156593Y0113355D01*
X0156596Y0112357D02*
X0098750Y0112357D01*
X0098750Y0111358D02*
X0156599Y0111358D01*
X0156601Y0110360D02*
X0099411Y0110360D01*
X0099932Y0109361D02*
X0156604Y0109361D01*
X0156607Y0108363D02*
X0100034Y0108363D01*
X0099784Y0107364D02*
X0156610Y0107364D01*
X0156612Y0106366D02*
X0099053Y0106366D01*
X0097150Y0108541D02*
X0097150Y0119741D01*
X0097150Y0153341D01*
X0113150Y0169341D01*
X0115162Y0167275D02*
X0133754Y0167275D01*
X0134752Y0166276D02*
X0112348Y0166276D01*
X0111349Y0165278D02*
X0135751Y0165278D01*
X0132755Y0168273D02*
X0115830Y0168273D01*
X0116034Y0169272D02*
X0131757Y0169272D01*
X0130758Y0170270D02*
X0115887Y0170270D01*
X0115301Y0171269D02*
X0129760Y0171269D01*
X0128761Y0172267D02*
X0099139Y0172267D01*
X0113111Y0173266D02*
X0125989Y0173266D01*
X0124000Y0161041D02*
X0124000Y0152291D01*
X0124095Y0146306D02*
X0156504Y0146306D01*
X0156506Y0145308D02*
X0125223Y0145308D01*
X0125634Y0144309D02*
X0156509Y0144309D01*
X0156512Y0143311D02*
X0125634Y0143311D01*
X0126442Y0142312D02*
X0156515Y0142312D01*
X0156517Y0141314D02*
X0127440Y0141314D01*
X0128439Y0140315D02*
X0156520Y0140315D01*
X0156523Y0139317D02*
X0129438Y0139317D01*
X0130436Y0138318D02*
X0156525Y0138318D01*
X0156528Y0137320D02*
X0131435Y0137320D01*
X0132433Y0136321D02*
X0156531Y0136321D01*
X0156534Y0135323D02*
X0133432Y0135323D01*
X0134430Y0134324D02*
X0156536Y0134324D01*
X0156539Y0133325D02*
X0135429Y0133325D01*
X0136427Y0132327D02*
X0156542Y0132327D01*
X0156544Y0131328D02*
X0155558Y0131328D01*
X0153942Y0131328D02*
X0137426Y0131328D01*
X0138424Y0130330D02*
X0152460Y0130330D01*
X0155458Y0103370D02*
X0156621Y0103370D01*
X0154750Y0079291D02*
X0148975Y0073516D01*
X0157805Y0063926D02*
X0158213Y0063926D01*
X0166434Y0072147D01*
X0166434Y0183476D01*
X0168375Y0185416D01*
X0166975Y0211209D02*
X0165845Y0211209D01*
X0162335Y0214205D02*
X0161706Y0214205D01*
X0161706Y0215203D02*
X0163333Y0215203D01*
X0137065Y0193236D02*
X0087504Y0193236D01*
X0083626Y0192238D02*
X0080709Y0192238D01*
X0079711Y0191239D02*
X0082811Y0191239D01*
X0082389Y0190241D02*
X0078712Y0190241D01*
X0077182Y0193236D02*
X0077164Y0193236D01*
X0076331Y0194235D02*
X0075331Y0194235D01*
X0075331Y0195233D02*
X0076331Y0195233D01*
X0076331Y0196232D02*
X0075331Y0196232D01*
X0075331Y0197230D02*
X0076331Y0197230D01*
X0076331Y0198229D02*
X0075331Y0198229D01*
X0075331Y0199227D02*
X0076331Y0199227D01*
X0076331Y0200226D02*
X0075331Y0200226D01*
X0075550Y0200541D02*
X0075831Y0201157D01*
X0076350Y0201341D01*
X0076331Y0201224D02*
X0085170Y0201224D01*
X0084172Y0200226D02*
X0083805Y0200226D01*
X0083787Y0202223D02*
X0086169Y0202223D01*
X0087167Y0203221D02*
X0083588Y0203221D01*
X0083251Y0204220D02*
X0088166Y0204220D01*
X0089164Y0205218D02*
X0082756Y0205218D01*
X0082067Y0206217D02*
X0090163Y0206217D01*
X0091161Y0207215D02*
X0081123Y0207215D01*
X0079664Y0208214D02*
X0092160Y0208214D01*
X0088763Y0209657D02*
X0091692Y0212586D01*
X0091692Y0214357D01*
X0086992Y0214357D01*
X0086992Y0209657D01*
X0088763Y0209657D01*
X0086992Y0210211D02*
X0086392Y0210211D01*
X0086392Y0209657D02*
X0086392Y0214357D01*
X0081692Y0214357D01*
X0081692Y0212586D01*
X0084621Y0209657D01*
X0086392Y0209657D01*
X0086392Y0211209D02*
X0086992Y0211209D01*
X0086992Y0212208D02*
X0086392Y0212208D01*
X0086392Y0213206D02*
X0086992Y0213206D01*
X0086992Y0214205D02*
X0086392Y0214205D01*
X0086392Y0214357D02*
X0086992Y0214357D01*
X0086992Y0214957D01*
X0086392Y0214957D01*
X0086392Y0214357D01*
X0086692Y0214657D02*
X0085950Y0214141D01*
X0086392Y0214957D02*
X0081692Y0214957D01*
X0081692Y0216728D01*
X0084621Y0219657D01*
X0086392Y0219657D01*
X0086392Y0214957D01*
X0086392Y0215203D02*
X0086992Y0215203D01*
X0086992Y0214957D02*
X0086992Y0219657D01*
X0088763Y0219657D01*
X0091692Y0216728D01*
X0091692Y0214957D01*
X0086992Y0214957D01*
X0086992Y0216202D02*
X0086392Y0216202D01*
X0086392Y0217200D02*
X0086992Y0217200D01*
X0086992Y0218199D02*
X0086392Y0218199D01*
X0086392Y0219197D02*
X0086992Y0219197D01*
X0089223Y0219197D02*
X0094728Y0219197D01*
X0093729Y0218199D02*
X0090221Y0218199D01*
X0091220Y0217200D02*
X0092731Y0217200D01*
X0092092Y0216202D02*
X0091692Y0216202D01*
X0091692Y0215203D02*
X0092092Y0215203D01*
X0092092Y0214205D02*
X0091692Y0214205D01*
X0091692Y0213206D02*
X0092092Y0213206D01*
X0092636Y0212208D02*
X0091315Y0212208D01*
X0084067Y0210211D02*
X0080802Y0210211D01*
X0080648Y0210057D02*
X0081292Y0210701D01*
X0081292Y0218612D01*
X0080648Y0219257D01*
X0072737Y0219257D01*
X0072092Y0218612D01*
X0072092Y0210701D01*
X0072737Y0210057D01*
X0080648Y0210057D01*
X0081292Y0211209D02*
X0083069Y0211209D01*
X0082070Y0212208D02*
X0081292Y0212208D01*
X0081292Y0213206D02*
X0081692Y0213206D01*
X0081692Y0214205D02*
X0081292Y0214205D01*
X0081292Y0215203D02*
X0081692Y0215203D01*
X0081692Y0216202D02*
X0081292Y0216202D01*
X0081292Y0217200D02*
X0082165Y0217200D01*
X0081292Y0218199D02*
X0083163Y0218199D01*
X0084162Y0219197D02*
X0080707Y0219197D01*
X0072677Y0219197D02*
X0006381Y0219197D01*
X0006381Y0218199D02*
X0007589Y0218199D01*
X0006381Y0220196D02*
X0108598Y0220196D01*
X0108331Y0219197D02*
X0098657Y0219197D01*
X0099656Y0218199D02*
X0108201Y0218199D01*
X0108201Y0217200D02*
X0100654Y0217200D01*
X0101292Y0216202D02*
X0108201Y0216202D01*
X0108379Y0215203D02*
X0101292Y0215203D01*
X0101292Y0214205D02*
X0108647Y0214205D01*
X0108914Y0213206D02*
X0101292Y0213206D01*
X0100749Y0212208D02*
X0109465Y0212208D01*
X0110042Y0211209D02*
X0099750Y0211209D01*
X0098752Y0210211D02*
X0110808Y0210211D01*
X0111807Y0209212D02*
X0099542Y0209212D01*
X0100540Y0208214D02*
X0113124Y0208214D01*
X0114879Y0207215D02*
X0101539Y0207215D01*
X0076331Y0207215D02*
X0075331Y0207215D01*
X0075331Y0206217D02*
X0076331Y0206217D01*
X0076331Y0205218D02*
X0075331Y0205218D01*
X0075331Y0204220D02*
X0076331Y0204220D01*
X0076331Y0203221D02*
X0075331Y0203221D01*
X0075331Y0202223D02*
X0076331Y0202223D01*
X0075331Y0201224D02*
X0057731Y0201224D01*
X0058930Y0202223D02*
X0067874Y0202223D01*
X0068073Y0203221D02*
X0059517Y0203221D01*
X0059850Y0204220D02*
X0068410Y0204220D01*
X0068906Y0205218D02*
X0059850Y0205218D01*
X0059618Y0206217D02*
X0069594Y0206217D01*
X0070539Y0207215D02*
X0059174Y0207215D01*
X0058176Y0208214D02*
X0071998Y0208214D01*
X0072583Y0210211D02*
X0045484Y0210211D01*
X0045484Y0211209D02*
X0047805Y0211209D01*
X0047428Y0211366D02*
X0046274Y0212519D01*
X0045650Y0214026D01*
X0045650Y0215657D01*
X0046274Y0217164D01*
X0047428Y0218317D01*
X0048934Y0218941D01*
X0056566Y0218941D01*
X0058072Y0218317D01*
X0059226Y0217164D01*
X0059850Y0215657D01*
X0059850Y0214026D01*
X0059226Y0212519D01*
X0058072Y0211366D01*
X0056566Y0210741D01*
X0048934Y0210741D01*
X0047428Y0211366D01*
X0046585Y0212208D02*
X0045484Y0212208D01*
X0045484Y0213206D02*
X0045989Y0213206D01*
X0045650Y0214205D02*
X0045484Y0214205D01*
X0045484Y0215203D02*
X0045650Y0215203D01*
X0045484Y0216202D02*
X0045876Y0216202D01*
X0046311Y0217200D02*
X0045249Y0217200D01*
X0047309Y0218199D02*
X0030162Y0218199D01*
X0026806Y0218199D02*
X0010945Y0218199D01*
X0038868Y0217200D02*
X0039118Y0217200D01*
X0039118Y0216202D02*
X0038868Y0216202D01*
X0038868Y0215203D02*
X0039118Y0215203D01*
X0039118Y0214205D02*
X0038868Y0214205D01*
X0038868Y0213206D02*
X0039118Y0213206D01*
X0039118Y0212208D02*
X0038868Y0212208D01*
X0038868Y0211209D02*
X0039118Y0211209D01*
X0039118Y0210211D02*
X0038868Y0210211D01*
X0038868Y0209212D02*
X0039118Y0209212D01*
X0039118Y0208214D02*
X0038868Y0208214D01*
X0038868Y0207215D02*
X0039118Y0207215D01*
X0052250Y0199227D02*
X0053250Y0199227D01*
X0053250Y0198229D02*
X0052250Y0198229D01*
X0052250Y0197230D02*
X0053250Y0197230D01*
X0053250Y0196232D02*
X0052250Y0196232D01*
X0056731Y0189242D02*
X0073188Y0189242D01*
X0072190Y0188244D02*
X0058712Y0188244D01*
X0059566Y0187245D02*
X0071191Y0187245D01*
X0070193Y0186247D02*
X0060025Y0186247D01*
X0075331Y0208214D02*
X0076331Y0208214D01*
X0072092Y0211209D02*
X0057695Y0211209D01*
X0058915Y0212208D02*
X0072092Y0212208D01*
X0072092Y0213206D02*
X0059511Y0213206D01*
X0059850Y0214205D02*
X0072092Y0214205D01*
X0072092Y0215203D02*
X0059850Y0215203D01*
X0059624Y0216202D02*
X0072092Y0216202D01*
X0072092Y0217200D02*
X0059189Y0217200D01*
X0058191Y0218199D02*
X0072092Y0218199D01*
X0039118Y0169272D02*
X0038868Y0169272D01*
X0038868Y0168273D02*
X0039118Y0168273D01*
X0039118Y0167275D02*
X0038868Y0167275D01*
X0038868Y0166276D02*
X0039118Y0166276D01*
X0039118Y0165278D02*
X0038868Y0165278D01*
X0032794Y0134324D02*
X0077105Y0134324D01*
X0078103Y0133325D02*
X0032794Y0133325D01*
X0032794Y0132327D02*
X0079102Y0132327D01*
X0080100Y0131328D02*
X0032794Y0131328D01*
X0032794Y0130330D02*
X0081099Y0130330D01*
X0082097Y0129331D02*
X0032794Y0129331D01*
X0032794Y0128333D02*
X0083096Y0128333D01*
X0084094Y0127334D02*
X0032794Y0127334D01*
X0032794Y0126336D02*
X0085093Y0126336D01*
X0086091Y0125337D02*
X0032794Y0125337D01*
X0032794Y0124339D02*
X0087090Y0124339D01*
X0088620Y0127334D02*
X0091064Y0127334D01*
X0091072Y0123340D02*
X0032794Y0123340D01*
X0086114Y0066425D02*
X0086886Y0066425D01*
X0090684Y0064428D02*
X0103574Y0064428D01*
X0102576Y0063430D02*
X0090331Y0063430D01*
X0089651Y0062431D02*
X0099761Y0062431D01*
X0099197Y0061433D02*
X0088278Y0061433D01*
X0089017Y0058437D02*
X0099975Y0058437D01*
X0101950Y0060541D02*
X0104350Y0062941D01*
X0122125Y0062916D01*
X0123400Y0062941D01*
X0123725Y0062941D01*
X0122241Y0060434D02*
X0104834Y0060434D01*
X0104614Y0059436D02*
X0122036Y0059436D01*
X0121037Y0058437D02*
X0103925Y0058437D01*
X0116044Y0053445D02*
X0089848Y0053445D01*
X0090262Y0054443D02*
X0117043Y0054443D01*
X0118041Y0055442D02*
X0090372Y0055442D01*
X0090292Y0056440D02*
X0119040Y0056440D01*
X0120039Y0057439D02*
X0089879Y0057439D01*
X0109950Y0034141D02*
X0115550Y0034141D01*
X0114396Y0033474D02*
X0153954Y0033474D01*
X0154953Y0032476D02*
X0115278Y0032476D01*
X0112750Y0031041D02*
X0117668Y0026123D01*
X0117668Y0023593D01*
X0117699Y0023593D01*
X0117750Y0023541D01*
X0119555Y0026485D02*
X0122249Y0026485D01*
X0123287Y0027483D02*
X0118571Y0027483D01*
X0114045Y0027483D02*
X0109083Y0027483D01*
X0107432Y0027483D02*
X0107432Y0027483D01*
X0107432Y0026485D02*
X0107432Y0026485D01*
X0107432Y0025844D02*
X0107432Y0025844D01*
X0105781Y0027483D02*
X0101813Y0027483D01*
X0102851Y0026485D02*
X0105154Y0026485D01*
X0100350Y0024541D02*
X0099558Y0024085D01*
X0099845Y0024488D02*
X0099270Y0024488D01*
X0099270Y0025486D02*
X0099845Y0025486D01*
X0099845Y0026485D02*
X0099270Y0026485D01*
X0099270Y0027483D02*
X0099845Y0027483D01*
X0091956Y0017498D02*
X0055125Y0017498D01*
X0055125Y0016500D02*
X0091956Y0016500D01*
X0091956Y0015501D02*
X0055125Y0015501D01*
X0055125Y0014503D02*
X0091956Y0014503D01*
X0091956Y0013504D02*
X0055125Y0013504D01*
X0055125Y0012506D02*
X0091956Y0012506D01*
X0091956Y0011507D02*
X0055125Y0011507D01*
X0055125Y0010509D02*
X0091956Y0010509D01*
X0091956Y0009510D02*
X0055125Y0009510D01*
X0055125Y0008512D02*
X0091956Y0008512D01*
X0092085Y0007513D02*
X0055124Y0007513D01*
X0055124Y0006515D02*
X0095450Y0006515D01*
X0100589Y0006318D02*
X0101355Y0006529D01*
X0101498Y0006640D01*
X0103496Y0006640D01*
X0103877Y0006742D01*
X0104219Y0006939D01*
X0104498Y0007219D01*
X0104696Y0007561D01*
X0104798Y0007942D01*
X0104798Y0012675D01*
X0104648Y0012675D01*
X0104648Y0013447D01*
X0104798Y0013447D01*
X0104798Y0014663D01*
X0106042Y0014663D01*
X0106129Y0014699D01*
X0106129Y0013152D01*
X0109113Y0013152D01*
X0109113Y0012183D01*
X0110081Y0012183D01*
X0110081Y0007230D01*
X0111763Y0007230D01*
X0112145Y0007333D01*
X0112487Y0007530D01*
X0112550Y0007593D01*
X0112613Y0007530D01*
X0112955Y0007333D01*
X0113337Y0007230D01*
X0115018Y0007230D01*
X0115018Y0012183D01*
X0110082Y0012183D01*
X0110082Y0013152D01*
X0113066Y0013152D01*
X0115018Y0013152D01*
X0115018Y0012183D01*
X0115987Y0012183D01*
X0115987Y0007230D01*
X0117669Y0007230D01*
X0118050Y0007333D01*
X0118392Y0007530D01*
X0118672Y0007809D01*
X0118869Y0008151D01*
X0118971Y0008533D01*
X0118971Y0012183D01*
X0115987Y0012183D01*
X0115987Y0013152D01*
X0118971Y0013152D01*
X0118971Y0014699D01*
X0119058Y0014663D01*
X0120302Y0014663D01*
X0120302Y0013447D01*
X0120452Y0013447D01*
X0120452Y0012675D01*
X0120302Y0012675D01*
X0120302Y0007942D01*
X0120404Y0007561D01*
X0120602Y0007219D01*
X0120881Y0006939D01*
X0121223Y0006742D01*
X0121604Y0006640D01*
X0123734Y0006640D01*
X0124384Y0006318D01*
X0123460Y0006318D01*
X0100589Y0006318D01*
X0101304Y0006515D02*
X0123987Y0006515D01*
X0120432Y0007513D02*
X0118363Y0007513D01*
X0118966Y0008512D02*
X0120302Y0008512D01*
X0120302Y0009510D02*
X0118971Y0009510D01*
X0118971Y0010509D02*
X0120302Y0010509D01*
X0120302Y0011507D02*
X0118971Y0011507D01*
X0120302Y0012506D02*
X0115987Y0012506D01*
X0115503Y0012667D02*
X0114750Y0012541D01*
X0109950Y0012541D01*
X0109597Y0012667D01*
X0109113Y0012506D02*
X0104798Y0012506D01*
X0104798Y0013504D02*
X0106129Y0013504D01*
X0106129Y0014503D02*
X0104798Y0014503D01*
X0106129Y0012183D02*
X0106129Y0008533D01*
X0106231Y0008151D01*
X0106428Y0007809D01*
X0106708Y0007530D01*
X0107050Y0007333D01*
X0107431Y0007230D01*
X0109113Y0007230D01*
X0109113Y0012183D01*
X0106129Y0012183D01*
X0106129Y0011507D02*
X0104798Y0011507D01*
X0104798Y0010509D02*
X0106129Y0010509D01*
X0106129Y0009510D02*
X0104798Y0009510D01*
X0104798Y0008512D02*
X0106134Y0008512D01*
X0106737Y0007513D02*
X0104668Y0007513D01*
X0101355Y0006529D02*
X0101355Y0006529D01*
X0109113Y0007513D02*
X0110081Y0007513D01*
X0110081Y0008512D02*
X0109113Y0008512D01*
X0109113Y0009510D02*
X0110081Y0009510D01*
X0110081Y0010509D02*
X0109113Y0010509D01*
X0109113Y0011507D02*
X0110081Y0011507D01*
X0110082Y0012506D02*
X0115018Y0012506D01*
X0115018Y0011507D02*
X0115987Y0011507D01*
X0115987Y0010509D02*
X0115018Y0010509D01*
X0115018Y0009510D02*
X0115987Y0009510D01*
X0115987Y0008512D02*
X0115018Y0008512D01*
X0115018Y0007513D02*
X0115987Y0007513D01*
X0112643Y0007513D02*
X0112457Y0007513D01*
X0118971Y0013504D02*
X0120302Y0013504D01*
X0120302Y0014503D02*
X0118971Y0014503D01*
X0125542Y0024085D02*
X0125150Y0024541D01*
X0125255Y0024488D02*
X0125830Y0024488D01*
X0125950Y0024541D02*
X0125542Y0024085D01*
X0125255Y0025486D02*
X0125830Y0025486D01*
X0125830Y0026485D02*
X0125255Y0026485D01*
X0125255Y0027483D02*
X0125830Y0027483D01*
X0117822Y0038467D02*
X0148962Y0038467D01*
X0150875Y0043541D02*
X0151407Y0044073D01*
X0151407Y0045490D01*
X0156116Y0050199D01*
X0156116Y0062236D01*
X0157805Y0063926D01*
X0159000Y0061041D02*
X0159625Y0061041D01*
X0167750Y0069166D01*
X0153105Y0049451D02*
X0151958Y0049451D01*
X0152081Y0048452D02*
X0152106Y0048452D01*
X0164231Y0030479D02*
X0172150Y0030479D01*
X0173148Y0029480D02*
X0165229Y0029480D01*
X0166056Y0028482D02*
X0174147Y0028482D01*
X0175145Y0027483D02*
X0166470Y0027483D01*
X0166883Y0026485D02*
X0176067Y0026485D01*
X0176067Y0025486D02*
X0167100Y0025486D01*
X0167100Y0024488D02*
X0176067Y0024488D01*
X0176067Y0023489D02*
X0167100Y0023489D01*
X0166922Y0022491D02*
X0176067Y0022491D01*
X0176067Y0021492D02*
X0166508Y0021492D01*
X0166095Y0020494D02*
X0176067Y0020494D01*
X0176067Y0019495D02*
X0165322Y0019495D01*
X0164324Y0018497D02*
X0184603Y0018497D01*
X0184607Y0017498D02*
X0162677Y0017498D01*
X0156223Y0017498D02*
X0133144Y0017498D01*
X0133144Y0016500D02*
X0184610Y0016500D01*
X0184613Y0015501D02*
X0133144Y0015501D01*
X0133144Y0014503D02*
X0184617Y0014503D01*
X0184620Y0013504D02*
X0133144Y0013504D01*
X0133144Y0012506D02*
X0184623Y0012506D01*
X0184627Y0011507D02*
X0133144Y0011507D01*
X0133144Y0010509D02*
X0184630Y0010509D01*
X0184634Y0009510D02*
X0133144Y0009510D01*
X0133144Y0008512D02*
X0184637Y0008512D01*
X0184640Y0007513D02*
X0133015Y0007513D01*
X0129459Y0006515D02*
X0184644Y0006515D01*
X0132359Y0049451D02*
X0130938Y0049451D01*
X0131737Y0050449D02*
X0132359Y0050449D01*
X0132359Y0051448D02*
X0132034Y0051448D01*
X0131980Y0052446D02*
X0132359Y0052446D01*
X0132359Y0053445D02*
X0131526Y0053445D01*
X0132628Y0054443D02*
X0130164Y0054443D01*
X0129202Y0065427D02*
X0128209Y0065427D01*
D26*
X0137796Y0024441D02*
X0137750Y0024395D01*
X0137750Y0017291D01*
X0135250Y0014791D01*
X0135250Y0012291D01*
X0134480Y0013061D01*
X0126723Y0013061D01*
X0126330Y0012667D01*
X0115503Y0012667D01*
X0109597Y0012667D02*
X0098770Y0012667D01*
X0098377Y0013061D01*
X0090395Y0013061D01*
X0090250Y0012916D01*
X0075831Y0025675D02*
X0075250Y0025094D01*
X0075250Y0016666D01*
D27*
X0088375Y0082916D02*
X0088375Y0098541D01*
X0081500Y0105416D01*
X0081500Y0106041D01*
X0149263Y0064429D02*
X0149263Y0048804D01*
X0149000Y0048541D01*
X0149263Y0064429D02*
X0159000Y0074166D01*
X0158638Y0207255D01*
X0164924Y0213541D01*
X0169000Y0213541D01*
D28*
X0169000Y0213541D03*
X0149000Y0048541D03*
M02*
